ScienceGothic-BlkS.ufo
<glyph name="exclam" format="2">
  <advance width="937"/>
  <unicode hex="0021"/>
  <outline>
    <contour>
      <point x="89.2858" y="135" type="line"/>
      <point x="104.286" y="226" type="line" smooth="yes"/>
      <point x="112.286" y="270"/>
      <point x="132.286" y="324"/>
      <point x="168.286" y="354"/>
      <point x="225.286" y="364"/>
      <point x="270.286" y="364" type="qcurve" smooth="yes"/>
      <point x="557.286" y="364" type="line" smooth="yes"/>
      <point x="602.286" y="364"/>
      <point x="656.286" y="354"/>
      <point x="681.286" y="324"/>
      <point x="682.286" y="269"/>
      <point x="674.286" y="224" type="qcurve" smooth="yes"/>
      <point x="659.286" y="135" type="line" smooth="yes"/>
      <point x="651.286" y="90"/>
      <point x="631.286" y="35"/>
      <point x="595.286" y="4"/>
      <point x="538.286" y="-6"/>
      <point x="493.286" y="-6" type="qcurve" smooth="yes"/>
      <point x="205.286" y="-6" type="line" smooth="yes"/>
      <point x="160.286" y="-6"/>
      <point x="107.286" y="4"/>
      <point x="82.2858" y="35"/>
      <point x="81.2858" y="90"/>
      <point x="89.2858" y="135" type="qcurve"/>
    </contour>
    <contour>
      <point x="193.286" y="462" type="line"/>
      <point x="286.286" y="1400" type="line"/>
      <point x="902.286" y="1400" type="line"/>
      <point x="669.286" y="462" type="line"/>
    </contour>
  </outline>
</glyph>
<glyph name="numbersign" format="2">
  <advance width="1168"/>
  <unicode hex="0023"/>
  <outline>
    <contour>
      <point x="-1" y="224" type="line"/>
      <point x="130" y="636" type="line"/>
      <point x="995" y="636" type="line"/>
      <point x="864" y="224" type="line"/>
    </contour>
    <contour>
      <point x="170" y="765" type="line"/>
      <point x="300" y="1177" type="line"/>
      <point x="1165" y="1177" type="line"/>
      <point x="1035" y="765" type="line"/>
    </contour>
    <contour>
      <point x="64" y="0" type="line"/>
      <point x="506" y="1400" type="line"/>
      <point x="736" y="1400" type="line"/>
      <point x="294" y="0" type="line"/>
    </contour>
    <contour>
      <point x="429" y="0" type="line"/>
      <point x="871" y="1400" type="line"/>
      <point x="1101" y="1400" type="line"/>
      <point x="659" y="0" type="line"/>
    </contour>
  </outline>
  <guideline y="524"/>
  <guideline y="1065"/>
</glyph>
<glyph name="dollar" format="2">
  <advance width="1820.8"/>
  <unicode hex="0024"/>
  <outline>
    <contour>
      <point x="629" y="-164" type="line"/>
      <point x="659" y="6" type="line"/>
      <point x="387" y="6" type="line" smooth="yes"/>
      <point x="291" y="6"/>
      <point x="144" y="34"/>
      <point x="51" y="109"/>
      <point x="18" y="242"/>
      <point x="37" y="348" type="qcurve" smooth="yes"/>
      <point x="48" y="410" type="line"/>
      <point x="603" y="462" type="line"/>
      <point x="590" y="392" type="line"/>
      <point x="590" y="392"/>
      <point x="590" y="392"/>
      <point x="590" y="392"/>
      <point x="590" y="392"/>
      <point x="590" y="392" type="qcurve"/>
      <point x="726" y="392" type="line"/>
      <point x="748" y="514" type="line"/>
      <point x="504" y="514" type="line" smooth="yes"/>
      <point x="408" y="514"/>
      <point x="262" y="542"/>
      <point x="170" y="618"/>
      <point x="137" y="752"/>
      <point x="156" y="858" type="qcurve" smooth="yes"/>
      <point x="191" y="1062" type="line" smooth="yes"/>
      <point x="209" y="1166"/>
      <point x="293" y="1295"/>
      <point x="416" y="1368"/>
      <point x="573" y="1394"/>
      <point x="665" y="1394" type="qcurve" smooth="yes"/>
      <point x="901" y="1394" type="line"/>
      <point x="931" y="1564" type="line"/>
      <point x="1201" y="1564" type="line"/>
      <point x="1171" y="1394" type="line"/>
      <point x="1407" y="1394" type="line" smooth="yes"/>
      <point x="1498" y="1394"/>
      <point x="1645" y="1369"/>
      <point x="1740" y="1297"/>
      <point x="1778" y="1169"/>
      <point x="1760" y="1066" type="qcurve" smooth="yes"/>
      <point x="1750" y="1008" type="line"/>
      <point x="1195" y="958" type="line"/>
      <point x="1207" y="1028" type="line"/>
      <point x="1207" y="1028"/>
      <point x="1207" y="1028"/>
      <point x="1207" y="1028"/>
      <point x="1207" y="1028"/>
      <point x="1207" y="1028" type="qcurve"/>
      <point x="1107" y="1028" type="line"/>
      <point x="1085" y="900" type="line"/>
      <point x="1339" y="900" type="line" smooth="yes"/>
      <point x="1430" y="900"/>
      <point x="1577" y="875"/>
      <point x="1674" y="804"/>
      <point x="1712" y="676"/>
      <point x="1694" y="572" type="qcurve" smooth="yes"/>
      <point x="1655" y="350" type="line" smooth="yes"/>
      <point x="1636" y="244"/>
      <point x="1556" y="109"/>
      <point x="1436" y="34"/>
      <point x="1279" y="6"/>
      <point x="1183" y="6" type="qcurve" smooth="yes"/>
      <point x="929" y="6" type="line"/>
      <point x="899" y="-164" type="line"/>
    </contour>
    <contour>
      <point x="815" y="900" type="line"/>
      <point x="837" y="1028" type="line"/>
      <point x="731" y="1028" type="line"/>
      <point x="731" y="1028"/>
      <point x="731" y="1028"/>
      <point x="731" y="1028"/>
      <point x="731" y="1028"/>
      <point x="731" y="1028" type="qcurve"/>
      <point x="709" y="900" type="line"/>
      <point x="709" y="900"/>
      <point x="709" y="900"/>
      <point x="709" y="900"/>
      <point x="709" y="900"/>
      <point x="709" y="900" type="qcurve"/>
    </contour>
    <contour>
      <point x="996" y="392" type="line"/>
      <point x="1116" y="392" type="line"/>
      <point x="1116" y="392"/>
      <point x="1116" y="392"/>
      <point x="1116" y="392"/>
      <point x="1116" y="392"/>
      <point x="1116" y="392" type="qcurve"/>
      <point x="1138" y="514" type="line"/>
      <point x="1138" y="514"/>
      <point x="1138" y="514"/>
      <point x="1138" y="514"/>
      <point x="1138" y="514"/>
      <point x="1138" y="514" type="qcurve"/>
      <point x="1018" y="514" type="line"/>
    </contour>
  </outline>
</glyph>
<glyph name="ampersand" format="2">
  <advance width="1889"/>
  <unicode hex="0026"/>
  <outline>
    <contour>
      <point x="224" y="-10" type="line"/>
      <point x="708" y="-10" type="line" smooth="yes"/>
      <point x="755" y="-10"/>
      <point x="835" y="2"/>
      <point x="909" y="29"/>
      <point x="982" y="74"/>
      <point x="1021" y="107" type="qcurve"/>
      <point x="1022" y="108" type="line"/>
      <point x="1111" y="0" type="line"/>
      <point x="1769" y="0" type="line"/>
      <point x="1427" y="414" type="line"/>
      <point x="1750" y="669" type="line"/>
      <point x="1510" y="959" type="line"/>
      <point x="1182" y="700" type="line"/>
      <point x="927" y="1019" type="line"/>
      <point x="927" y="1019"/>
      <point x="927" y="1019"/>
      <point x="927" y="1019"/>
      <point x="927" y="1019"/>
      <point x="927" y="1019" type="qcurve"/>
      <point x="932" y="1048" type="line"/>
      <point x="932" y="1048"/>
      <point x="932" y="1048"/>
      <point x="932" y="1048"/>
      <point x="932" y="1048"/>
      <point x="932" y="1048" type="qcurve"/>
      <point x="1061" y="1048" type="line"/>
      <point x="1061" y="1048"/>
      <point x="1061" y="1048"/>
      <point x="1061" y="1048"/>
      <point x="1061" y="1048"/>
      <point x="1061" y="1048" type="qcurve"/>
      <point x="1047" y="968" type="line"/>
      <point x="1525" y="1043" type="line"/>
      <point x="1538" y="1119" type="line" smooth="yes"/>
      <point x="1550" y="1188"/>
      <point x="1522" y="1297"/>
      <point x="1448" y="1373"/>
      <point x="1329" y="1414"/>
      <point x="1249" y="1414" type="qcurve" smooth="yes"/>
      <point x="811" y="1414" type="line" smooth="yes"/>
      <point x="736" y="1414"/>
      <point x="612" y="1373"/>
      <point x="518" y="1295"/>
      <point x="456" y="1182"/>
      <point x="444" y="1109" type="qcurve"/>
      <point x="435" y="1061" type="line" smooth="yes"/>
      <point x="432" y="1041"/>
      <point x="427" y="999"/>
      <point x="426" y="960"/>
      <point x="429" y="925"/>
      <point x="433" y="910" type="qcurve"/>
      <point x="203" y="764" type="line" smooth="yes"/>
      <point x="160" y="737"/>
      <point x="96" y="679"/>
      <point x="49" y="616"/>
      <point x="20" y="545"/>
      <point x="13" y="504" type="qcurve" smooth="yes"/>
      <point x="-32" y="246" type="line" smooth="yes"/>
      <point x="-40" y="198"/>
      <point x="-5" y="106"/>
      <point x="68" y="34"/>
      <point x="168" y="-10"/>
      <point x="224" y="-10" type="qcurve"/>
    </contour>
    <contour>
      <point x="460" y="400" type="line"/>
      <point x="460" y="400"/>
      <point x="460" y="400"/>
      <point x="460" y="400"/>
      <point x="460" y="400"/>
      <point x="460" y="400" type="qcurve"/>
      <point x="473" y="478" type="line"/>
      <point x="473" y="478"/>
      <point x="473" y="478"/>
      <point x="473" y="478"/>
      <point x="473" y="478"/>
      <point x="473" y="478" type="qcurve"/>
      <point x="628" y="578" type="line"/>
      <point x="775" y="400" type="line"/>
      <point x="775" y="400" type="line"/>
      <point x="775" y="400"/>
      <point x="775" y="400"/>
      <point x="775" y="400"/>
      <point x="775" y="400"/>
      <point x="775" y="400" type="qcurve"/>
    </contour>
  </outline>
</glyph>
<glyph name="quotesingle" format="2">
  <advance width="688"/>
  <unicode hex="0027"/>
  <outline>
    <contour>
      <point x="147.887" y="1184" type="line"/>
      <point x="173.887" y="1333" type="line" smooth="yes"/>
      <point x="181.887" y="1376"/>
      <point x="193.887" y="1423"/>
      <point x="216.887" y="1446"/>
      <point x="257.887" y="1450"/>
      <point x="293.887" y="1450" type="qcurve" smooth="yes"/>
      <point x="665.887" y="1450" type="line" smooth="yes"/>
      <point x="701.887" y="1450"/>
      <point x="740.887" y="1446"/>
      <point x="755.887" y="1423"/>
      <point x="751.887" y="1376"/>
      <point x="743.887" y="1333" type="qcurve" smooth="yes"/>
      <point x="717.887" y="1184" type="line"/>
      <point x="508.887" y="785" type="line"/>
      <point x="218.887" y="785" type="line"/>
    </contour>
  </outline>
</glyph>
<glyph name="asterisk" format="2">
  <advance width="824"/>
  <unicode hex="002A"/>
  <outline>
    <contour>
      <point x="330" y="802" type="line"/>
      <point x="380" y="1088" type="line"/>
      <point x="397" y="1184" type="line"/>
      <point x="447" y="1472" type="line"/>
      <point x="655" y="1472" type="line"/>
      <point x="604" y="1182" type="line"/>
      <point x="588" y="1087" type="line"/>
      <point x="538" y="802" type="line"/>
    </contour>
    <contour>
      <point x="121" y="1030" type="line"/>
      <point x="447" y="1226" type="line"/>
      <point x="541" y="1257" type="line"/>
      <point x="786" y="1400" type="line"/>
      <point x="864" y="1244" type="line"/>
      <point x="539" y="1053" type="line"/>
      <point x="444" y="1022" type="line"/>
      <point x="199" y="874" type="line"/>
    </contour>
    <contour>
      <point x="157" y="1240" type="line"/>
      <point x="293" y="1400" type="line"/>
      <point x="488" y="1257" type="line"/>
      <point x="570" y="1230" type="line"/>
      <point x="827" y="1034" type="line"/>
      <point x="692" y="874" type="line"/>
      <point x="497" y="1022" type="line"/>
      <point x="416" y="1049" type="line"/>
    </contour>
  </outline>
</glyph>
<glyph name="plus" format="2">
  <advance width="1446.28"/>
  <unicode hex="002B"/>
  <outline>
    <contour>
      <point x="1338" y="732" type="line"/>
      <point x="1287" y="442" type="line"/>
      <point x="841" y="442" type="line"/>
      <point x="764" y="0" type="line"/>
      <point x="442" y="0" type="line"/>
      <point x="519" y="442" type="line"/>
      <point x="73" y="442" type="line"/>
      <point x="124" y="732" type="line"/>
      <point x="570" y="732" type="line"/>
      <point x="646" y="1168" type="line"/>
      <point x="968" y="1168" type="line"/>
      <point x="892" y="732" type="line"/>
    </contour>
  </outline>
</glyph>
<glyph name="comma" format="2">
  <advance width="889"/>
  <unicode hex="002C"/>
  <outline>
    <contour>
      <point x="65.3139" y="145" type="line"/>
      <point x="107.314" y="385" type="line" smooth="yes"/>
      <point x="115.314" y="429"/>
      <point x="135.314" y="484"/>
      <point x="170.314" y="514"/>
      <point x="227.314" y="524"/>
      <point x="272.314" y="524" type="qcurve" smooth="yes"/>
      <point x="560.314" y="524" type="line" smooth="yes"/>
      <point x="605.314" y="524"/>
      <point x="659.314" y="514"/>
      <point x="684.314" y="484"/>
      <point x="685.314" y="429"/>
      <point x="677.314" y="385" type="qcurve" smooth="yes"/>
      <point x="635.314" y="145" type="line" smooth="yes"/>
      <point x="627.314" y="100"/>
      <point x="607.314" y="45"/>
      <point x="572.314" y="14"/>
      <point x="515.314" y="4"/>
      <point x="470.314" y="4" type="qcurve" smooth="yes"/>
      <point x="182.314" y="4" type="line" smooth="yes"/>
      <point x="137.314" y="4"/>
      <point x="83.3139" y="14"/>
      <point x="58.3139" y="45"/>
      <point x="57.3139" y="100"/>
      <point x="65.3139" y="145" type="qcurve"/>
    </contour>
    <contour>
      <point x="40.3139" y="-298" type="line"/>
      <point x="264.314" y="22" type="line"/>
      <point x="596.314" y="36" type="line"/>
      <point x="244.314" y="-342" type="line"/>
      <point x="40.3139" y="-298" type="line"/>
    </contour>
  </outline>
</glyph>
<glyph name="hyphen" format="2">
  <advance width="999"/>
  <unicode hex="002D"/>
  <outline>
    <contour>
      <point x="148.235" y="818" type="line"/>
      <point x="898.235" y="818" type="line"/>
      <point x="826.235" y="406" type="line"/>
      <point x="76.235" y="406" type="line"/>
    </contour>
  </outline>
  <guideline y="612"/>
</glyph>
<glyph name="period" format="2">
  <advance width="890"/>
  <unicode hex="002E"/>
  <outline>
    <contour>
      <point x="64.4902" y="135" type="line"/>
      <point x="107.49" y="386" type="line" smooth="yes"/>
      <point x="115.49" y="430"/>
      <point x="135.49" y="484"/>
      <point x="170.49" y="514"/>
      <point x="227.49" y="524"/>
      <point x="272.49" y="524" type="qcurve" smooth="yes"/>
      <point x="559.49" y="524" type="line" smooth="yes"/>
      <point x="604.49" y="524"/>
      <point x="658.49" y="514"/>
      <point x="684.49" y="484"/>
      <point x="685.49" y="429"/>
      <point x="677.49" y="384" type="qcurve" smooth="yes"/>
      <point x="634.49" y="135" type="line" smooth="yes"/>
      <point x="626.49" y="90"/>
      <point x="606.49" y="35"/>
      <point x="570.49" y="4"/>
      <point x="513.49" y="-6"/>
      <point x="468.49" y="-6" type="qcurve" smooth="yes"/>
      <point x="180.49" y="-6" type="line" smooth="yes"/>
      <point x="135.49" y="-6"/>
      <point x="82.4902" y="4"/>
      <point x="57.4902" y="35"/>
      <point x="56.4902" y="90"/>
      <point x="64.4902" y="135" type="qcurve"/>
    </contour>
  </outline>
</glyph>
<glyph name="slash" format="2">
  <advance width="1163.93"/>
  <unicode hex="002F"/>
  <outline>
    <contour>
      <point x="766.081" y="1430" type="line"/>
      <point x="1215.08" y="1430" type="line"/>
      <point x="391.081" y="-100" type="line"/>
      <point x="-57.9187" y="-100" type="line"/>
    </contour>
  </outline>
</glyph>
<glyph name="one" format="2">
  <advance width="1104.9" height="1448"/>
  <unicode hex="0031"/>
  <outline>
    <contour>
      <point x="233" y="0" type="line"/>
      <point x="805" y="0" type="line"/>
      <point x="1055" y="1430" type="line"/>
      <point x="183" y="1316" type="line"/>
      <point x="113" y="914" type="line"/>
      <point x="395" y="928" type="line"/>
    </contour>
  </outline>
  <guideline angle="90" color="0.4,0.4,0.4,1" name="halfwidth" x="552.45" y="0"/>
</glyph>
<glyph name="two" format="2">
  <advance width="1806"/>
  <unicode hex="0032"/>
  <outline>
    <contour>
      <point x="56" y="-14" type="line"/>
      <point x="113" y="315" type="line" smooth="yes"/>
      <point x="127" y="400"/>
      <point x="198" y="539"/>
      <point x="318" y="653"/>
      <point x="490" y="747"/>
      <point x="607" y="787" type="qcurve" smooth="yes"/>
      <point x="1099" y="954" type="line"/>
      <point x="1104" y="956"/>
      <point x="1113" y="961"/>
      <point x="1120" y="967"/>
      <point x="1124" y="973"/>
      <point x="1125" y="977" type="qcurve"/>
      <point x="1133" y="1028" type="line"/>
      <point x="1133" y="1028"/>
      <point x="1133" y="1028"/>
      <point x="1133" y="1028" type="qcurve"/>
      <point x="805" y="1028" type="line"/>
      <point x="805" y="1028"/>
      <point x="805" y="1028"/>
      <point x="805" y="1028" type="qcurve"/>
      <point x="785" y="912" type="line"/>
      <point x="253" y="1008" type="line"/>
      <point x="267" y="1086" type="line" smooth="yes"/>
      <point x="284" y="1189"/>
      <point x="366" y="1317"/>
      <point x="487" y="1389"/>
      <point x="642" y="1414"/>
      <point x="734" y="1414" type="qcurve" smooth="yes"/>
      <point x="1334" y="1414" type="line" smooth="yes"/>
      <point x="1425" y="1414"/>
      <point x="1574" y="1388"/>
      <point x="1672" y="1315"/>
      <point x="1710" y="1186"/>
      <point x="1692" y="1082" type="qcurve" smooth="yes"/>
      <point x="1677" y="1000" type="line" smooth="yes"/>
      <point x="1661" y="916"/>
      <point x="1605" y="795"/>
      <point x="1497" y="701"/>
      <point x="1325" y="620"/>
      <point x="1195" y="576" type="qcurve" smooth="yes"/>
      <point x="724" y="417" type="line" smooth="yes"/>
      <point x="708" y="412"/>
      <point x="688" y="403"/>
      <point x="676" y="393"/>
      <point x="669" y="382"/>
      <point x="668" y="374" type="qcurve"/>
      <point x="668" y="372" type="line"/>
      <point x="1062" y="372" type="line"/>
      <point x="1062" y="372"/>
      <point x="1062" y="372"/>
      <point x="1062" y="372" type="qcurve"/>
      <point x="1080" y="478" type="line"/>
      <point x="1610" y="382" type="line"/>
      <point x="1600" y="328" type="line" smooth="yes"/>
      <point x="1580" y="223"/>
      <point x="1500" y="89"/>
      <point x="1382" y="14"/>
      <point x="1226" y="-14"/>
      <point x="1131" y="-14" type="qcurve" smooth="yes"/>
    </contour>
  </outline>
</glyph>
<glyph name="three" format="2">
  <advance width="1839" height="1448"/>
  <unicode hex="0033"/>
  <outline>
    <contour>
      <point x="129" y="404" type="line"/>
      <point x="615" y="488" type="line"/>
      <point x="597" y="386" type="line"/>
      <point x="597" y="386"/>
      <point x="597" y="386"/>
      <point x="597" y="386"/>
      <point x="597" y="386"/>
      <point x="597" y="386" type="qcurve"/>
      <point x="1056" y="386" type="line" smooth="yes"/>
      <point x="1073" y="386"/>
      <point x="1104" y="393"/>
      <point x="1128" y="408"/>
      <point x="1143" y="430"/>
      <point x="1146" y="445" type="qcurve" smooth="yes"/>
      <point x="1153" y="485" type="line" smooth="yes"/>
      <point x="1156" y="500"/>
      <point x="1147" y="522"/>
      <point x="1128" y="535"/>
      <point x="1099" y="542"/>
      <point x="1082" y="542" type="qcurve" smooth="yes"/>
      <point x="789" y="542" type="line"/>
      <point x="847" y="874" type="line"/>
      <point x="1112" y="874" type="line" smooth="yes"/>
      <point x="1129" y="874"/>
      <point x="1160" y="882"/>
      <point x="1184" y="897"/>
      <point x="1200" y="917"/>
      <point x="1202" y="930" type="qcurve" smooth="yes"/>
      <point x="1207" y="956" type="line" smooth="yes"/>
      <point x="1209" y="969"/>
      <point x="1201" y="990"/>
      <point x="1182" y="1005"/>
      <point x="1154" y="1014"/>
      <point x="1136" y="1014" type="qcurve" smooth="yes"/>
      <point x="719" y="1014" type="line"/>
      <point x="719" y="1014"/>
      <point x="719" y="1014"/>
      <point x="719" y="1014" type="qcurve"/>
      <point x="698" y="894" type="line"/>
      <point x="241" y="978" type="line"/>
      <point x="263" y="1106" type="line" smooth="yes"/>
      <point x="277" y="1183"/>
      <point x="344" y="1298"/>
      <point x="454" y="1375"/>
      <point x="607" y="1414"/>
      <point x="705" y="1414" type="qcurve" smooth="yes"/>
      <point x="1371" y="1414" type="line" smooth="yes"/>
      <point x="1568" y="1414"/>
      <point x="1730" y="1249"/>
      <point x="1703" y="1096" type="qcurve" smooth="yes"/>
      <point x="1689" y="1014" type="line" smooth="yes"/>
      <point x="1677" y="947"/>
      <point x="1635" y="845"/>
      <point x="1571" y="773"/>
      <point x="1486" y="730"/>
      <point x="1432" y="720" type="qcurve"/>
      <point x="1488" y="716"/>
      <point x="1569" y="679"/>
      <point x="1616" y="605"/>
      <point x="1626" y="491"/>
      <point x="1611" y="408" type="qcurve" smooth="yes"/>
      <point x="1595" y="316" type="line" smooth="yes"/>
      <point x="1579" y="221"/>
      <point x="1498" y="94"/>
      <point x="1377" y="18"/>
      <point x="1222" y="-14"/>
      <point x="1130" y="-14" type="qcurve" smooth="yes"/>
      <point x="444" y="-14" type="line" smooth="yes"/>
      <point x="353" y="-14"/>
      <point x="214" y="15"/>
      <point x="126" y="87"/>
      <point x="95" y="211"/>
      <point x="111" y="306" type="qcurve"/>
    </contour>
  </outline>
</glyph>
<glyph name="four" format="2">
  <advance width="1791.65"/>
  <unicode hex="0034"/>
  <outline>
    <contour>
      <point x="-27" y="238" type="line"/>
      <point x="838" y="238" type="line"/>
      <point x="796" y="0" type="line"/>
      <point x="1358" y="0" type="line"/>
      <point x="1400" y="238" type="line"/>
      <point x="1597" y="238" type="line"/>
      <point x="1667" y="640" type="line"/>
      <point x="1470" y="640" type="line"/>
      <point x="1602" y="1400" type="line"/>
      <point x="922" y="1400" type="line"/>
      <point x="36" y="599" type="line"/>
    </contour>
    <contour>
      <point x="657" y="620" type="line"/>
      <point x="951" y="887" type="line"/>
      <point x="904" y="620" type="line"/>
    </contour>
  </outline>
</glyph>
<glyph name="five" format="2">
  <advance width="1720"/>
  <unicode hex="0035"/>
  <outline>
    <contour>
      <point x="659" y="-12" type="line"/>
      <point x="606" y="-12"/>
      <point x="465" y="-7"/>
      <point x="313" y="5"/>
      <point x="162" y="27"/>
      <point x="97" y="44" type="qcurve"/>
      <point x="72" y="382" type="line"/>
      <point x="105" y="378"/>
      <point x="179" y="369"/>
      <point x="264" y="362"/>
      <point x="362" y="356"/>
      <point x="475" y="352"/>
      <point x="606" y="350"/>
      <point x="682" y="350" type="qcurve" smooth="yes"/>
      <point x="753" y="350"/>
      <point x="862" y="358"/>
      <point x="937" y="377"/>
      <point x="979" y="409"/>
      <point x="983" y="434" type="qcurve" smooth="yes"/>
      <point x="987" y="456"/>
      <point x="965" y="487"/>
      <point x="899" y="508"/>
      <point x="780" y="518"/>
      <point x="685" y="518" type="qcurve" smooth="yes"/>
      <point x="579" y="518"/>
      <point x="406" y="512"/>
      <point x="262" y="502"/>
      <point x="140" y="489"/>
      <point x="83" y="482" type="qcurve"/>
      <point x="319" y="1400" type="line"/>
      <point x="1559" y="1400" type="line"/>
      <point x="1392" y="970" type="line"/>
      <point x="566" y="970" type="line"/>
      <point x="539" y="860" type="line"/>
      <point x="575" y="865"/>
      <point x="666" y="875"/>
      <point x="772" y="882"/>
      <point x="890" y="886"/>
      <point x="952" y="886" type="qcurve" smooth="yes"/>
      <point x="1066" y="886"/>
      <point x="1251" y="864"/>
      <point x="1396" y="818"/>
      <point x="1498" y="746"/>
      <point x="1557" y="647"/>
      <point x="1573" y="518"/>
      <point x="1559" y="438" type="qcurve" smooth="yes"/>
      <point x="1542" y="341"/>
      <point x="1455" y="198"/>
      <point x="1327" y="98"/>
      <point x="1164" y="36"/>
      <point x="975" y="0"/>
      <point x="767" y="-12"/>
      <point x="659" y="-12" type="qcurve"/>
    </contour>
  </outline>
</glyph>
<glyph name="six" format="2">
  <advance width="1830"/>
  <unicode hex="0036"/>
  <outline>
    <contour>
      <point x="790" y="-14" type="line"/>
      <point x="946" y="-14"/>
      <point x="1185" y="-6"/>
      <point x="1364" y="26"/>
      <point x="1492" y="90"/>
      <point x="1582" y="203"/>
      <point x="1641" y="373"/>
      <point x="1662" y="494" type="qcurve" smooth="yes"/>
      <point x="1680" y="597"/>
      <point x="1659" y="741"/>
      <point x="1584" y="836"/>
      <point x="1458" y="889"/>
      <point x="1285" y="916"/>
      <point x="1067" y="922"/>
      <point x="937" y="922" type="qcurve" smooth="yes"/>
      <point x="852" y="922"/>
      <point x="667" y="899"/>
      <point x="496" y="863"/>
      <point x="351" y="820"/>
      <point x="304" y="800" type="qcurve"/>
      <point x="251" y="496" type="line"/>
      <point x="310" y="510"/>
      <point x="467" y="532"/>
      <point x="633" y="549"/>
      <point x="794" y="558"/>
      <point x="855" y="558" type="qcurve" smooth="yes"/>
      <point x="907" y="558"/>
      <point x="983" y="555"/>
      <point x="1036" y="548"/>
      <point x="1069" y="534"/>
      <point x="1086" y="513"/>
      <point x="1089" y="482"/>
      <point x="1085" y="462" type="qcurve" smooth="yes"/>
      <point x="1082" y="444"/>
      <point x="1071" y="415"/>
      <point x="1051" y="391"/>
      <point x="1020" y="375"/>
      <point x="974" y="363"/>
      <point x="910" y="358"/>
      <point x="867" y="358" type="qcurve" smooth="yes"/>
      <point x="823" y="358"/>
      <point x="757" y="360"/>
      <point x="711" y="370"/>
      <point x="682" y="390"/>
      <point x="668" y="425"/>
      <point x="670" y="478"/>
      <point x="676" y="516" type="qcurve" smooth="yes"/>
      <point x="696" y="632"/>
      <point x="749" y="806"/>
      <point x="824" y="931"/>
      <point x="926" y="1013"/>
      <point x="1065" y="1061"/>
      <point x="1247" y="1080"/>
      <point x="1364" y="1080" type="qcurve" smooth="yes"/>
      <point x="1375" y="1080"/>
      <point x="1407" y="1079"/>
      <point x="1439" y="1076"/>
      <point x="1467" y="1072"/>
      <point x="1475" y="1070" type="qcurve"/>
      <point x="1342" y="1410" type="line"/>
      <point x="1335" y="1412"/>
      <point x="1309" y="1414"/>
      <point x="1273" y="1417"/>
      <point x="1230" y="1418"/>
      <point x="1205" y="1418" type="qcurve" smooth="yes"/>
      <point x="1050" y="1418"/>
      <point x="780" y="1364"/>
      <point x="552" y="1257"/>
      <point x="366" y="1099"/>
      <point x="223" y="890"/>
      <point x="124" y="631"/>
      <point x="97" y="478" type="qcurve" smooth="yes"/>
      <point x="77" y="360"/>
      <point x="79" y="195"/>
      <point x="132" y="86"/>
      <point x="239" y="24"/>
      <point x="406" y="-7"/>
      <point x="638" y="-14"/>
      <point x="790" y="-14" type="qcurve"/>
    </contour>
  </outline>
</glyph>
<glyph name="seven" format="2">
  <advance width="1585"/>
  <unicode hex="0037"/>
  <outline>
    <contour>
      <point x="117" y="953" type="line"/>
      <point x="644" y="854" type="line"/>
      <point x="670" y="1000" type="line"/>
      <point x="1012" y="1000" type="line"/>
      <point x="313" y="0" type="line"/>
      <point x="904" y="0" type="line"/>
      <point x="1596" y="1028" type="line"/>
      <point x="1661" y="1400" type="line"/>
      <point x="195" y="1400" type="line"/>
    </contour>
  </outline>
</glyph>
<glyph name="eight" format="2">
  <advance width="1911"/>
  <unicode hex="0038"/>
  <outline>
    <contour>
      <point x="657" y="429" type="line" smooth="yes"/>
      <point x="654" y="414"/>
      <point x="662" y="390"/>
      <point x="681" y="374"/>
      <point x="713" y="365"/>
      <point x="735" y="365" type="qcurve" smooth="yes"/>
      <point x="1067" y="365" type="line" smooth="yes"/>
      <point x="1089" y="365"/>
      <point x="1124" y="374"/>
      <point x="1149" y="390"/>
      <point x="1164" y="414"/>
      <point x="1167" y="429" type="qcurve" smooth="yes"/>
      <point x="1172" y="457" type="line" smooth="yes"/>
      <point x="1175" y="472"/>
      <point x="1168" y="496"/>
      <point x="1148" y="512"/>
      <point x="1116" y="521"/>
      <point x="1094" y="521" type="qcurve" smooth="yes"/>
      <point x="762" y="521" type="line" smooth="yes"/>
      <point x="740" y="521"/>
      <point x="705" y="512"/>
      <point x="680" y="496"/>
      <point x="665" y="472"/>
      <point x="662" y="457" type="qcurve" smooth="yes"/>
    </contour>
    <contour>
      <point x="1228" y="971" type="line" smooth="yes"/>
      <point x="1231" y="986"/>
      <point x="1224" y="1009"/>
      <point x="1204" y="1025"/>
      <point x="1172" y="1034"/>
      <point x="1150" y="1034" type="qcurve" smooth="yes"/>
      <point x="884" y="1034" type="line" smooth="yes"/>
      <point x="862" y="1034"/>
      <point x="827" y="1025"/>
      <point x="802" y="1009"/>
      <point x="787" y="986"/>
      <point x="784" y="971" type="qcurve" smooth="yes"/>
      <point x="782" y="957" type="line" smooth="yes"/>
      <point x="779" y="942"/>
      <point x="787" y="919"/>
      <point x="806" y="903"/>
      <point x="838" y="894"/>
      <point x="860" y="894" type="qcurve" smooth="yes"/>
      <point x="1126" y="894" type="line" smooth="yes"/>
      <point x="1148" y="894"/>
      <point x="1183" y="903"/>
      <point x="1208" y="919"/>
      <point x="1223" y="942"/>
      <point x="1226" y="957" type="qcurve" smooth="yes"/>
    </contour>
    <contour>
      <point x="100" y="339" type="line"/>
      <point x="109" y="392" type="line" smooth="yes"/>
      <point x="124" y="477"/>
      <point x="182" y="592"/>
      <point x="260" y="665"/>
      <point x="353" y="703"/>
      <point x="402" y="712" type="qcurve"/>
      <point x="357" y="721"/>
      <point x="288" y="765"/>
      <point x="246" y="833"/>
      <point x="232" y="923"/>
      <point x="242" y="977" type="qcurve" smooth="yes"/>
      <point x="259" y="1075" type="line" smooth="yes"/>
      <point x="273" y="1153"/>
      <point x="345" y="1278"/>
      <point x="460" y="1367"/>
      <point x="620" y="1414"/>
      <point x="720" y="1414" type="qcurve" smooth="yes"/>
      <point x="1449" y="1414" type="line" smooth="yes"/>
      <point x="1550" y="1414"/>
      <point x="1692" y="1367"/>
      <point x="1776" y="1279"/>
      <point x="1805" y="1154"/>
      <point x="1791" y="1076" type="qcurve" smooth="yes"/>
      <point x="1774" y="977" type="line" smooth="yes"/>
      <point x="1764" y="923"/>
      <point x="1718" y="833"/>
      <point x="1651" y="765"/>
      <point x="1568" y="721"/>
      <point x="1521" y="712" type="qcurve"/>
      <point x="1567" y="704"/>
      <point x="1646" y="667"/>
      <point x="1699" y="595"/>
      <point x="1717" y="481"/>
      <point x="1702" y="396" type="qcurve" smooth="yes"/>
      <point x="1692" y="340" type="line" smooth="yes"/>
      <point x="1674" y="239"/>
      <point x="1586" y="103"/>
      <point x="1458" y="21"/>
      <point x="1297" y="-14"/>
      <point x="1205" y="-14" type="qcurve" smooth="yes"/>
      <point x="464" y="-14" type="line" smooth="yes"/>
      <point x="374" y="-14"/>
      <point x="224" y="20"/>
      <point x="124" y="102"/>
      <point x="82" y="238"/>
      <point x="100" y="339" type="qcurve"/>
    </contour>
  </outline>
</glyph>
<glyph name="nine" format="2">
  <advance width="1831"/>
  <unicode hex="0039"/>
  <outline>
    <contour>
      <point x="1037" y="1416" type="line"/>
      <point x="884" y="1416"/>
      <point x="646" y="1405"/>
      <point x="466" y="1370"/>
      <point x="336" y="1303"/>
      <point x="244" y="1190"/>
      <point x="185" y="1024"/>
      <point x="164" y="908" type="qcurve" smooth="yes"/>
      <point x="146" y="805"/>
      <point x="168" y="661"/>
      <point x="243" y="566"/>
      <point x="369" y="513"/>
      <point x="542" y="486"/>
      <point x="761" y="480"/>
      <point x="890" y="480" type="qcurve" smooth="yes"/>
      <point x="976" y="480"/>
      <point x="1160" y="504"/>
      <point x="1331" y="540"/>
      <point x="1476" y="584"/>
      <point x="1523" y="604" type="qcurve"/>
      <point x="1578" y="914" type="line"/>
      <point x="1519" y="901"/>
      <point x="1361" y="878"/>
      <point x="1195" y="861"/>
      <point x="1035" y="852"/>
      <point x="973" y="852" type="qcurve" smooth="yes"/>
      <point x="922" y="852"/>
      <point x="845" y="855"/>
      <point x="792" y="863"/>
      <point x="759" y="876"/>
      <point x="742" y="897"/>
      <point x="740" y="928"/>
      <point x="743" y="948" type="qcurve" smooth="yes"/>
      <point x="746" y="966"/>
      <point x="757" y="995"/>
      <point x="777" y="1019"/>
      <point x="808" y="1035"/>
      <point x="854" y="1047"/>
      <point x="918" y="1052"/>
      <point x="961" y="1052" type="qcurve" smooth="yes"/>
      <point x="1005" y="1052"/>
      <point x="1071" y="1050"/>
      <point x="1118" y="1039"/>
      <point x="1147" y="1019"/>
      <point x="1160" y="982"/>
      <point x="1158" y="926"/>
      <point x="1151" y="886" type="qcurve" smooth="yes"/>
      <point x="1131" y="770"/>
      <point x="1078" y="596"/>
      <point x="1003" y="471"/>
      <point x="900" y="389"/>
      <point x="761" y="341"/>
      <point x="579" y="322"/>
      <point x="462" y="322" type="qcurve" smooth="yes"/>
      <point x="451" y="322"/>
      <point x="419" y="323"/>
      <point x="388" y="326"/>
      <point x="360" y="330"/>
      <point x="352" y="332" type="qcurve"/>
      <point x="485" y="-8" type="line"/>
      <point x="492" y="-10"/>
      <point x="518" y="-12"/>
      <point x="553" y="-15"/>
      <point x="596" y="-16"/>
      <point x="621" y="-16" type="qcurve" smooth="yes"/>
      <point x="776" y="-16"/>
      <point x="1045" y="31"/>
      <point x="1271" y="126"/>
      <point x="1455" y="271"/>
      <point x="1596" y="469"/>
      <point x="1694" y="721"/>
      <point x="1721" y="874" type="qcurve" smooth="yes"/>
      <point x="1742" y="992"/>
      <point x="1740" y="1164"/>
      <point x="1690" y="1285"/>
      <point x="1585" y="1359"/>
      <point x="1420" y="1401"/>
      <point x="1189" y="1416"/>
      <point x="1037" y="1416" type="qcurve"/>
    </contour>
  </outline>
</glyph>
<glyph name="colon" format="2">
  <advance width="894"/>
  <unicode hex="003A"/>
  <outline>
    <contour>
      <point x="65" y="135" type="line"/>
      <point x="96" y="316" type="line" smooth="yes"/>
      <point x="104" y="360"/>
      <point x="124" y="414"/>
      <point x="160" y="444"/>
      <point x="216" y="454"/>
      <point x="261" y="454" type="qcurve" smooth="yes"/>
      <point x="548" y="454" type="line" smooth="yes"/>
      <point x="593" y="454"/>
      <point x="647" y="444"/>
      <point x="673" y="414"/>
      <point x="674" y="359"/>
      <point x="666" y="314" type="qcurve" smooth="yes"/>
      <point x="635" y="135" type="line" smooth="yes"/>
      <point x="628" y="90"/>
      <point x="607" y="35"/>
      <point x="572" y="4"/>
      <point x="514" y="-6"/>
      <point x="469" y="-6" type="qcurve" smooth="yes"/>
      <point x="181" y="-6" type="line" smooth="yes"/>
      <point x="136" y="-6"/>
      <point x="83" y="4"/>
      <point x="58" y="35"/>
      <point x="58" y="90"/>
      <point x="65" y="135" type="qcurve"/>
    </contour>
    <contour>
      <point x="166" y="715" type="line"/>
      <point x="197" y="896" type="line" smooth="yes"/>
      <point x="205" y="940"/>
      <point x="225" y="994"/>
      <point x="261" y="1024"/>
      <point x="317" y="1034"/>
      <point x="362" y="1034" type="qcurve" smooth="yes"/>
      <point x="649" y="1034" type="line" smooth="yes"/>
      <point x="694" y="1034"/>
      <point x="748" y="1024"/>
      <point x="774" y="994"/>
      <point x="775" y="939"/>
      <point x="767" y="894" type="qcurve" smooth="yes"/>
      <point x="736" y="715" type="line" smooth="yes"/>
      <point x="729" y="670"/>
      <point x="708" y="615"/>
      <point x="673" y="584"/>
      <point x="615" y="574"/>
      <point x="570" y="574" type="qcurve" smooth="yes"/>
      <point x="282" y="574" type="line" smooth="yes"/>
      <point x="237" y="574"/>
      <point x="184" y="584"/>
      <point x="159" y="615"/>
      <point x="159" y="670"/>
      <point x="166" y="715" type="qcurve"/>
    </contour>
  </outline>
</glyph>
<glyph name="semicolon" format="2">
  <advance width="892.875"/>
  <unicode hex="003B"/>
  <outline>
    <contour>
      <point x="166" y="715" type="line"/>
      <point x="197" y="896" type="line" smooth="yes"/>
      <point x="205" y="940"/>
      <point x="225" y="994"/>
      <point x="261" y="1024"/>
      <point x="317" y="1034"/>
      <point x="362" y="1034" type="qcurve" smooth="yes"/>
      <point x="649" y="1034" type="line" smooth="yes"/>
      <point x="694" y="1034"/>
      <point x="748" y="1024"/>
      <point x="774" y="994"/>
      <point x="775" y="939"/>
      <point x="767" y="894" type="qcurve" smooth="yes"/>
      <point x="736" y="715" type="line" smooth="yes"/>
      <point x="729" y="670"/>
      <point x="708" y="615"/>
      <point x="673" y="584"/>
      <point x="615" y="574"/>
      <point x="570" y="574" type="qcurve" smooth="yes"/>
      <point x="282" y="574" type="line" smooth="yes"/>
      <point x="237" y="574"/>
      <point x="184" y="584"/>
      <point x="159" y="615"/>
      <point x="159" y="670"/>
      <point x="166" y="715" type="qcurve"/>
    </contour>
    <contour>
      <point x="66" y="145" type="line"/>
      <point x="96" y="315" type="line" smooth="yes"/>
      <point x="104" y="359"/>
      <point x="124" y="414"/>
      <point x="160" y="444"/>
      <point x="216" y="454"/>
      <point x="261" y="454" type="qcurve" smooth="yes"/>
      <point x="549" y="454" type="line" smooth="yes"/>
      <point x="594" y="454"/>
      <point x="648" y="444"/>
      <point x="673" y="414"/>
      <point x="674" y="359"/>
      <point x="666" y="315" type="qcurve" smooth="yes"/>
      <point x="636" y="145" type="line" smooth="yes"/>
      <point x="629" y="100"/>
      <point x="609" y="45"/>
      <point x="573" y="14"/>
      <point x="516" y="4"/>
      <point x="471" y="4" type="qcurve" smooth="yes"/>
      <point x="183" y="4" type="line" smooth="yes"/>
      <point x="138" y="4"/>
      <point x="85" y="14"/>
      <point x="59" y="45"/>
      <point x="59" y="100"/>
      <point x="66" y="145" type="qcurve"/>
    </contour>
    <contour>
      <point x="41" y="-298" type="line"/>
      <point x="265" y="22" type="line"/>
      <point x="597" y="36" type="line"/>
      <point x="245" y="-342" type="line"/>
      <point x="41" y="-298" type="line"/>
    </contour>
  </outline>
</glyph>
<glyph name="less" format="2">
  <advance width="1448"/>
  <unicode hex="003C"/>
  <outline>
    <contour>
      <point x="1211" y="0" type="line"/>
      <point x="1261" y="290" type="line"/>
      <point x="558" y="568" type="line"/>
      <point x="1358" y="846" type="line"/>
      <point x="1415" y="1168" type="line"/>
      <point x="122" y="719" type="line"/>
      <point x="75" y="449" type="line"/>
      <point x="1211" y="0" type="line"/>
    </contour>
  </outline>
</glyph>
<glyph name="question" format="2">
  <advance width="1528"/>
  <unicode hex="003F"/>
  <outline>
    <contour>
      <point x="434.528" y="462" type="line"/>
      <point x="468.528" y="658" type="line" smooth="yes"/>
      <point x="476.528" y="702"/>
      <point x="519.528" y="785"/>
      <point x="590.528" y="850"/>
      <point x="685.528" y="890"/>
      <point x="743.528" y="890" type="qcurve" smooth="yes"/>
      <point x="915.528" y="890" type="line"/>
      <point x="915.528" y="890"/>
      <point x="915.528" y="890"/>
      <point x="915.528" y="890"/>
      <point x="915.528" y="890"/>
      <point x="915.528" y="890" type="qcurve"/>
      <point x="939.528" y="1028" type="line"/>
      <point x="939.528" y="1028"/>
      <point x="939.528" y="1028"/>
      <point x="939.528" y="1028"/>
      <point x="939.528" y="1028"/>
      <point x="939.528" y="1028" type="qcurve"/>
      <point x="654.528" y="1028" type="line"/>
      <point x="654.528" y="1028"/>
      <point x="654.528" y="1028"/>
      <point x="654.528" y="1028"/>
      <point x="654.528" y="1028"/>
      <point x="654.528" y="1028" type="qcurve"/>
      <point x="638.528" y="935" type="line"/>
      <point x="146.528" y="1008" type="line"/>
      <point x="165.528" y="1117" type="line" smooth="yes"/>
      <point x="179.528" y="1196"/>
      <point x="241.528" y="1309"/>
      <point x="346.528" y="1381"/>
      <point x="496.528" y="1414"/>
      <point x="598.528" y="1414" type="qcurve" smooth="yes"/>
      <point x="1134.53" y="1414" type="line" smooth="yes"/>
      <point x="1236.53" y="1414"/>
      <point x="1373.53" y="1381"/>
      <point x="1452.53" y="1311"/>
      <point x="1474.53" y="1199"/>
      <point x="1460.53" y="1119" type="qcurve" smooth="yes"/>
      <point x="1408.53" y="822" type="line" smooth="yes"/>
      <point x="1398.53" y="763"/>
      <point x="1349.53" y="655"/>
      <point x="1269.53" y="573"/>
      <point x="1156.53" y="524"/>
      <point x="1082.53" y="524" type="qcurve" smooth="yes"/>
      <point x="919.528" y="524" type="line"/>
      <point x="919.528" y="524"/>
      <point x="919.528" y="524"/>
      <point x="919.528" y="524"/>
      <point x="919.528" y="524"/>
      <point x="919.528" y="524" type="qcurve"/>
      <point x="909.528" y="462" type="line"/>
    </contour>
    <contour>
      <point x="329.528" y="135" type="line"/>
      <point x="344.528" y="226" type="line" smooth="yes"/>
      <point x="352.528" y="270"/>
      <point x="372.528" y="324"/>
      <point x="408.528" y="354"/>
      <point x="465.528" y="364"/>
      <point x="510.528" y="364" type="qcurve" smooth="yes"/>
      <point x="797.528" y="364" type="line" smooth="yes"/>
      <point x="842.528" y="364"/>
      <point x="896.528" y="354"/>
      <point x="921.528" y="324"/>
      <point x="922.528" y="269"/>
      <point x="914.528" y="224" type="qcurve" smooth="yes"/>
      <point x="899.528" y="135" type="line" smooth="yes"/>
      <point x="891.528" y="90"/>
      <point x="871.528" y="35"/>
      <point x="835.528" y="4"/>
      <point x="778.528" y="-6"/>
      <point x="733.528" y="-6" type="qcurve" smooth="yes"/>
      <point x="445.528" y="-6" type="line" smooth="yes"/>
      <point x="400.528" y="-6"/>
      <point x="347.528" y="4"/>
      <point x="322.528" y="35"/>
      <point x="321.528" y="90"/>
      <point x="329.528" y="135" type="qcurve"/>
    </contour>
  </outline>
</glyph>
<glyph name="at" format="2">
  <advance width="2108" height="1020.84"/>
  <unicode hex="0040"/>
  <outline>
    <contour>
      <point x="51" y="80" type="line"/>
      <point x="206" y="971" type="line" smooth="yes"/>
      <point x="221" y="1059"/>
      <point x="292" y="1169"/>
      <point x="396" y="1231"/>
      <point x="529" y="1253"/>
      <point x="607" y="1253" type="qcurve" smooth="yes"/>
      <point x="1698" y="1253" type="line" smooth="yes"/>
      <point x="1776" y="1253"/>
      <point x="1901" y="1231"/>
      <point x="1983" y="1169"/>
      <point x="2015" y="1059"/>
      <point x="2000" y="971" type="qcurve" smooth="yes"/>
      <point x="1905" y="426" type="line" smooth="yes"/>
      <point x="1889" y="335"/>
      <point x="1824" y="228"/>
      <point x="1735" y="171"/>
      <point x="1628" y="154"/>
      <point x="1569" y="154" type="qcurve" smooth="yes"/>
      <point x="1283" y="154" type="line" smooth="yes"/>
      <point x="1228" y="154"/>
      <point x="1151" y="175"/>
      <point x="1103" y="208"/>
      <point x="1083" y="248"/>
      <point x="1086" y="266" type="qcurve"/>
      <point x="1072" y="234"/>
      <point x="1028" y="191"/>
      <point x="973" y="165"/>
      <point x="907" y="154"/>
      <point x="870" y="154" type="qcurve" smooth="yes"/>
      <point x="691" y="154" type="line" smooth="yes"/>
      <point x="635" y="154"/>
      <point x="558" y="176"/>
      <point x="513" y="221"/>
      <point x="501" y="291"/>
      <point x="509" y="339" type="qcurve" smooth="yes"/>
      <point x="573" y="707" type="line" smooth="yes"/>
      <point x="581" y="753"/>
      <point x="618" y="820"/>
      <point x="678" y="864"/>
      <point x="762" y="885"/>
      <point x="818" y="885" type="qcurve" smooth="yes"/>
      <point x="1003" y="885" type="line" smooth="yes"/>
      <point x="1078" y="885"/>
      <point x="1165" y="846"/>
      <point x="1181" y="806" type="qcurve"/>
      <point x="1193" y="878" type="line"/>
      <point x="1560" y="878" type="line"/>
      <point x="1488" y="462" type="line" smooth="yes"/>
      <point x="1486" y="451"/>
      <point x="1488" y="434"/>
      <point x="1498" y="423"/>
      <point x="1516" y="417"/>
      <point x="1529" y="417" type="qcurve" smooth="yes"/>
      <point x="1544" y="417" type="line" smooth="yes"/>
      <point x="1560" y="417"/>
      <point x="1582" y="427"/>
      <point x="1597" y="448"/>
      <point x="1606" y="479"/>
      <point x="1610" y="500" type="qcurve" smooth="yes"/>
      <point x="1678" y="886" type="line" smooth="yes"/>
      <point x="1682" y="909"/>
      <point x="1673" y="947"/>
      <point x="1642" y="975"/>
      <point x="1583" y="990"/>
      <point x="1537" y="990" type="qcurve" smooth="yes"/>
      <point x="666" y="990" type="line" smooth="yes"/>
      <point x="633" y="990"/>
      <point x="578" y="981"/>
      <point x="535" y="958"/>
      <point x="506" y="918"/>
      <point x="501" y="886" type="qcurve"/>
      <point x="375" y="164" type="line" smooth="yes"/>
      <point x="371" y="138"/>
      <point x="375" y="96"/>
      <point x="402" y="66"/>
      <point x="456" y="49"/>
      <point x="502" y="49" type="qcurve" smooth="yes"/>
      <point x="1551" y="49" type="line"/>
      <point x="1506" y="-213" type="line"/>
      <point x="351" y="-213" type="line" smooth="yes"/>
      <point x="269" y="-213"/>
      <point x="143" y="-189"/>
      <point x="63" y="-124"/>
      <point x="35" y="-10"/>
      <point x="51" y="80" type="qcurve"/>
    </contour>
    <contour>
      <point x="889" y="421" type="line"/>
      <point x="889" y="421"/>
      <point x="889" y="421"/>
      <point x="889" y="421" type="qcurve"/>
      <point x="1113" y="421" type="line"/>
      <point x="1113" y="421"/>
      <point x="1113" y="421"/>
      <point x="1113" y="421" type="qcurve"/>
      <point x="1148" y="617" type="line"/>
      <point x="924" y="617" type="line"/>
      <point x="924" y="617"/>
      <point x="924" y="617"/>
      <point x="924" y="617" type="qcurve"/>
    </contour>
  </outline>
</glyph>
<glyph name="A" format="2">
  <advance width="2002" height="1448"/>
  <unicode hex="0041"/>
  <anchor x="1153" y="1550" name="top"/>
  <anchor x="856" y="-150" name="bottom"/>
  <anchor x="1216" y="0" name="ogonek_in"/>
  <outline>
    <contour>
      <point x="-120" y="0" type="line"/>
      <point x="850" y="1400" type="line"/>
      <point x="1400" y="1400" type="line"/>
      <point x="1882" y="0" type="line"/>
      <point x="1216" y="0" type="line"/>
      <point x="1169" y="176" type="line"/>
      <point x="590" y="176" type="line"/>
      <point x="468" y="0" type="line"/>
    </contour>
    <contour>
      <point x="826" y="516" type="line"/>
      <point x="1077" y="516" type="line"/>
      <point x="1006" y="776" type="line"/>
    </contour>
  </outline>
</glyph>
<glyph name="B" format="2">
  <advance width="1852"/>
  <unicode hex="0042"/>
  <anchor x="926" y="1550" name="top"/>
  <anchor x="926" y="-150" name="bottom"/>
  <outline>
    <contour>
      <point x="60" y="0" type="line"/>
      <point x="1226" y="0" type="line" smooth="yes"/>
      <point x="1331" y="0"/>
      <point x="1489" y="44"/>
      <point x="1601" y="129"/>
      <point x="1669" y="255"/>
      <point x="1683" y="336" type="qcurve" smooth="yes"/>
      <point x="1690" y="376" type="line" smooth="yes"/>
      <point x="1700" y="432"/>
      <point x="1694" y="531"/>
      <point x="1660" y="613"/>
      <point x="1598" y="680"/>
      <point x="1551" y="704" type="qcurve"/>
      <point x="1601" y="728"/>
      <point x="1679" y="789"/>
      <point x="1736" y="864"/>
      <point x="1774" y="952"/>
      <point x="1783" y="1003" type="qcurve" smooth="yes"/>
      <point x="1792" y="1053" type="line" smooth="yes"/>
      <point x="1806" y="1135"/>
      <point x="1781" y="1264"/>
      <point x="1698" y="1353"/>
      <point x="1556" y="1400"/>
      <point x="1454" y="1400" type="qcurve" smooth="yes"/>
      <point x="304" y="1400" type="line"/>
    </contour>
    <contour>
      <point x="698" y="376" type="line"/>
      <point x="722" y="516" type="line"/>
      <point x="1066" y="516" type="line" smooth="yes"/>
      <point x="1105" y="516"/>
      <point x="1137" y="483"/>
      <point x="1132" y="456" type="qcurve" smooth="yes"/>
      <point x="1128" y="436" type="line" smooth="yes"/>
      <point x="1126" y="423"/>
      <point x="1113" y="400"/>
      <point x="1092" y="385"/>
      <point x="1062" y="376"/>
      <point x="1042" y="376" type="qcurve" smooth="yes"/>
    </contour>
    <contour>
      <point x="787" y="888" type="line"/>
      <point x="811" y="1028" type="line"/>
      <point x="1155" y="1028" type="line" smooth="yes"/>
      <point x="1175" y="1028"/>
      <point x="1202" y="1019"/>
      <point x="1218" y="1004"/>
      <point x="1223" y="982"/>
      <point x="1221" y="968" type="qcurve" smooth="yes"/>
      <point x="1217" y="948" type="line" smooth="yes"/>
      <point x="1215" y="935"/>
      <point x="1202" y="912"/>
      <point x="1181" y="897"/>
      <point x="1151" y="888"/>
      <point x="1131" y="888" type="qcurve" smooth="yes"/>
    </contour>
  </outline>
</glyph>
<glyph name="C" format="2">
  <advance width="1892" height="1448"/>
  <unicode hex="0043"/>
  <anchor x="1120" y="1564" name="top"/>
  <anchor x="818" y="-164" name="bottom"/>
  <outline>
    <contour>
      <point x="225.575" y="1080" type="line"/>
      <point x="94.5754" y="332" type="line" smooth="yes"/>
      <point x="76.5754" y="229"/>
      <point x="108.575" y="95"/>
      <point x="199.575" y="17"/>
      <point x="347.575" y="-14"/>
      <point x="446.575" y="-14" type="qcurve" smooth="yes"/>
      <point x="1238.58" y="-14" type="line" smooth="yes"/>
      <point x="1337.58" y="-14"/>
      <point x="1496.58" y="17"/>
      <point x="1616.58" y="95"/>
      <point x="1694.58" y="229"/>
      <point x="1712.58" y="332" type="qcurve" smooth="yes"/>
      <point x="1744.58" y="514" type="line"/>
      <point x="1192.58" y="626" type="line"/>
      <point x="1161.58" y="450" type="line"/>
      <point x="1161.58" y="450"/>
      <point x="1161.58" y="450"/>
      <point x="1161.58" y="450"/>
      <point x="1161.58" y="450"/>
      <point x="1161.58" y="450" type="qcurve"/>
      <point x="687.575" y="450" type="line"/>
      <point x="687.575" y="450"/>
      <point x="687.575" y="450"/>
      <point x="687.575" y="450"/>
      <point x="687.575" y="450"/>
      <point x="687.575" y="450" type="qcurve"/>
      <point x="774.575" y="950" type="line"/>
      <point x="774.575" y="950"/>
      <point x="774.575" y="950"/>
      <point x="774.575" y="950"/>
      <point x="774.575" y="950"/>
      <point x="774.575" y="950" type="qcurve"/>
      <point x="1242.58" y="950" type="line"/>
      <point x="1242.58" y="950"/>
      <point x="1242.58" y="950"/>
      <point x="1242.58" y="950"/>
      <point x="1242.58" y="950"/>
      <point x="1242.58" y="950" type="qcurve"/>
      <point x="1216.58" y="800" type="line"/>
      <point x="1807.58" y="906" type="line"/>
      <point x="1837.58" y="1080" type="line" smooth="yes"/>
      <point x="1855.58" y="1181"/>
      <point x="1819.58" y="1310"/>
      <point x="1724.58" y="1385"/>
      <point x="1576.58" y="1414"/>
      <point x="1481.58" y="1414" type="qcurve" smooth="yes"/>
      <point x="695.575" y="1414" type="line" smooth="yes"/>
      <point x="601.575" y="1414"/>
      <point x="443.575" y="1385"/>
      <point x="323.575" y="1310"/>
      <point x="243.575" y="1181"/>
      <point x="225.575" y="1080" type="qcurve"/>
    </contour>
  </outline>
</glyph>
<glyph name="D" format="2">
  <advance width="2058"/>
  <unicode hex="0044"/>
  <anchor x="926" y="1550" name="top"/>
  <anchor x="926" y="-150" name="bottom"/>
  <outline>
    <contour>
      <point x="709.178" y="444" type="line"/>
      <point x="987.178" y="444" type="line" smooth="yes"/>
      <point x="1046.18" y="444"/>
      <point x="1142.45" y="457"/>
      <point x="1222.16" y="484"/>
      <point x="1283.49" y="526"/>
      <point x="1328.61" y="584"/>
      <point x="1358.7" y="659"/>
      <point x="1366.9" y="706" type="qcurve" smooth="yes"/>
      <point x="1374.92" y="752"/>
      <point x="1369.66" y="825"/>
      <point x="1344.26" y="880"/>
      <point x="1296.24" y="920"/>
      <point x="1226.6" y="945"/>
      <point x="1134.52" y="956"/>
      <point x="1076.52" y="956" type="qcurve" smooth="yes"/>
      <point x="798.522" y="956" type="line"/>
    </contour>
    <contour>
      <point x="59.7" y="0" type="line"/>
      <point x="304" y="1400" type="line"/>
      <point x="1319" y="1400" type="line" smooth="yes"/>
      <point x="1432" y="1400"/>
      <point x="1624.37" y="1362"/>
      <point x="1775.93" y="1285"/>
      <point x="1885.69" y="1169"/>
      <point x="1949.47" y="1013"/>
      <point x="1962.44" y="818"/>
      <point x="1941.85" y="700" type="qcurve" smooth="yes"/>
      <point x="1920.04" y="575"/>
      <point x="1831.79" y="373"/>
      <point x="1706.74" y="218"/>
      <point x="1551.2" y="106"/>
      <point x="1373.63" y="34"/>
      <point x="1176.7" y="0"/>
      <point x="1074.7" y="0" type="qcurve" smooth="yes"/>
    </contour>
  </outline>
  <guideline y="1549"/>
  <guideline y="1325"/>
  <guideline y="73"/>
</glyph>
<glyph name="E" format="2">
  <advance width="1815"/>
  <unicode hex="0045"/>
  <anchor x="1091" y="1550" name="top"/>
  <anchor x="794" y="-150" name="bottom"/>
  <anchor x="1385" y="0" name="ogonek"/>
  <outline>
    <contour>
      <point x="60" y="0" type="line"/>
      <point x="304" y="1400" type="line"/>
      <point x="1804" y="1400" type="line"/>
      <point x="1730" y="976" type="line"/>
      <point x="802" y="976" type="line"/>
      <point x="787" y="890" type="line"/>
      <point x="1329" y="890" type="line"/>
      <point x="1265" y="520" type="line"/>
      <point x="723" y="520" type="line"/>
      <point x="706" y="424" type="line"/>
      <point x="1654" y="424" type="line"/>
      <point x="1580" y="0" type="line"/>
    </contour>
  </outline>
  <guideline x="-236"/>
</glyph>
<glyph name="F" format="2">
  <advance width="1768.67"/>
  <unicode hex="0046"/>
  <outline>
    <contour>
      <point x="60" y="0" type="line"/>
      <point x="304" y="1400" type="line"/>
      <point x="1812" y="1400" type="line"/>
      <point x="1735" y="956" type="line"/>
      <point x="799" y="956" type="line"/>
      <point x="778" y="834" type="line"/>
      <point x="1300" y="834" type="line"/>
      <point x="1222" y="390" type="line"/>
      <point x="700" y="390" type="line"/>
      <point x="632" y="0" type="line"/>
    </contour>
  </outline>
</glyph>
<glyph name="G" format="2">
  <advance width="1963" height="1448"/>
  <unicode hex="0047"/>
  <anchor x="1138" y="1550" name="top"/>
  <anchor x="841" y="-150" name="bottom"/>
  <outline>
    <contour>
      <point x="225.576" y="1080" type="line"/>
      <point x="95.5757" y="332" type="line" smooth="yes"/>
      <point x="77.5757" y="229"/>
      <point x="108.576" y="95"/>
      <point x="200.576" y="17"/>
      <point x="348.576" y="-14"/>
      <point x="447.576" y="-14" type="qcurve" smooth="yes"/>
      <point x="1279.58" y="-14" type="line" smooth="yes"/>
      <point x="1378.58" y="-14"/>
      <point x="1537.58" y="17"/>
      <point x="1657.58" y="95"/>
      <point x="1735.58" y="229"/>
      <point x="1753.58" y="332" type="qcurve" smooth="yes"/>
      <point x="1846.58" y="864" type="line"/>
      <point x="1018.58" y="864" type="line"/>
      <point x="953.576" y="494" type="line"/>
      <point x="1209.58" y="494" type="line"/>
      <point x="1195.58" y="410" type="line"/>
      <point x="1195.58" y="410"/>
      <point x="1195.58" y="410"/>
      <point x="1195.58" y="410"/>
      <point x="1195.58" y="410"/>
      <point x="1195.58" y="410" type="qcurve"/>
      <point x="681.576" y="410" type="line"/>
      <point x="681.576" y="410"/>
      <point x="681.576" y="410"/>
      <point x="681.576" y="410"/>
      <point x="681.576" y="410"/>
      <point x="681.576" y="410" type="qcurve"/>
      <point x="782.576" y="990" type="line"/>
      <point x="782.576" y="990"/>
      <point x="782.576" y="990"/>
      <point x="782.576" y="990"/>
      <point x="782.576" y="990"/>
      <point x="782.576" y="990" type="qcurve"/>
      <point x="1290.58" y="990" type="line"/>
      <point x="1290.58" y="990"/>
      <point x="1290.58" y="990"/>
      <point x="1290.58" y="990"/>
      <point x="1290.58" y="990"/>
      <point x="1290.58" y="990" type="qcurve"/>
      <point x="1275.58" y="906" type="line"/>
      <point x="1866.58" y="1012" type="line"/>
      <point x="1877.58" y="1080" type="line"/>
      <point x="1895.58" y="1181"/>
      <point x="1859.58" y="1310"/>
      <point x="1764.58" y="1385"/>
      <point x="1617.58" y="1414"/>
      <point x="1522.58" y="1414" type="qcurve" smooth="yes"/>
      <point x="696.576" y="1414" type="line" smooth="yes"/>
      <point x="602.576" y="1414"/>
      <point x="444.576" y="1385"/>
      <point x="323.576" y="1310"/>
      <point x="243.576" y="1181"/>
      <point x="225.576" y="1080" type="qcurve"/>
    </contour>
  </outline>
  <guideline y="574"/>
  <guideline y="1036"/>
  <guideline y="980"/>
  <guideline y="806"/>
  <guideline y="700"/>
  <guideline y="906"/>
  <guideline y="494"/>
</glyph>
<glyph name="K" format="2">
  <advance width="2021" height="1448"/>
  <unicode hex="004B"/>
  <anchor x="1156" y="1550" name="top"/>
  <anchor x="874" y="-150" name="bottom"/>
  <outline>
    <contour>
      <point x="60" y="0" type="line"/>
      <point x="632" y="0" type="line"/>
      <point x="752" y="687" type="line"/>
      <point x="670" y="733" type="line"/>
      <point x="1187" y="0" type="line"/>
      <point x="1901" y="0" type="line"/>
      <point x="1327" y="764" type="line"/>
      <point x="1327" y="733" type="line"/>
      <point x="2027" y="1400" type="line"/>
      <point x="1372" y="1400" type="line"/>
      <point x="698" y="746" type="line"/>
      <point x="767" y="773" type="line"/>
      <point x="876" y="1400" type="line"/>
      <point x="304" y="1400" type="line"/>
    </contour>
  </outline>
</glyph>
<glyph name="L" format="2">
  <advance width="1554"/>
  <unicode hex="004C"/>
  <anchor x="619" y="1550" name="top"/>
  <anchor x="696" y="-150" name="bottom"/>
  <anchor x="82" y="700" name="left"/>
  <anchor x="1016" y="1400" name="right"/>
  <anchor x="1264" y="800" name="eldot"/>
  <outline>
    <contour>
      <point x="60" y="0" type="line"/>
      <point x="304" y="1400" type="line"/>
      <point x="876" y="1400" type="line"/>
      <point x="716" y="484" type="line"/>
      <point x="1468" y="484" type="line"/>
      <point x="1384" y="0" type="line"/>
    </contour>
  </outline>
</glyph>
<glyph name="M" format="2">
  <advance width="2188"/>
  <unicode hex="004D"/>
  <anchor x="1245" y="1550" name="top"/>
  <anchor x="948" y="-150" name="bottom"/>
  <outline>
    <contour>
      <point x="60" y="0" type="line"/>
      <point x="544" y="0" type="line"/>
      <point x="652" y="616" type="line"/>
      <point x="947" y="40" type="line"/>
      <point x="1423" y="613" type="line"/>
      <point x="1316" y="0" type="line"/>
      <point x="1888" y="0" type="line"/>
      <point x="2132" y="1400" type="line"/>
      <point x="1622" y="1400" type="line"/>
      <point x="1112" y="785" type="line"/>
      <point x="796" y="1400" type="line"/>
      <point x="304" y="1400" type="line"/>
    </contour>
  </outline>
</glyph>
<glyph name="O" format="2">
  <advance width="2054.04" height="1448"/>
  <unicode hex="004F"/>
  <anchor x="1187" y="1564" name="top"/>
  <anchor x="888" y="-164" name="bottom"/>
  <anchor x="1965" y="1080" name="horn"/>
  <anchor x="1100" y="0" name="ogonek"/>
  <outline>
    <contour>
      <point x="225.576" y="1080" type="line"/>
      <point x="94.5757" y="332" type="line" smooth="yes"/>
      <point x="76.5757" y="229"/>
      <point x="108.576" y="95"/>
      <point x="199.576" y="17"/>
      <point x="347.576" y="-14"/>
      <point x="446.576" y="-14" type="qcurve" smooth="yes"/>
      <point x="1360.58" y="-14" type="line" smooth="yes"/>
      <point x="1459.58" y="-14"/>
      <point x="1618.58" y="17"/>
      <point x="1738.58" y="95"/>
      <point x="1816.58" y="229"/>
      <point x="1834.58" y="332" type="qcurve" smooth="yes"/>
      <point x="1965.58" y="1080" type="line" smooth="yes"/>
      <point x="1983.58" y="1181"/>
      <point x="1947.58" y="1310"/>
      <point x="1852.58" y="1385"/>
      <point x="1704.58" y="1414"/>
      <point x="1609.58" y="1414" type="qcurve" smooth="yes"/>
      <point x="695.576" y="1414" type="line" smooth="yes"/>
      <point x="601.576" y="1414"/>
      <point x="443.576" y="1385"/>
      <point x="323.576" y="1310"/>
      <point x="243.576" y="1181"/>
      <point x="225.576" y="1080" type="qcurve"/>
    </contour>
    <contour>
      <point x="771.576" y="930" type="line"/>
      <point x="771.576" y="930"/>
      <point x="771.576" y="930"/>
      <point x="771.576" y="930"/>
      <point x="771.576" y="930"/>
      <point x="771.576" y="930" type="qcurve"/>
      <point x="1367.58" y="930" type="line"/>
      <point x="1367.58" y="930"/>
      <point x="1367.58" y="930"/>
      <point x="1367.58" y="930"/>
      <point x="1367.58" y="930"/>
      <point x="1367.58" y="930" type="qcurve"/>
      <point x="1286.58" y="470" type="line"/>
      <point x="1286.58" y="470"/>
      <point x="1286.58" y="470"/>
      <point x="1286.58" y="470"/>
      <point x="1286.58" y="470"/>
      <point x="1286.58" y="470" type="qcurve"/>
      <point x="690.576" y="470" type="line"/>
      <point x="690.576" y="470"/>
      <point x="690.576" y="470"/>
      <point x="690.576" y="470"/>
      <point x="690.576" y="470"/>
      <point x="690.576" y="470" type="qcurve"/>
    </contour>
  </outline>
</glyph>
<glyph name="R" format="2">
  <advance width="1858"/>
  <unicode hex="0052"/>
  <anchor x="807" y="-150" name="bottom"/>
  <anchor x="1074" y="1550" name="top"/>
  <outline>
    <contour>
      <point x="60" y="0" type="line"/>
      <point x="632" y="0" type="line"/>
      <point x="702" y="400" type="line"/>
      <point x="810" y="400" type="line"/>
      <point x="1049" y="0" type="line"/>
      <point x="1730" y="0" type="line"/>
      <point x="1425" y="459" type="line"/>
      <point x="1425" y="459" type="line"/>
      <point x="1487" y="470"/>
      <point x="1591" y="515"/>
      <point x="1671" y="592"/>
      <point x="1727" y="704"/>
      <point x="1740" y="782" type="qcurve" smooth="yes"/>
      <point x="1790" y="1066" type="line" smooth="yes"/>
      <point x="1808" y="1167"/>
      <point x="1772" y="1296"/>
      <point x="1677" y="1371"/>
      <point x="1529" y="1400"/>
      <point x="1434" y="1400" type="qcurve" smooth="yes"/>
      <point x="304" y="1400" type="line"/>
    </contour>
    <contour>
      <point x="775" y="820" type="line"/>
      <point x="800" y="960" type="line"/>
      <point x="1142" y="960" type="line" smooth="yes"/>
      <point x="1159" y="960"/>
      <point x="1182" y="951"/>
      <point x="1196" y="936"/>
      <point x="1201" y="914"/>
      <point x="1199" y="900" type="qcurve" smooth="yes"/>
      <point x="1196" y="880" type="line"/>
      <point x="1193" y="867"/>
      <point x="1180" y="844"/>
      <point x="1160" y="829"/>
      <point x="1134" y="820"/>
      <point x="1117" y="820" type="qcurve" smooth="yes"/>
    </contour>
  </outline>
</glyph>
<glyph name="S" format="2">
  <advance width="1821"/>
  <unicode hex="0053"/>
  <anchor x="1059" y="1564" name="top"/>
  <anchor x="756" y="-164" name="bottom"/>
  <outline>
    <contour>
      <point x="47.4363" y="410" type="line"/>
      <point x="602.436" y="462" type="line"/>
      <point x="586.436" y="372" type="line"/>
      <point x="586.436" y="372"/>
      <point x="586.436" y="372"/>
      <point x="586.436" y="372"/>
      <point x="586.436" y="372"/>
      <point x="586.436" y="372" type="qcurve"/>
      <point x="1112.44" y="372" type="line"/>
      <point x="1112.44" y="372"/>
      <point x="1112.44" y="372"/>
      <point x="1112.44" y="372"/>
      <point x="1112.44" y="372"/>
      <point x="1112.44" y="372" type="qcurve"/>
      <point x="1137.44" y="514" type="line"/>
      <point x="1137.44" y="514"/>
      <point x="1137.44" y="514"/>
      <point x="1137.44" y="514"/>
      <point x="1137.44" y="514"/>
      <point x="1137.44" y="514" type="qcurve"/>
      <point x="503.436" y="514" type="line" smooth="yes"/>
      <point x="408.436" y="514"/>
      <point x="261.436" y="542"/>
      <point x="169.436" y="618"/>
      <point x="137.436" y="752"/>
      <point x="155.436" y="858" type="qcurve" smooth="yes"/>
      <point x="194.436" y="1082" type="line" smooth="yes"/>
      <point x="212.436" y="1186"/>
      <point x="296.436" y="1315"/>
      <point x="419.436" y="1388"/>
      <point x="577.436" y="1414"/>
      <point x="668.436" y="1414" type="qcurve" smooth="yes"/>
      <point x="1410.44" y="1414" type="line" smooth="yes"/>
      <point x="1502.44" y="1414"/>
      <point x="1648.44" y="1389"/>
      <point x="1744.44" y="1317"/>
      <point x="1781.44" y="1189"/>
      <point x="1763.44" y="1086" type="qcurve" smooth="yes"/>
      <point x="1749.44" y="1008" type="line"/>
      <point x="1195.44" y="958" type="line"/>
      <point x="1207.44" y="1028" type="line"/>
      <point x="1207.44" y="1028"/>
      <point x="1207.44" y="1028"/>
      <point x="1207.44" y="1028"/>
      <point x="1207.44" y="1028"/>
      <point x="1207.44" y="1028" type="qcurve"/>
      <point x="731.436" y="1028" type="line"/>
      <point x="731.436" y="1028"/>
      <point x="731.436" y="1028"/>
      <point x="731.436" y="1028"/>
      <point x="731.436" y="1028"/>
      <point x="731.436" y="1028" type="qcurve"/>
      <point x="708.436" y="900" type="line"/>
      <point x="708.436" y="900"/>
      <point x="708.436" y="900"/>
      <point x="708.436" y="900"/>
      <point x="708.436" y="900"/>
      <point x="708.436" y="900" type="qcurve"/>
      <point x="1338.44" y="900" type="line" smooth="yes"/>
      <point x="1430.44" y="900"/>
      <point x="1577.44" y="875"/>
      <point x="1673.44" y="804"/>
      <point x="1711.44" y="676"/>
      <point x="1693.44" y="572" type="qcurve" smooth="yes"/>
      <point x="1651.44" y="330" type="line" smooth="yes"/>
      <point x="1632.44" y="224"/>
      <point x="1552.44" y="89"/>
      <point x="1432.44" y="14"/>
      <point x="1275.44" y="-14"/>
      <point x="1179.44" y="-14" type="qcurve" smooth="yes"/>
      <point x="383.436" y="-14" type="line" smooth="yes"/>
      <point x="288.436" y="-14"/>
      <point x="141.436" y="14"/>
      <point x="48.4363" y="89"/>
      <point x="14.4363" y="222"/>
      <point x="33.4363" y="328" type="qcurve" smooth="yes"/>
    </contour>
  </outline>
</glyph>
<glyph name="T" format="2">
  <advance width="1624"/>
  <unicode hex="0054"/>
  <anchor x="965" y="1550" name="top"/>
  <anchor x="668" y="-150" name="bottom"/>
  <outline>
    <contour>
      <point x="407.858" y="0" type="line"/>
      <point x="979.858" y="0" type="line"/>
      <point x="1139.86" y="916" type="line"/>
      <point x="1615.86" y="916" type="line"/>
      <point x="1700.86" y="1400" type="line"/>
      <point x="176.858" y="1400" type="line"/>
      <point x="91.8578" y="916" type="line"/>
      <point x="567.858" y="916" type="line"/>
    </contour>
  </outline>
</glyph>
<glyph name="U" format="2">
  <advance width="1931"/>
  <unicode hex="0055"/>
  <anchor x="1118" y="1550" name="top"/>
  <anchor x="821" y="-150" name="bottom"/>
  <anchor x="1046" y="0" name="ogonek"/>
  <anchor x="1888" y="1400" name="horn"/>
  <outline>
    <contour>
      <point x="293" y="1400" type="line"/>
      <point x="865" y="1400" type="line"/>
      <point x="703" y="470" type="line"/>
      <point x="703" y="470"/>
      <point x="703" y="470"/>
      <point x="703" y="470"/>
      <point x="703" y="470"/>
      <point x="703" y="470" type="qcurve"/>
      <point x="1153" y="470" type="line"/>
      <point x="1153" y="470"/>
      <point x="1153" y="470"/>
      <point x="1153" y="470"/>
      <point x="1153" y="470"/>
      <point x="1153" y="470" type="qcurve"/>
      <point x="1315" y="1400" type="line"/>
      <point x="1887" y="1400" type="line"/>
      <point x="1700" y="329" type="line" smooth="yes"/>
      <point x="1682" y="223"/>
      <point x="1602" y="89"/>
      <point x="1483" y="14"/>
      <point x="1325" y="-14"/>
      <point x="1229" y="-14" type="qcurve" smooth="yes"/>
      <point x="457" y="-14" type="line" smooth="yes"/>
      <point x="362" y="-14"/>
      <point x="214" y="14"/>
      <point x="121" y="89"/>
      <point x="88" y="223"/>
      <point x="106" y="329" type="qcurve" smooth="yes"/>
    </contour>
  </outline>
</glyph>
<glyph name="V" format="2">
  <advance width="1928"/>
  <unicode hex="0056"/>
  <anchor x="1117.86" y="1550" name="top"/>
  <anchor x="820.858" y="-150" name="bottom"/>
  <outline>
    <contour>
      <point x="585" y="0" type="line"/>
      <point x="1133" y="0" type="line"/>
      <point x="2055" y="1400" type="line"/>
      <point x="1435" y="1400" type="line"/>
      <point x="958" y="624" type="line"/>
      <point x="745" y="1400" type="line"/>
      <point x="127" y="1400" type="line"/>
    </contour>
  </outline>
</glyph>
<glyph name="W" format="2">
  <advance width="2450"/>
  <unicode hex="0057"/>
  <anchor x="1225" y="-150" name="bottom"/>
  <anchor x="1225" y="1550" name="top"/>
  <outline>
    <contour>
      <point x="368.858" y="0" type="line"/>
      <point x="919.858" y="0" type="line"/>
      <point x="1221.86" y="659" type="line"/>
      <point x="1292.86" y="0" type="line"/>
      <point x="1846.86" y="0" type="line"/>
      <point x="2576.86" y="1400" type="line"/>
      <point x="1978.86" y="1400" type="line"/>
      <point x="1661.86" y="707" type="line"/>
      <point x="1596.86" y="1400" type="line"/>
      <point x="1119.86" y="1400" type="line"/>
      <point x="812.858" y="707" type="line"/>
      <point x="737.858" y="1400" type="line"/>
      <point x="126.858" y="1400" type="line"/>
    </contour>
  </outline>
</glyph>
<glyph name="X" format="2">
  <advance width="1959"/>
  <unicode hex="0058"/>
  <anchor x="1132" y="1550" name="top"/>
  <anchor x="835" y="-150" name="bottom"/>
  <outline>
    <contour>
      <point x="-107.142" y="0" type="line"/>
      <point x="559.858" y="0" type="line"/>
      <point x="896.858" y="343" type="line"/>
      <point x="1124.86" y="0" type="line"/>
      <point x="1838.86" y="0" type="line"/>
      <point x="1343.86" y="735" type="line"/>
      <point x="1997.86" y="1400" type="line"/>
      <point x="1358.86" y="1400" type="line"/>
      <point x="1050.86" y="1088" type="line"/>
      <point x="837.858" y="1400" type="line"/>
      <point x="126.858" y="1400" type="line"/>
      <point x="602.858" y="707" type="line"/>
    </contour>
  </outline>
  <guideline x="835"/>
  <guideline y="727"/>
</glyph>
<glyph name="Y" format="2">
  <advance width="1905"/>
  <unicode hex="0059"/>
  <anchor x="1107" y="1550" name="top"/>
  <anchor x="810" y="-150" name="bottom"/>
  <outline>
    <contour>
      <point x="563.858" y="0" type="line"/>
      <point x="1135.86" y="0" type="line"/>
      <point x="1238.86" y="593" type="line"/>
      <point x="2031.86" y="1400" type="line"/>
      <point x="1396.86" y="1400" type="line"/>
      <point x="1035.86" y="988" type="line"/>
      <point x="818.858" y="1400" type="line"/>
      <point x="126.858" y="1400" type="line"/>
      <point x="666.858" y="589" type="line"/>
    </contour>
  </outline>
  <guideline x="836" y="0" angle="260.119" color="1,0,0,1"/>
</glyph>
<glyph name="Z" format="2">
  <advance width="1584"/>
  <unicode hex="005A"/>
  <anchor x="792" y="1550" name="top"/>
  <anchor x="792" y="-150" name="bottom"/>
  <outline>
    <contour>
      <point x="-69.6717" y="0" type="line"/>
      <point x="1414.33" y="0" type="line"/>
      <point x="1495.33" y="464" type="line"/>
      <point x="872.328" y="464" type="line"/>
      <point x="1617.33" y="1228" type="line"/>
      <point x="1647.33" y="1400" type="line"/>
      <point x="269.328" y="1400" type="line"/>
      <point x="188.328" y="936" type="line"/>
      <point x="705.328" y="936" type="line"/>
      <point x="-39.6717" y="172" type="line"/>
    </contour>
  </outline>
</glyph>
<glyph name="bracketleft" format="2">
  <advance width="1005.6"/>
  <unicode hex="005B"/>
  <outline>
    <contour>
      <point x="14.4637" y="-256" type="line"/>
      <point x="312.464" y="1448" type="line"/>
      <point x="1084.46" y="1448" type="line"/>
      <point x="1023.46" y="1098" type="line"/>
      <point x="691.464" y="1098" type="line"/>
      <point x="515.464" y="94" type="line"/>
      <point x="847.464" y="94" type="line"/>
      <point x="786.464" y="-256" type="line"/>
    </contour>
  </outline>
</glyph>
<glyph name="backslash" format="2">
  <advance width="1122"/>
  <unicode hex="005C"/>
  <outline>
    <contour>
      <point x="613.862" y="1430" type="line"/>
      <point x="211.862" y="1430" type="line"/>
      <point x="501.862" y="-100" type="line"/>
      <point x="903.862" y="-100" type="line"/>
    </contour>
  </outline>
</glyph>
<glyph name="asciicircum" format="2">
  <advance width="1144"/>
  <unicode hex="005E"/>
  <outline>
    <contour>
      <point x="40" y="850" type="line"/>
      <point x="512" y="1400" type="line"/>
      <point x="884" y="1400" type="line"/>
      <point x="1164" y="850" type="line"/>
      <point x="739" y="850" type="line"/>
      <point x="655" y="1175" type="line"/>
      <point x="457" y="850" type="line"/>
    </contour>
  </outline>
  <guideline y="850"/>
</glyph>
<glyph name="a" format="2">
  <advance width="1586" height="1448"/>
  <unicode hex="0061"/>
  <anchor x="897" y="1174" name="top"/>
  <anchor x="646" y="-150" name="bottom"/>
  <anchor x="1191" y="0" name="ogonek"/>
  <outline>
    <contour>
      <point x="276.973" y="-10" type="line" smooth="yes"/>
      <point x="215.973" y="-10"/>
      <point x="111.973" y="14"/>
      <point x="41.9726" y="72"/>
      <point x="12.9726" y="170"/>
      <point x="25.9726" y="244" type="qcurve" smooth="yes"/>
      <point x="45.9726" y="362" type="line" smooth="yes"/>
      <point x="58.9726" y="435"/>
      <point x="121.973" y="529"/>
      <point x="211.973" y="584"/>
      <point x="323.973" y="606"/>
      <point x="384.973" y="606" type="qcurve" smooth="yes"/>
      <point x="924.973" y="606" type="line"/>
      <point x="942.973" y="712" type="line"/>
      <point x="942.973" y="712"/>
      <point x="942.973" y="712"/>
      <point x="942.973" y="712" type="qcurve"/>
      <point x="664.973" y="712" type="line"/>
      <point x="664.973" y="712"/>
      <point x="664.973" y="712"/>
      <point x="664.973" y="712" type="qcurve"/>
      <point x="655.973" y="660" type="line"/>
      <point x="148.973" y="755" type="line"/>
      <point x="151.973" y="774" type="line" smooth="yes"/>
      <point x="164.973" y="848"/>
      <point x="224.973" y="948"/>
      <point x="313.973" y="1008"/>
      <point x="426.973" y="1034"/>
      <point x="492.973" y="1034" type="qcurve" smooth="yes"/>
      <point x="1226.97" y="1034" type="line" smooth="yes"/>
      <point x="1292.97" y="1034"/>
      <point x="1397.97" y="1011"/>
      <point x="1464.97" y="949"/>
      <point x="1489.97" y="842"/>
      <point x="1474.97" y="758" type="qcurve" smooth="yes"/>
      <point x="1342.97" y="0" type="line"/>
      <point x="818.973" y="0" type="line"/>
      <point x="844.973" y="150" type="line"/>
      <point x="823.973" y="104"/>
      <point x="761.973" y="43"/>
      <point x="681.973" y="6"/>
      <point x="587.973" y="-10"/>
      <point x="534.973" y="-10" type="qcurve" smooth="yes"/>
    </contour>
    <contour>
      <point x="562.973" y="262" type="line"/>
      <point x="562.973" y="262"/>
      <point x="562.973" y="262"/>
      <point x="562.973" y="262" type="qcurve"/>
      <point x="864.973" y="262" type="line"/>
      <point x="883.973" y="370" type="line"/>
      <point x="581.973" y="370" type="line"/>
      <point x="581.973" y="370"/>
      <point x="581.973" y="370"/>
      <point x="581.973" y="370" type="qcurve"/>
    </contour>
  </outline>
  <guideline x="819" y="-0" angle="260.114" color="1,0,0,1"/>
</glyph>
<glyph name="b" format="2">
  <advance width="1612" height="-1448"/>
  <unicode hex="0062"/>
  <anchor x="946" y="1598" name="top"/>
  <anchor x="641" y="-150" name="bottom"/>
  <outline>
    <contour>
      <point x="10" y="0" type="line"/>
      <point x="534" y="0" type="line"/>
      <point x="552" y="102" type="line"/>
      <point x="574" y="45"/>
      <point x="699" y="-10"/>
      <point x="806" y="-10" type="qcurve" smooth="yes"/>
      <point x="1070" y="-10" type="line" smooth="yes"/>
      <point x="1150" y="-10"/>
      <point x="1272" y="21"/>
      <point x="1358" y="85"/>
      <point x="1410" y="185"/>
      <point x="1422" y="254" type="qcurve" smooth="yes"/>
      <point x="1514" y="780" type="line" smooth="yes"/>
      <point x="1525" y="845"/>
      <point x="1506" y="941"/>
      <point x="1442" y="1004"/>
      <point x="1332" y="1034"/>
      <point x="1252" y="1034" type="qcurve" smooth="yes"/>
      <point x="988" y="1034" type="line" smooth="yes"/>
      <point x="881" y="1034"/>
      <point x="738" y="979"/>
      <point x="695" y="922" type="qcurve"/>
      <point x="791" y="1472" type="line"/>
      <point x="267" y="1472" type="line"/>
    </contour>
    <contour>
      <point x="599" y="372" type="line"/>
      <point x="648" y="652" type="line"/>
      <point x="968" y="652" type="line"/>
      <point x="968" y="652"/>
      <point x="968" y="652"/>
      <point x="968" y="652" type="qcurve"/>
      <point x="919" y="372" type="line"/>
      <point x="919" y="372"/>
      <point x="919" y="372"/>
      <point x="919" y="372" type="qcurve"/>
    </contour>
  </outline>
  <guideline angle="0" x="0" y="988"/>
  <guideline angle="0" x="0" y="42"/>
</glyph>
<glyph name="c" format="2">
  <advance width="1535"/>
  <unicode hex="0063"/>
  <anchor x="865" y="1174" name="top"/>
  <anchor x="634" y="-150" name="bottom"/>
  <outline>
    <contour>
      <point x="38.6255" y="260" type="line"/>
      <point x="128.625" y="774" type="line" smooth="yes"/>
      <point x="140.625" y="844"/>
      <point x="194.625" y="942"/>
      <point x="284.625" y="1005"/>
      <point x="412.625" y="1034"/>
      <point x="499.625" y="1034" type="qcurve" smooth="yes"/>
      <point x="1181.63" y="1034" type="line" smooth="yes"/>
      <point x="1268.63" y="1034"/>
      <point x="1386.63" y="1006"/>
      <point x="1452.63" y="944"/>
      <point x="1471.63" y="847"/>
      <point x="1459.63" y="778" type="qcurve" smooth="yes"/>
      <point x="1438.63" y="660" type="line"/>
      <point x="897.625" y="562" type="line"/>
      <point x="913.625" y="652" type="line"/>
      <point x="913.625" y="652"/>
      <point x="913.625" y="652"/>
      <point x="913.625" y="652" type="qcurve"/>
      <point x="631.625" y="652" type="line"/>
      <point x="631.625" y="652"/>
      <point x="631.625" y="652"/>
      <point x="631.625" y="652" type="qcurve"/>
      <point x="582.625" y="372" type="line"/>
      <point x="582.625" y="372"/>
      <point x="582.625" y="372"/>
      <point x="582.625" y="372" type="qcurve"/>
      <point x="868.625" y="372" type="line"/>
      <point x="868.625" y="372"/>
      <point x="868.625" y="372"/>
      <point x="868.625" y="372" type="qcurve"/>
      <point x="884.625" y="464" type="line"/>
      <point x="1389.63" y="356" type="line"/>
      <point x="1372.63" y="260" type="line" smooth="yes"/>
      <point x="1360.63" y="187"/>
      <point x="1307.63" y="85"/>
      <point x="1218.63" y="20"/>
      <point x="1090.63" y="-10"/>
      <point x="1001.63" y="-10" type="qcurve" smooth="yes"/>
      <point x="315.625" y="-10" type="line" smooth="yes"/>
      <point x="227.625" y="-10"/>
      <point x="109.625" y="20"/>
      <point x="43.6255" y="85"/>
      <point x="26.6255" y="187"/>
      <point x="38.6255" y="260" type="qcurve"/>
    </contour>
  </outline>
</glyph>
<glyph name="e" format="2">
  <advance width="1560" height="1448"/>
  <unicode hex="0065"/>
  <anchor x="864" y="1174" name="top"/>
  <anchor x="633" y="-150" name="bottom"/>
  <anchor x="906" y="-10" name="ogonek"/>
  <outline>
    <contour>
      <point x="45.5662" y="300" type="line"/>
      <point x="121.566" y="734" type="line" smooth="yes"/>
      <point x="135.566" y="812"/>
      <point x="198.566" y="925"/>
      <point x="306.566" y="999"/>
      <point x="464.566" y="1034"/>
      <point x="571.566" y="1034" type="qcurve" smooth="yes"/>
      <point x="1087.57" y="1034" type="line" smooth="yes"/>
      <point x="1195.57" y="1034"/>
      <point x="1347.57" y="999"/>
      <point x="1437.57" y="926"/>
      <point x="1467.57" y="813"/>
      <point x="1453.57" y="734" type="qcurve" smooth="yes"/>
      <point x="1396.57" y="404" type="line"/>
      <point x="588.566" y="404" type="line"/>
      <point x="568.566" y="292" type="line"/>
      <point x="568.566" y="292"/>
      <point x="568.566" y="292"/>
      <point x="568.566" y="292" type="qcurve"/>
      <point x="852.566" y="292" type="line"/>
      <point x="852.566" y="292"/>
      <point x="852.566" y="292"/>
      <point x="852.566" y="292" type="qcurve"/>
      <point x="865.566" y="368" type="line"/>
      <point x="1374.57" y="280" type="line"/>
      <point x="1371.57" y="266" type="line" smooth="yes"/>
      <point x="1358.57" y="191"/>
      <point x="1290.57" y="86"/>
      <point x="1176.57" y="20"/>
      <point x="1013.57" y="-10"/>
      <point x="905.566" y="-10" type="qcurve" smooth="yes"/>
      <point x="389.566" y="-10" type="line" smooth="yes"/>
      <point x="281.566" y="-10"/>
      <point x="136.566" y="26"/>
      <point x="54.5662" y="102"/>
      <point x="31.5662" y="219"/>
      <point x="45.5662" y="300" type="qcurve"/>
    </contour>
    <contour>
      <point x="627.566" y="628" type="line"/>
      <point x="911.566" y="628" type="line"/>
      <point x="929.566" y="732" type="line"/>
      <point x="929.566" y="732"/>
      <point x="929.566" y="732"/>
      <point x="929.566" y="732" type="qcurve"/>
      <point x="645.566" y="732" type="line"/>
      <point x="645.566" y="732"/>
      <point x="645.566" y="732"/>
      <point x="645.566" y="732" type="qcurve"/>
    </contour>
  </outline>
  <guideline y="-1034" color="1,0,0,1"/>
</glyph>
<glyph name="g" format="2">
  <advance width="1606" height="1448"/>
  <unicode hex="0067"/>
  <anchor x="884" y="1174" name="top"/>
  <anchor x="803" y="-578" name="bottom"/>
  <outline>
    <contour>
      <point x="591.914" y="422" type="line"/>
      <point x="629.914" y="642" type="line"/>
      <point x="629.914" y="642"/>
      <point x="629.914" y="642"/>
      <point x="629.914" y="642" type="qcurve"/>
      <point x="949.914" y="642" type="line"/>
      <point x="911.914" y="422" type="line"/>
      <point x="591.914" y="422" type="line"/>
      <point x="591.914" y="422"/>
      <point x="591.914" y="422"/>
      <point x="591.914" y="422" type="qcurve"/>
    </contour>
    <contour>
      <point x="4.914" y="-428" type="line"/>
      <point x="1026.91" y="-428" type="line" smooth="yes"/>
      <point x="1100.91" y="-428"/>
      <point x="1207.91" y="-386"/>
      <point x="1282.91" y="-303"/>
      <point x="1330.91" y="-180"/>
      <point x="1344.91" y="-100" type="qcurve" smooth="yes"/>
      <point x="1540.91" y="1024" type="line"/>
      <point x="1016.91" y="1024" type="line"/>
      <point x="996.914" y="912" type="line"/>
      <point x="973.914" y="969"/>
      <point x="849.914" y="1024"/>
      <point x="742.914" y="1024" type="qcurve" smooth="yes"/>
      <point x="478.914" y="1024" type="line" smooth="yes"/>
      <point x="399.914" y="1024"/>
      <point x="278.914" y="994"/>
      <point x="192.914" y="931"/>
      <point x="139.914" y="835"/>
      <point x="127.914" y="770" type="qcurve"/>
      <point x="46.914" y="304" type="line" smooth="yes"/>
      <point x="34.914" y="235"/>
      <point x="52.914" y="135"/>
      <point x="115.914" y="71"/>
      <point x="226.914" y="40"/>
      <point x="306.914" y="40" type="qcurve" smooth="yes"/>
      <point x="570.914" y="40" type="line" smooth="yes"/>
      <point x="677.914" y="40"/>
      <point x="822.914" y="95"/>
      <point x="864.914" y="152" type="qcurve"/>
      <point x="823.914" y="-78" type="line"/>
      <point x="823.914" y="-78"/>
      <point x="823.914" y="-78"/>
      <point x="823.914" y="-78" type="qcurve"/>
      <point x="-6.086" y="-78" type="line"/>
    </contour>
  </outline>
</glyph>
<glyph name="h" format="2">
  <advance width="1519" height="1448"/>
  <unicode hex="0068"/>
  <anchor x="554" y="1622" name="top"/>
  <anchor x="617" y="-150" name="bottom"/>
  <anchor x="-1" y="518" name="left"/>
  <outline>
    <contour>
      <point x="9.69554" y="0" type="line"/>
      <point x="266.696" y="1472" type="line"/>
      <point x="790.696" y="1472" type="line"/>
      <point x="695.696" y="930" type="line"/>
      <point x="737.696" y="984"/>
      <point x="881.696" y="1034"/>
      <point x="999.696" y="1034" type="qcurve" smooth="yes"/>
      <point x="1087.7" y="1034" type="line" smooth="yes"/>
      <point x="1183.7" y="1034"/>
      <point x="1316.7" y="999"/>
      <point x="1393.7" y="925"/>
      <point x="1417.7" y="812"/>
      <point x="1403.7" y="734" type="qcurve" smooth="yes"/>
      <point x="1275.7" y="0" type="line"/>
      <point x="751.696" y="0" type="line"/>
      <point x="856.696" y="602" type="line"/>
      <point x="856.696" y="602"/>
      <point x="856.696" y="602"/>
      <point x="856.696" y="602" type="qcurve"/>
      <point x="638.696" y="602" type="line"/>
      <point x="533.696" y="0" type="line"/>
    </contour>
  </outline>
  <guideline y="988"/>
  <guideline y="870"/>
</glyph>
<glyph name="k" format="2">
  <advance width="1791" height="1448"/>
  <unicode hex="006B"/>
  <anchor x="551" y="1598" name="top"/>
  <anchor x="666" y="-150" name="bottom"/>
  <anchor x="38" y="736" name="left"/>
  <outline>
    <contour>
      <point x="10" y="0" type="line"/>
      <point x="534" y="0" type="line"/>
      <point x="620" y="493" type="line"/>
      <point x="589" y="493" type="line"/>
      <point x="978" y="0" type="line"/>
      <point x="1665" y="0" type="line"/>
      <point x="1159" y="598" type="line"/>
      <point x="1128" y="515" type="line"/>
      <point x="1741" y="1024" type="line"/>
      <point x="1103" y="1024" type="line"/>
      <point x="625" y="620" type="line"/>
      <point x="642" y="616" type="line"/>
      <point x="791" y="1472" type="line"/>
      <point x="267" y="1472" type="line"/>
    </contour>
  </outline>
</glyph>
<glyph name="l" format="2">
  <advance width="784" height="1448"/>
  <unicode hex="006C"/>
  <anchor x="551" y="1598" name="top"/>
  <anchor x="246" y="-150" name="bottom"/>
  <anchor x="791" y="1472" name="right"/>
  <anchor x="786" y="700" name="eldot"/>
  <outline>
    <contour>
      <point x="9.69554" y="0" type="line"/>
      <point x="533.696" y="0" type="line"/>
      <point x="790.696" y="1472" type="line"/>
      <point x="266.696" y="1472" type="line"/>
    </contour>
  </outline>
</glyph>
<glyph name="n" format="2">
  <advance width="1517.7" height="1448"/>
  <unicode hex="006E"/>
  <anchor x="850" y="1184" name="top"/>
  <anchor x="617" y="-150" name="bottom"/>
  <anchor x="-1" y="518" name="left"/>
  <outline>
    <contour>
      <point x="8.7011" y="0" type="line"/>
      <point x="187.701" y="1024" type="line"/>
      <point x="711.701" y="1024" type="line"/>
      <point x="694.701" y="930" type="line"/>
      <point x="736.701" y="984"/>
      <point x="880.701" y="1034"/>
      <point x="998.701" y="1034" type="qcurve" smooth="yes"/>
      <point x="1086.7" y="1034" type="line" smooth="yes"/>
      <point x="1182.7" y="1034"/>
      <point x="1315.7" y="999"/>
      <point x="1392.7" y="925"/>
      <point x="1416.7" y="812"/>
      <point x="1402.7" y="734" type="qcurve" smooth="yes"/>
      <point x="1274.7" y="0" type="line"/>
      <point x="750.701" y="0" type="line"/>
      <point x="855.701" y="602" type="line"/>
      <point x="855.701" y="602"/>
      <point x="855.701" y="602"/>
      <point x="855.701" y="602" type="qcurve"/>
      <point x="637.701" y="602" type="line"/>
      <point x="532.701" y="0" type="line"/>
    </contour>
  </outline>
  <guideline angle="0" x="0" y="988"/>
  <guideline angle="0" x="0" y="870"/>
</glyph>
<glyph name="p" format="2">
  <advance width="1611.68" height="1448"/>
  <unicode hex="0070"/>
  <anchor x="975" y="1598" name="top"/>
  <anchor x="591" y="-578" name="bottom"/>
  <outline>
    <contour>
      <point x="-66.2989" y="-428" type="line"/>
      <point x="187.701" y="1024" type="line"/>
      <point x="711.701" y="1024" type="line"/>
      <point x="693.701" y="922" type="line"/>
      <point x="735.701" y="979"/>
      <point x="879.701" y="1034"/>
      <point x="986.701" y="1034" type="qcurve" smooth="yes"/>
      <point x="1250.7" y="1034" type="line" smooth="yes"/>
      <point x="1330.7" y="1034"/>
      <point x="1441.7" y="1003"/>
      <point x="1504.7" y="939"/>
      <point x="1522.7" y="839"/>
      <point x="1510.7" y="770" type="qcurve" smooth="yes"/>
      <point x="1419.7" y="244" type="line" smooth="yes"/>
      <point x="1407.7" y="179"/>
      <point x="1354.7" y="83"/>
      <point x="1268.7" y="20"/>
      <point x="1148.7" y="-10"/>
      <point x="1068.7" y="-10" type="qcurve" smooth="yes"/>
      <point x="804.701" y="-10" type="line" smooth="yes"/>
      <point x="697.701" y="-10"/>
      <point x="573.701" y="45"/>
      <point x="550.701" y="102" type="qcurve"/>
      <point x="457.701" y="-428" type="line"/>
    </contour>
    <contour>
      <point x="599.701" y="382" type="line"/>
      <point x="919.701" y="382" type="line"/>
      <point x="919.701" y="382"/>
      <point x="919.701" y="382"/>
      <point x="919.701" y="382" type="qcurve"/>
      <point x="964.701" y="642" type="line"/>
      <point x="964.701" y="642"/>
      <point x="964.701" y="642"/>
      <point x="964.701" y="642" type="qcurve"/>
      <point x="644.701" y="642" type="line"/>
    </contour>
  </outline>
</glyph>
<glyph name="q" format="2">
  <advance width="1612" height="1448"/>
  <unicode hex="0071"/>
  <anchor x="982" y="1598" name="top"/>
  <anchor x="677" y="-150" name="bottom"/>
  <outline>
    <contour>
      <point x="37.6773" y="254" type="line"/>
      <point x="129.677" y="780" type="line" smooth="yes"/>
      <point x="141.677" y="845"/>
      <point x="193.677" y="941"/>
      <point x="279.677" y="1004"/>
      <point x="400.677" y="1034"/>
      <point x="479.677" y="1034" type="qcurve" smooth="yes"/>
      <point x="743.677" y="1034" type="line" smooth="yes"/>
      <point x="850.677" y="1034"/>
      <point x="975.677" y="979"/>
      <point x="998.677" y="922" type="qcurve"/>
      <point x="1016.68" y="1024" type="line"/>
      <point x="1540.68" y="1024" type="line"/>
      <point x="1286.68" y="-428" type="line"/>
      <point x="762.677" y="-428" type="line"/>
      <point x="855.677" y="102" type="line"/>
      <point x="813.677" y="45"/>
      <point x="668.677" y="-10"/>
      <point x="561.677" y="-10" type="qcurve" smooth="yes"/>
      <point x="297.677" y="-10" type="line" smooth="yes"/>
      <point x="217.677" y="-10"/>
      <point x="106.677" y="21"/>
      <point x="43.6773" y="85"/>
      <point x="25.6773" y="185"/>
      <point x="37.6773" y="254" type="qcurve"/>
    </contour>
    <contour>
      <point x="584.677" y="382" type="line"/>
      <point x="584.677" y="382"/>
      <point x="584.677" y="382"/>
      <point x="584.677" y="382" type="qcurve"/>
      <point x="904.677" y="382" type="line"/>
      <point x="951.677" y="652" type="line"/>
      <point x="631.677" y="652" type="line"/>
      <point x="631.677" y="652"/>
      <point x="631.677" y="652"/>
      <point x="631.677" y="652" type="qcurve"/>
    </contour>
  </outline>
  <guideline y="988"/>
  <guideline y="42"/>
</glyph>
<glyph name="r" format="2">
  <advance width="1421" height="1448"/>
  <unicode hex="0072"/>
  <anchor x="819" y="1184" name="top"/>
  <anchor x="245" y="-150" name="bottom"/>
  <anchor x="-1" y="517" name="left"/>
  <outline>
    <contour>
      <point x="9" y="0" type="line"/>
      <point x="188" y="1024" type="line"/>
      <point x="712" y="1024" type="line"/>
      <point x="695" y="930" type="line"/>
      <point x="737" y="984"/>
      <point x="881" y="1034"/>
      <point x="999" y="1034" type="qcurve" smooth="yes"/>
      <point x="1067" y="1034" type="line" smooth="yes"/>
      <point x="1163" y="1034"/>
      <point x="1296" y="999"/>
      <point x="1373" y="925"/>
      <point x="1397" y="812"/>
      <point x="1383" y="734" type="qcurve" smooth="yes"/>
      <point x="1359" y="596" type="line"/>
      <point x="821" y="517" type="line"/>
      <point x="836" y="602" type="line"/>
      <point x="836" y="602"/>
      <point x="836" y="602"/>
      <point x="836" y="602" type="qcurve"/>
      <point x="638" y="602" type="line"/>
      <point x="533" y="0" type="line"/>
    </contour>
  </outline>
</glyph>
<glyph name="s" format="2">
  <advance width="1509.62"/>
  <unicode hex="0073"/>
  <anchor x="833" y="1174" name="top"/>
  <anchor x="602" y="-150" name="bottom"/>
  <outline>
    <contour>
      <point x="28.0501" y="258" type="line"/>
      <point x="556.05" y="336" type="line"/>
      <point x="543.05" y="262" type="line"/>
      <point x="543.05" y="262"/>
      <point x="543.05" y="262"/>
      <point x="543.05" y="262" type="qcurve"/>
      <point x="807.05" y="262" type="line"/>
      <point x="807.05" y="262"/>
      <point x="807.05" y="262"/>
      <point x="807.05" y="262" type="qcurve"/>
      <point x="823.05" y="358" type="line"/>
      <point x="823.05" y="358"/>
      <point x="823.05" y="358"/>
      <point x="823.05" y="358" type="qcurve"/>
      <point x="363.05" y="358" type="line" smooth="yes"/>
      <point x="291.05" y="358"/>
      <point x="183.05" y="389"/>
      <point x="116.05" y="458"/>
      <point x="94.0501" y="567"/>
      <point x="108.05" y="646" type="qcurve" smooth="yes"/>
      <point x="129.05" y="768" type="line" smooth="yes"/>
      <point x="143.05" y="845"/>
      <point x="218.05" y="948"/>
      <point x="326.05" y="1009"/>
      <point x="457.05" y="1034"/>
      <point x="527.05" y="1034" type="qcurve" smooth="yes"/>
      <point x="1169.05" y="1034" type="line" smooth="yes"/>
      <point x="1235.05" y="1034"/>
      <point x="1336.05" y="1005"/>
      <point x="1399.05" y="947"/>
      <point x="1421.05" y="860"/>
      <point x="1407.05" y="802" type="qcurve"/>
      <point x="1402.05" y="772" type="line"/>
      <point x="874.05" y="694" type="line"/>
      <point x="886.05" y="762" type="line"/>
      <point x="886.05" y="762"/>
      <point x="886.05" y="762"/>
      <point x="886.05" y="762" type="qcurve"/>
      <point x="652.05" y="762" type="line"/>
      <point x="652.05" y="762"/>
      <point x="652.05" y="762"/>
      <point x="652.05" y="762" type="qcurve"/>
      <point x="637.05" y="676" type="line"/>
      <point x="637.05" y="676"/>
      <point x="637.05" y="676"/>
      <point x="637.05" y="676" type="qcurve"/>
      <point x="1095.05" y="676" type="line" smooth="yes"/>
      <point x="1165.05" y="676"/>
      <point x="1275.05" y="656"/>
      <point x="1346.05" y="600"/>
      <point x="1373.05" y="502"/>
      <point x="1359.05" y="424" type="qcurve" smooth="yes"/>
      <point x="1329.05" y="252" type="line" smooth="yes"/>
      <point x="1315.05" y="173"/>
      <point x="1256.05" y="71"/>
      <point x="1166.05" y="12"/>
      <point x="1048.05" y="-10"/>
      <point x="975.05" y="-10" type="qcurve" smooth="yes"/>
      <point x="287.05" y="-10" type="line" smooth="yes"/>
      <point x="215.05" y="-10"/>
      <point x="106.05" y="14"/>
      <point x="37.0501" y="71"/>
      <point x="11.0501" y="164"/>
      <point x="23.0501" y="232" type="qcurve" smooth="yes"/>
    </contour>
  </outline>
</glyph>
<glyph name="t" format="2">
  <advance width="990"/>
  <unicode hex="0074"/>
  <anchor x="571" y="1394" name="top"/>
  <anchor x="348" y="-160" name="bottom"/>
  <anchor x="832" y="1400" name="right"/>
  <outline>
    <contour>
      <point x="368.416" y="-10" type="line" smooth="yes"/>
      <point x="286.416" y="-10"/>
      <point x="174.416" y="18"/>
      <point x="112.416" y="80"/>
      <point x="95.4157" y="177"/>
      <point x="107.416" y="246" type="qcurve" smooth="yes"/>
      <point x="190.416" y="722" type="line"/>
      <point x="58.4157" y="722" type="line"/>
      <point x="111.416" y="1024" type="line"/>
      <point x="243.416" y="1024" type="line"/>
      <point x="281.416" y="1244" type="line"/>
      <point x="805.416" y="1244" type="line"/>
      <point x="767.416" y="1024" type="line"/>
      <point x="997.416" y="1024" type="line"/>
      <point x="944.416" y="722" type="line"/>
      <point x="714.416" y="722" type="line"/>
      <point x="639.416" y="292" type="line"/>
      <point x="639.416" y="292"/>
      <point x="639.416" y="292"/>
      <point x="639.416" y="292" type="qcurve"/>
      <point x="839.416" y="292" type="line"/>
      <point x="736.416" y="-10" type="line"/>
    </contour>
  </outline>
</glyph>
<glyph name="u" format="2">
  <advance width="1410"/>
  <unicode hex="0075"/>
  <anchor x="790" y="1174" name="top"/>
  <anchor x="559" y="-150" name="bottom"/>
  <anchor x="771" y="0" name="ogonek"/>
  <anchor x="1404" y="1024" name="horn"/>
  <outline>
    <contour>
      <point x="-18.8701" y="204" type="line"/>
      <point x="124.13" y="1024" type="line"/>
      <point x="648.13" y="1024" type="line"/>
      <point x="541.13" y="412" type="line"/>
      <point x="541.13" y="412"/>
      <point x="541.13" y="412"/>
      <point x="541.13" y="412" type="qcurve"/>
      <point x="773.13" y="412" type="line"/>
      <point x="773.13" y="412"/>
      <point x="773.13" y="412"/>
      <point x="773.13" y="412" type="qcurve"/>
      <point x="880.13" y="1024" type="line"/>
      <point x="1404.13" y="1024" type="line"/>
      <point x="1261.13" y="204" type="line" smooth="yes"/>
      <point x="1250.13" y="141"/>
      <point x="1202.13" y="62"/>
      <point x="1130.13" y="17"/>
      <point x="1036.13" y="0"/>
      <point x="979.13" y="0" type="qcurve" smooth="yes"/>
      <point x="189.13" y="0" type="line" smooth="yes"/>
      <point x="132.13" y="0"/>
      <point x="44.1299" y="17"/>
      <point x="-10.8701" y="62"/>
      <point x="-29.8701" y="141"/>
      <point x="-18.8701" y="204" type="qcurve"/>
    </contour>
  </outline>
</glyph>
<glyph name="v" format="2">
  <advance width="1573.71"/>
  <unicode hex="0076"/>
  <anchor x="905.916" y="1174" name="top"/>
  <anchor x="645.916" y="-150" name="bottom"/>
  <outline>
    <contour>
      <point x="402" y="0" type="line"/>
      <point x="954" y="0" type="line"/>
      <point x="1628" y="1024" type="line"/>
      <point x="1109" y="1024" type="line"/>
      <point x="753" y="451" type="line"/>
      <point x="597" y="1024" type="line"/>
      <point x="67" y="1024" type="line"/>
    </contour>
  </outline>
</glyph>
<glyph name="w" format="2">
  <advance width="2215"/>
  <unicode hex="0077"/>
  <anchor x="1213" y="1174" name="top"/>
  <anchor x="962" y="-150" name="bottom"/>
  <outline>
    <contour>
      <point x="337.916" y="0" type="line"/>
      <point x="66.9159" y="1024" type="line"/>
      <point x="617.916" y="1024" type="line"/>
      <point x="749.916" y="172" type="line"/>
      <point x="719.916" y="0" type="line"/>
    </contour>
    <contour>
      <point x="495.916" y="0" type="line"/>
      <point x="525.916" y="172" type="line"/>
      <point x="955.916" y="1024" type="line"/>
      <point x="1270.92" y="1024" type="line"/>
      <point x="1230.92" y="798" type="line"/>
      <point x="818.916" y="0" type="line"/>
    </contour>
    <contour>
      <point x="1167.92" y="0" type="line"/>
      <point x="1033.92" y="798" type="line"/>
      <point x="1073.92" y="1024" type="line"/>
      <point x="1437.92" y="1024" type="line"/>
      <point x="1570.92" y="172" type="line"/>
      <point x="1539.92" y="0" type="line"/>
    </contour>
    <contour>
      <point x="1318.92" y="0" type="line"/>
      <point x="1348.92" y="172" type="line"/>
      <point x="1778.92" y="1024" type="line"/>
      <point x="2268.92" y="1024" type="line"/>
      <point x="1639.92" y="0" type="line"/>
    </contour>
  </outline>
</glyph>
<glyph name="x" format="2">
  <advance width="1583"/>
  <unicode hex="0078"/>
  <anchor x="878" y="1174" name="top"/>
  <anchor x="647" y="-150" name="bottom"/>
  <outline>
    <contour>
      <point x="-112.084" y="0" type="line"/>
      <point x="462.916" y="0" type="line"/>
      <point x="668.916" y="222" type="line"/>
      <point x="804.916" y="0" type="line"/>
      <point x="1456.92" y="0" type="line"/>
      <point x="1035.92" y="530" type="line"/>
      <point x="1559.92" y="1024" type="line"/>
      <point x="979.916" y="1024" type="line"/>
      <point x="801.916" y="832" type="line"/>
      <point x="691.916" y="1024" type="line"/>
      <point x="66.9159" y="1024" type="line"/>
      <point x="435.916" y="524" type="line"/>
    </contour>
  </outline>
</glyph>
<glyph name="y" format="2">
  <advance width="1472.71"/>
  <unicode hex="0079"/>
  <anchor x="823" y="1174" name="top"/>
  <anchor x="1081" y="-100" name="bottom"/>
  <outline>
    <contour>
      <point x="-89.0841" y="-428" type="line"/>
      <point x="167.916" y="-428" type="line" smooth="yes"/>
      <point x="295.916" y="-428"/>
      <point x="478.916" y="-394"/>
      <point x="622.916" y="-311"/>
      <point x="745.916" y="-172"/>
      <point x="812.916" y="-68" type="qcurve" smooth="yes"/>
      <point x="1526.92" y="1024" type="line"/>
      <point x="996.916" y="1024" type="line"/>
      <point x="723.916" y="601" type="line"/>
      <point x="596.916" y="1024" type="line"/>
      <point x="66.9159" y="1024" type="line"/>
      <point x="380.916" y="65" type="line"/>
      <point x="284.916" y="-80" type="line"/>
      <point x="284.916" y="-80"/>
      <point x="284.916" y="-80"/>
      <point x="284.916" y="-80"/>
      <point x="284.916" y="-80"/>
      <point x="284.916" y="-80" type="qcurve"/>
      <point x="-100.084" y="-80" type="line"/>
    </contour>
  </outline>
</glyph>
<glyph name="z" format="2">
  <advance width="1339.19"/>
  <unicode hex="007A"/>
  <anchor x="755" y="1174" name="top"/>
  <anchor x="524" y="-150" name="bottom"/>
  <outline>
    <contour>
      <point x="-60.4874" y="0" type="line"/>
      <point x="1158.51" y="0" type="line"/>
      <point x="1225.51" y="382" type="line"/>
      <point x="757.513" y="382" type="line"/>
      <point x="760.513" y="374" type="line"/>
      <point x="1293.51" y="807" type="line"/>
      <point x="1331.51" y="1024" type="line"/>
      <point x="179.513" y="1024" type="line"/>
      <point x="112.513" y="642" type="line"/>
      <point x="513.513" y="642" type="line"/>
      <point x="510.513" y="650" type="line"/>
      <point x="-22.4874" y="217" type="line"/>
    </contour>
  </outline>
</glyph>
<glyph name="braceleft" format="2">
  <advance width="1085"/>
  <unicode hex="007B"/>
  <outline>
    <contour>
      <point x="187.499" y="18" type="line"/>
      <point x="228.499" y="257" type="line" smooth="yes"/>
      <point x="235.499" y="298"/>
      <point x="224.499" y="364"/>
      <point x="182.499" y="410"/>
      <point x="106.499" y="435"/>
      <point x="49.4986" y="435" type="qcurve"/>
      <point x="106.499" y="759" type="line"/>
      <point x="163.499" y="759"/>
      <point x="247.499" y="784"/>
      <point x="306.499" y="831"/>
      <point x="340.499" y="897"/>
      <point x="347.499" y="937" type="qcurve" smooth="yes"/>
      <point x="387.499" y="1164" type="line" smooth="yes"/>
      <point x="399.499" y="1232"/>
      <point x="459.499" y="1337"/>
      <point x="550.499" y="1410"/>
      <point x="667.499" y="1448"/>
      <point x="734.499" y="1448" type="qcurve" smooth="yes"/>
      <point x="1167.5" y="1448" type="line"/>
      <point x="1106.5" y="1098" type="line"/>
      <point x="937.499" y="1098" type="line" smooth="yes"/>
      <point x="904.499" y="1098"/>
      <point x="856.499" y="1085"/>
      <point x="822.499" y="1057"/>
      <point x="801.499" y="1015"/>
      <point x="796.499" y="986" type="qcurve" smooth="yes"/>
      <point x="777.499" y="877" type="line" smooth="yes"/>
      <point x="758.499" y="766"/>
      <point x="629.499" y="624"/>
      <point x="528.499" y="597" type="qcurve"/>
      <point x="573.499" y="584"/>
      <point x="639.499" y="534"/>
      <point x="678.499" y="464"/>
      <point x="689.499" y="373"/>
      <point x="679.499" y="317" type="qcurve" smooth="yes"/>
      <point x="659.499" y="206" type="line" smooth="yes"/>
      <point x="654.499" y="177"/>
      <point x="661.499" y="135"/>
      <point x="685.499" y="107"/>
      <point x="729.499" y="94"/>
      <point x="762.499" y="94" type="qcurve" smooth="yes"/>
      <point x="931.499" y="94" type="line"/>
      <point x="870.499" y="-256" type="line"/>
      <point x="437.499" y="-256" type="line" smooth="yes"/>
      <point x="370.499" y="-256"/>
      <point x="266.499" y="-218"/>
      <point x="200.499" y="-147"/>
      <point x="176.499" y="-46"/>
      <point x="187.499" y="18" type="qcurve"/>
    </contour>
  </outline>
</glyph>
<glyph name="bar" format="2">
  <advance width="760.796"/>
  <unicode hex="007C"/>
  <outline>
    <contour>
      <point x="325" y="1520" type="line"/>
      <point x="725" y="1520" type="line"/>
      <point x="376" y="-480" type="line"/>
      <point x="-24" y="-480" type="line"/>
    </contour>
  </outline>
</glyph>
<glyph name="asciitilde" format="2">
  <advance width="1313.7"/>
  <unicode hex="007E"/>
  <outline>
    <contour>
      <point x="8" y="443" type="line"/>
      <point x="34" y="504"/>
      <point x="94" y="602"/>
      <point x="161" y="677"/>
      <point x="235" y="730"/>
      <point x="316" y="765"/>
      <point x="402" y="781"/>
      <point x="448" y="781" type="qcurve" smooth="yes"/>
      <point x="493" y="781"/>
      <point x="572" y="766"/>
      <point x="644" y="745"/>
      <point x="709" y="719"/>
      <point x="769" y="698"/>
      <point x="825" y="683"/>
      <point x="852" y="683" type="qcurve" smooth="yes"/>
      <point x="890" y="683"/>
      <point x="944" y="707"/>
      <point x="978" y="739"/>
      <point x="995" y="772"/>
      <point x="998" y="781" type="qcurve"/>
      <point x="1273" y="732" type="line"/>
      <point x="1247" y="671"/>
      <point x="1188" y="573"/>
      <point x="1120" y="498"/>
      <point x="1046" y="444"/>
      <point x="965" y="410"/>
      <point x="879" y="394"/>
      <point x="833" y="394" type="qcurve" smooth="yes"/>
      <point x="789" y="394"/>
      <point x="709" y="409"/>
      <point x="637" y="430"/>
      <point x="572" y="456"/>
      <point x="512" y="477"/>
      <point x="456" y="492"/>
      <point x="429" y="492" type="qcurve" smooth="yes"/>
      <point x="391" y="492"/>
      <point x="338" y="468"/>
      <point x="303" y="436"/>
      <point x="286" y="403"/>
      <point x="283" y="394" type="qcurve"/>
    </contour>
  </outline>
</glyph>
<glyph name="sterling" format="2">
  <advance width="1837"/>
  <unicode hex="00A3"/>
  <outline>
    <contour>
      <point x="169" y="543" type="line"/>
      <point x="1015" y="543" type="line"/>
      <point x="1105" y="785" type="line"/>
      <point x="210" y="785" type="line"/>
    </contour>
    <contour>
      <point x="-54" y="0" type="line"/>
      <point x="369" y="100" type="line"/>
      <point x="464" y="100"/>
      <point x="632" y="192"/>
      <point x="765" y="342"/>
      <point x="856" y="534"/>
      <point x="874" y="634" type="qcurve"/>
      <point x="928" y="950" type="line" smooth="yes"/>
      <point x="932" y="975"/>
      <point x="951" y="1012"/>
      <point x="981" y="1037"/>
      <point x="1020" y="1050"/>
      <point x="1045" y="1050" type="qcurve" smooth="yes"/>
      <point x="1093" y="1050" type="line" smooth="yes"/>
      <point x="1119" y="1050"/>
      <point x="1155" y="1038"/>
      <point x="1175" y="1014"/>
      <point x="1181" y="976"/>
      <point x="1176" y="950" type="qcurve" smooth="yes"/>
      <point x="1164" y="880" type="line"/>
      <point x="1754" y="986" type="line"/>
      <point x="1770" y="1080" type="line" smooth="yes"/>
      <point x="1787" y="1181"/>
      <point x="1751" y="1310"/>
      <point x="1656" y="1385"/>
      <point x="1509" y="1414"/>
      <point x="1414" y="1414" type="qcurve" smooth="yes"/>
      <point x="848" y="1414" type="line" smooth="yes"/>
      <point x="754" y="1414"/>
      <point x="596" y="1385"/>
      <point x="476" y="1310"/>
      <point x="395" y="1181"/>
      <point x="378" y="1080" type="qcurve" smooth="yes"/>
      <point x="272" y="464" type="line" smooth="yes"/>
      <point x="268" y="438"/>
      <point x="250" y="400"/>
      <point x="221" y="376"/>
      <point x="181" y="364"/>
      <point x="155" y="364" type="qcurve" smooth="yes"/>
      <point x="9" y="364" type="line"/>
    </contour>
    <contour>
      <point x="-54" y="0" type="line"/>
      <point x="1196" y="0" type="line" smooth="yes"/>
      <point x="1295" y="0"/>
      <point x="1454" y="31"/>
      <point x="1573" y="109"/>
      <point x="1651" y="243"/>
      <point x="1669" y="346" type="qcurve" smooth="yes"/>
      <point x="1691" y="468" type="line"/>
      <point x="1138" y="580" type="line"/>
      <point x="1118" y="464" type="line" smooth="yes"/>
      <point x="1114" y="438"/>
      <point x="1096" y="400"/>
      <point x="1067" y="376"/>
      <point x="1027" y="364"/>
      <point x="1001" y="364" type="qcurve" smooth="yes"/>
      <point x="9" y="364" type="line"/>
    </contour>
  </outline>
  <guideline x="657"/>
</glyph>
<glyph name="currency" format="2">
  <advance width="1661" height="1448"/>
  <unicode hex="00A4"/>
  <outline>
    <contour>
      <point x="110" y="454" type="line"/>
      <point x="202" y="980" type="line" smooth="yes"/>
      <point x="213" y="1045"/>
      <point x="266" y="1141"/>
      <point x="352" y="1204"/>
      <point x="473" y="1234"/>
      <point x="552" y="1234" type="qcurve" smooth="yes"/>
      <point x="1300" y="1234" type="line" smooth="yes"/>
      <point x="1459" y="1234"/>
      <point x="1585" y="1111"/>
      <point x="1562" y="980" type="qcurve" smooth="yes"/>
      <point x="1470" y="454" type="line" smooth="yes"/>
      <point x="1458" y="385"/>
      <point x="1406" y="285"/>
      <point x="1320" y="221"/>
      <point x="1199" y="190"/>
      <point x="1118" y="190" type="qcurve" smooth="yes"/>
      <point x="370" y="190" type="line" smooth="yes"/>
      <point x="290" y="190"/>
      <point x="179" y="221"/>
      <point x="116" y="285"/>
      <point x="98" y="385"/>
      <point x="110" y="454" type="qcurve"/>
    </contour>
    <contour>
      <point x="655" y="572" type="line"/>
      <point x="655" y="572"/>
      <point x="655" y="572"/>
      <point x="655" y="572" type="qcurve"/>
      <point x="967" y="572" type="line"/>
      <point x="967" y="572"/>
      <point x="967" y="572"/>
      <point x="967" y="572" type="qcurve"/>
      <point x="1016" y="852" type="line"/>
      <point x="1016" y="852"/>
      <point x="1016" y="852"/>
      <point x="1016" y="852" type="qcurve"/>
      <point x="704" y="852" type="line"/>
      <point x="704" y="852"/>
      <point x="704" y="852"/>
      <point x="704" y="852" type="qcurve"/>
    </contour>
    <contour>
      <point x="59" y="-38" type="line"/>
      <point x="-82" y="133" type="line"/>
      <point x="434" y="572" type="line"/>
      <point x="575" y="401" type="line"/>
    </contour>
    <contour>
      <point x="120" y="1291" type="line"/>
      <point x="321" y="1462" type="line"/>
      <point x="684" y="1023" type="line"/>
      <point x="483" y="852" type="line"/>
    </contour>
    <contour>
      <point x="1611" y="1462" type="line"/>
      <point x="1752" y="1291" type="line"/>
      <point x="1237" y="852" type="line"/>
      <point x="1096" y="1023" type="line"/>
    </contour>
    <contour>
      <point x="1550" y="133" type="line"/>
      <point x="1349" y="-38" type="line"/>
      <point x="987" y="401" type="line"/>
      <point x="1188" y="572" type="line"/>
    </contour>
  </outline>
</glyph>
<glyph name="yen" format="2">
  <advance width="1905"/>
  <unicode hex="00A5"/>
  <outline>
    <component base="Y" yxScale="0.1745" xOffset="-120"/>
    <contour>
      <point x="260" y="625" type="line"/>
      <point x="1622" y="625" type="line"/>
      <point x="1650" y="785" type="line"/>
      <point x="288" y="785" type="line"/>
    </contour>
    <contour>
      <point x="220" y="395" type="line"/>
      <point x="1582" y="395" type="line"/>
      <point x="1610" y="555" type="line"/>
      <point x="248" y="555" type="line"/>
    </contour>
  </outline>
</glyph>
<glyph name="brokenbar" format="2">
  <advance width="760.796"/>
  <unicode hex="00A6"/>
  <outline>
    <contour>
      <point x="325" y="1520" type="line"/>
      <point x="725" y="1520" type="line"/>
      <point x="586" y="720" type="line"/>
      <point x="186" y="720" type="line"/>
    </contour>
    <contour>
      <point x="116" y="320" type="line"/>
      <point x="516" y="320" type="line"/>
      <point x="376" y="-480" type="line"/>
      <point x="-24" y="-480" type="line"/>
    </contour>
  </outline>
</glyph>
<glyph name="section" format="2">
  <advance width="1678"/>
  <unicode hex="00A7"/>
  <outline>
    <contour>
      <point x="82" y="118" type="line"/>
      <point x="609" y="196" type="line"/>
      <point x="596" y="122" type="line"/>
      <point x="596" y="122"/>
      <point x="596" y="122"/>
      <point x="596" y="122" type="qcurve"/>
      <point x="860" y="122" type="line"/>
      <point x="860" y="122"/>
      <point x="860" y="122"/>
      <point x="860" y="122" type="qcurve"/>
      <point x="889" y="284" type="line"/>
      <point x="889" y="284"/>
      <point x="889" y="284"/>
      <point x="889" y="284" type="qcurve"/>
      <point x="299" y="284" type="line" smooth="yes"/>
      <point x="235" y="284"/>
      <point x="137" y="311"/>
      <point x="76" y="372"/>
      <point x="55" y="471"/>
      <point x="68" y="542" type="qcurve" smooth="yes"/>
      <point x="100" y="726" type="line" smooth="yes"/>
      <point x="112" y="796"/>
      <point x="169" y="884"/>
      <point x="252" y="934"/>
      <point x="359" y="952"/>
      <point x="421" y="952" type="qcurve" smooth="yes"/>
      <point x="887" y="952" type="line"/>
      <point x="847" y="720" type="line"/>
      <point x="623" y="720" type="line"/>
      <point x="623" y="720"/>
      <point x="623" y="720"/>
      <point x="623" y="720" type="qcurve"/>
      <point x="594" y="556" type="line"/>
      <point x="594" y="556"/>
      <point x="594" y="556"/>
      <point x="594" y="556" type="qcurve"/>
      <point x="1182" y="556" type="line" smooth="yes"/>
      <point x="1244" y="556"/>
      <point x="1344" y="540"/>
      <point x="1408" y="492"/>
      <point x="1433" y="405"/>
      <point x="1421" y="334" type="qcurve" smooth="yes"/>
      <point x="1377" y="82" type="line" smooth="yes"/>
      <point x="1365" y="10"/>
      <point x="1311" y="-81"/>
      <point x="1231" y="-132"/>
      <point x="1124" y="-150"/>
      <point x="1059" y="-150" type="qcurve" smooth="yes"/>
      <point x="311" y="-150" type="line" smooth="yes"/>
      <point x="247" y="-150"/>
      <point x="148" y="-128"/>
      <point x="86" y="-74"/>
      <point x="65" y="20"/>
      <point x="77" y="92" type="qcurve" smooth="yes"/>
    </contour>
    <contour>
      <point x="1036" y="556" type="line"/>
      <point x="1036" y="556"/>
      <point x="1036" y="556"/>
      <point x="1036" y="556" type="qcurve"/>
      <point x="1065" y="720" type="line"/>
      <point x="1065" y="720"/>
      <point x="1065" y="720"/>
      <point x="1065" y="720"/>
      <point x="1065" y="720"/>
      <point x="1065" y="720" type="qcurve"/>
      <point x="570" y="720" type="line"/>
      <point x="475" y="720" type="line" smooth="yes"/>
      <point x="411" y="720"/>
      <point x="313" y="747"/>
      <point x="252" y="808"/>
      <point x="232" y="907"/>
      <point x="244" y="978" type="qcurve" smooth="yes"/>
      <point x="278" y="1174" type="line" smooth="yes"/>
      <point x="290" y="1244"/>
      <point x="347" y="1332"/>
      <point x="430" y="1382"/>
      <point x="537" y="1400"/>
      <point x="599" y="1400" type="qcurve" smooth="yes"/>
      <point x="1301" y="1400" type="line" smooth="yes"/>
      <point x="1363" y="1400"/>
      <point x="1462" y="1379"/>
      <point x="1526" y="1327"/>
      <point x="1551" y="1237"/>
      <point x="1539" y="1168" type="qcurve" smooth="yes"/>
      <point x="1537" y="1159" type="line"/>
      <point x="1003" y="1041" type="line"/>
      <point x="1018" y="1128" type="line"/>
      <point x="1018" y="1128"/>
      <point x="1018" y="1128"/>
      <point x="1018" y="1128" type="qcurve"/>
      <point x="794" y="1128" type="line"/>
      <point x="794" y="1128"/>
      <point x="794" y="1128"/>
      <point x="794" y="1128" type="qcurve"/>
      <point x="770" y="992" type="line"/>
      <point x="770" y="992"/>
      <point x="770" y="992"/>
      <point x="770" y="992" type="qcurve"/>
      <point x="1358" y="992" type="line" smooth="yes"/>
      <point x="1420" y="992"/>
      <point x="1520" y="976"/>
      <point x="1584" y="928"/>
      <point x="1609" y="841"/>
      <point x="1597" y="770" type="qcurve" smooth="yes"/>
      <point x="1562" y="566" type="line" smooth="yes"/>
      <point x="1549" y="494"/>
      <point x="1495" y="404"/>
      <point x="1415" y="353"/>
      <point x="1308" y="334"/>
      <point x="1243" y="334" type="qcurve" smooth="yes"/>
      <point x="779" y="334" type="line"/>
      <point x="818" y="556" type="line"/>
    </contour>
  </outline>
</glyph>
<glyph name="copyright" format="2">
  <advance width="1972"/>
  <unicode hex="00A9"/>
  <outline>
    <contour>
      <point x="437" y="548" type="line"/>
      <point x="491" y="862" type="line" smooth="yes"/>
      <point x="503" y="932"/>
      <point x="557" y="1030"/>
      <point x="647" y="1093"/>
      <point x="776" y="1122"/>
      <point x="863" y="1122" type="qcurve" smooth="yes"/>
      <point x="1265" y="1122" type="line" smooth="yes"/>
      <point x="1352" y="1122"/>
      <point x="1469" y="1094"/>
      <point x="1536" y="1032"/>
      <point x="1554" y="935"/>
      <point x="1542" y="866" type="qcurve" smooth="yes"/>
      <point x="1537" y="834" type="line"/>
      <point x="1087" y="745" type="line"/>
      <point x="1095" y="790" type="line"/>
      <point x="1095" y="790"/>
      <point x="1095" y="790"/>
      <point x="1095" y="790" type="qcurve"/>
      <point x="913" y="790" type="line"/>
      <point x="913" y="790"/>
      <point x="913" y="790"/>
      <point x="913" y="790" type="qcurve"/>
      <point x="881" y="610" type="line"/>
      <point x="881" y="610"/>
      <point x="881" y="610"/>
      <point x="881" y="610" type="qcurve"/>
      <point x="1067" y="610" type="line"/>
      <point x="1067" y="610"/>
      <point x="1067" y="610"/>
      <point x="1067" y="610" type="qcurve"/>
      <point x="1077" y="662" type="line"/>
      <point x="1495" y="573" type="line"/>
      <point x="1491" y="548" type="line" smooth="yes"/>
      <point x="1478" y="475"/>
      <point x="1426" y="373"/>
      <point x="1337" y="308"/>
      <point x="1209" y="278"/>
      <point x="1120" y="278" type="qcurve" smooth="yes"/>
      <point x="714" y="278" type="line" smooth="yes"/>
      <point x="626" y="278"/>
      <point x="507" y="308"/>
      <point x="441" y="373"/>
      <point x="424" y="475"/>
      <point x="437" y="548" type="qcurve"/>
    </contour>
    <contour>
      <point x="219" y="1044" type="line" smooth="yes"/>
      <point x="237" y="1144"/>
      <point x="314" y="1273"/>
      <point x="433" y="1348"/>
      <point x="591" y="1378"/>
      <point x="690" y="1378" type="qcurve" smooth="yes"/>
      <point x="1506" y="1378" type="line" smooth="yes"/>
      <point x="1605" y="1378"/>
      <point x="1754" y="1351"/>
      <point x="1847" y="1278"/>
      <point x="1879" y="1148"/>
      <point x="1861" y="1044" type="qcurve" smooth="yes"/>
      <point x="1743" y="368" type="line" smooth="yes"/>
      <point x="1725" y="265"/>
      <point x="1647" y="131"/>
      <point x="1527" y="53"/>
      <point x="1368" y="22"/>
      <point x="1269" y="22" type="qcurve" smooth="yes"/>
      <point x="453" y="22" type="line" smooth="yes"/>
      <point x="354" y="22"/>
      <point x="206" y="52"/>
      <point x="114" y="130"/>
      <point x="83" y="264"/>
      <point x="101" y="368" type="qcurve" smooth="yes"/>
    </contour>
    <contour>
      <point x="414" y="1050" type="line"/>
      <point x="295" y="367" type="line" smooth="yes"/>
      <point x="286" y="315"/>
      <point x="303" y="247"/>
      <point x="352" y="207"/>
      <point x="431" y="192"/>
      <point x="483" y="192" type="qcurve" smooth="yes"/>
      <point x="1299" y="192" type="line" smooth="yes"/>
      <point x="1352" y="192"/>
      <point x="1436" y="207"/>
      <point x="1499" y="246"/>
      <point x="1540" y="314"/>
      <point x="1549" y="366" type="qcurve" smooth="yes"/>
      <point x="1668" y="1051" type="line" smooth="yes"/>
      <point x="1676" y="1098"/>
      <point x="1658" y="1159"/>
      <point x="1608" y="1194"/>
      <point x="1529" y="1208"/>
      <point x="1476" y="1208" type="qcurve" smooth="yes"/>
      <point x="660" y="1208" type="line" smooth="yes"/>
      <point x="608" y="1208"/>
      <point x="524" y="1194"/>
      <point x="462" y="1159"/>
      <point x="422" y="1098"/>
      <point x="414" y="1050" type="qcurve"/>
    </contour>
  </outline>
</glyph>
<glyph name="ordfeminine" format="2">
  <advance width="1064"/>
  <unicode hex="00AA"/>
  <outline>
    <contour>
      <point x="257" y="599" type="line" smooth="yes"/>
      <point x="217" y="599"/>
      <point x="148" y="615"/>
      <point x="102" y="653"/>
      <point x="83" y="717"/>
      <point x="92" y="765" type="qcurve"/>
      <point x="105" y="843" type="line" smooth="yes"/>
      <point x="113" y="891"/>
      <point x="155" y="952"/>
      <point x="214" y="988"/>
      <point x="287" y="1002"/>
      <point x="327" y="1002" type="qcurve" smooth="yes"/>
      <point x="688" y="1002" type="line"/>
      <point x="700" y="1074" type="line"/>
      <point x="700" y="1074"/>
      <point x="700" y="1074"/>
      <point x="700" y="1074" type="qcurve"/>
      <point x="508" y="1074" type="line"/>
      <point x="508" y="1074"/>
      <point x="508" y="1074"/>
      <point x="508" y="1074" type="qcurve"/>
      <point x="502" y="1039" type="line"/>
      <point x="173" y="1101" type="line"/>
      <point x="175" y="1114" type="line" smooth="yes"/>
      <point x="184" y="1162"/>
      <point x="223" y="1227"/>
      <point x="281" y="1266"/>
      <point x="354" y="1283"/>
      <point x="397" y="1283" type="qcurve" smooth="yes"/>
      <point x="883" y="1283" type="line" smooth="yes"/>
      <point x="926" y="1283"/>
      <point x="995" y="1268"/>
      <point x="1038" y="1228"/>
      <point x="1054" y="1158"/>
      <point x="1045" y="1103" type="qcurve" smooth="yes"/>
      <point x="958" y="606" type="line"/>
      <point x="619" y="606" type="line"/>
      <point x="636" y="704" type="line"/>
      <point x="622" y="674"/>
      <point x="581" y="634"/>
      <point x="529" y="609"/>
      <point x="468" y="599"/>
      <point x="433" y="599" type="qcurve" smooth="yes"/>
    </contour>
    <contour>
      <point x="434" y="777" type="line"/>
      <point x="434" y="777"/>
      <point x="434" y="777"/>
      <point x="434" y="777" type="qcurve"/>
      <point x="649" y="777" type="line"/>
      <point x="661" y="848" type="line"/>
      <point x="446" y="848" type="line"/>
      <point x="446" y="848"/>
      <point x="446" y="848"/>
      <point x="446" y="848" type="qcurve"/>
    </contour>
  </outline>
</glyph>
<glyph name="logicalnot" format="2">
  <advance width="1447.39"/>
  <unicode hex="00AC"/>
  <outline>
    <contour>
      <point x="1248" y="212" type="line"/>
      <point x="926" y="212" type="line"/>
      <point x="1006" y="672" type="line"/>
      <point x="114" y="672" type="line"/>
      <point x="165" y="962" type="line"/>
      <point x="1379" y="962" type="line"/>
    </contour>
  </outline>
</glyph>
<glyph name="registered" format="2">
  <advance width="834"/>
  <unicode hex="00AE"/>
  <outline>
    <contour>
      <point x="123" y="1057" type="line"/>
      <point x="185" y="1410" type="line" smooth="yes"/>
      <point x="197" y="1479"/>
      <point x="285" y="1552"/>
      <point x="354" y="1552" type="qcurve" smooth="yes"/>
      <point x="785" y="1552" type="line" smooth="yes"/>
      <point x="854" y="1552"/>
      <point x="917" y="1479"/>
      <point x="905" y="1410" type="qcurve" smooth="yes"/>
      <point x="843" y="1057" type="line" smooth="yes"/>
      <point x="831" y="988"/>
      <point x="743" y="914"/>
      <point x="674" y="914" type="qcurve" smooth="yes"/>
      <point x="243" y="914" type="line" smooth="yes"/>
      <point x="174" y="914"/>
      <point x="111" y="988"/>
      <point x="123" y="1057" type="qcurve"/>
    </contour>
    <contour>
      <point x="269" y="1395" type="line"/>
      <point x="213" y="1072" type="line" smooth="yes"/>
      <point x="206" y="1032"/>
      <point x="236" y="990"/>
      <point x="276" y="990" type="qcurve" smooth="yes"/>
      <point x="681" y="990" type="line" smooth="yes"/>
      <point x="721" y="990"/>
      <point x="752" y="1032"/>
      <point x="759" y="1072" type="qcurve" smooth="yes"/>
      <point x="815" y="1395" type="line" smooth="yes"/>
      <point x="822" y="1435"/>
      <point x="792" y="1476"/>
      <point x="752" y="1476" type="qcurve" smooth="yes"/>
      <point x="361" y="1476" type="line" smooth="yes"/>
      <point x="321" y="1476"/>
      <point x="276" y="1435"/>
      <point x="269" y="1395" type="qcurve"/>
    </contour>
    <contour>
      <point x="350" y="1400" type="line"/>
      <point x="645" y="1400" type="line" smooth="yes"/>
      <point x="689" y="1400"/>
      <point x="737" y="1369"/>
      <point x="729" y="1321" type="qcurve" smooth="yes"/>
      <point x="716" y="1250" type="line" smooth="yes"/>
      <point x="712" y="1229"/>
      <point x="696" y="1201"/>
      <point x="673" y="1183"/>
      <point x="642" y="1174"/>
      <point x="624" y="1173" type="qcurve"/>
      <point x="624" y="1173" type="line"/>
      <point x="713" y="1060" type="line"/>
      <point x="556" y="1060" type="line"/>
      <point x="481" y="1163" type="line"/>
      <point x="436" y="1163" type="line"/>
      <point x="418" y="1060" type="line"/>
      <point x="291" y="1060" type="line"/>
    </contour>
    <contour>
      <point x="453" y="1258" type="line"/>
      <point x="576" y="1258" type="line" smooth="yes"/>
      <point x="584" y="1258"/>
      <point x="594" y="1266"/>
      <point x="596" y="1274" type="qcurve"/>
      <point x="598" y="1285" type="line"/>
      <point x="599" y="1293"/>
      <point x="591" y="1301"/>
      <point x="583" y="1301" type="qcurve" smooth="yes"/>
      <point x="460" y="1301" type="line"/>
    </contour>
  </outline>
</glyph>
<glyph name="plusminus" format="2">
  <advance width="1467"/>
  <unicode hex="00B1"/>
  <outline>
    <contour>
      <point x="1393" y="1044" type="line"/>
      <point x="1343" y="754" type="line"/>
      <point x="897" y="754" type="line"/>
      <point x="834" y="398" type="line"/>
      <point x="512" y="398" type="line"/>
      <point x="575" y="754" type="line"/>
      <point x="129" y="754" type="line"/>
      <point x="179" y="1044" type="line"/>
      <point x="625" y="1044" type="line"/>
      <point x="687" y="1400" type="line"/>
      <point x="1009" y="1400" type="line"/>
      <point x="947" y="1044" type="line"/>
    </contour>
    <contour>
      <point x="16.1365" y="0" type="line"/>
      <point x="66.7415" y="290" type="line"/>
      <point x="1280.74" y="290" type="line"/>
      <point x="1230.14" y="0" type="line"/>
    </contour>
  </outline>
</glyph>
<glyph name="uni00B5" format="2">
  <advance width="1536"/>
  <unicode hex="00B5"/>
  <outline>
    <contour>
      <point x="-66" y="-428" type="line"/>
      <point x="373" y="-378" type="line"/>
      <point x="445" y="32" type="line"/>
      <point x="458" y="19"/>
      <point x="517" y="-10"/>
      <point x="571" y="-10" type="qcurve" smooth="yes"/>
      <point x="577" y="-10" type="line" smooth="yes"/>
      <point x="611" y="-10"/>
      <point x="674" y="6"/>
      <point x="731" y="43"/>
      <point x="780" y="104"/>
      <point x="801" y="150" type="qcurve"/>
      <point x="775" y="0" type="line"/>
      <point x="1289" y="0" type="line"/>
      <point x="1468" y="1024" type="line"/>
      <point x="954" y="1024" type="line"/>
      <point x="838" y="362" type="line"/>
      <point x="838" y="362"/>
      <point x="838" y="362"/>
      <point x="838" y="362"/>
      <point x="838" y="362"/>
      <point x="838" y="362" type="qcurve"/>
      <point x="586" y="362" type="line"/>
      <point x="586" y="362"/>
      <point x="586" y="362"/>
      <point x="586" y="362"/>
      <point x="586" y="362"/>
      <point x="586" y="362" type="qcurve"/>
      <point x="702" y="1024" type="line"/>
      <point x="188" y="1024" type="line"/>
    </contour>
  </outline>
</glyph>
<glyph name="paragraph" format="2">
  <advance width="1613.96"/>
  <unicode hex="00B6"/>
  <outline>
    <contour>
      <point x="1314" y="0" type="line"/>
      <point x="1122" y="0" type="line"/>
      <point x="1338" y="1238" type="line"/>
      <point x="1150" y="1238" type="line"/>
      <point x="934" y="0" type="line"/>
      <point x="742" y="0" type="line"/>
      <point x="805" y="360" type="line"/>
      <point x="427" y="360" type="line" smooth="yes"/>
      <point x="332" y="360"/>
      <point x="183" y="380"/>
      <point x="86" y="445"/>
      <point x="48" y="566"/>
      <point x="66" y="666" type="qcurve" smooth="yes"/>
      <point x="136" y="1066" type="line" smooth="yes"/>
      <point x="154" y="1167"/>
      <point x="235" y="1296"/>
      <point x="356" y="1371"/>
      <point x="513" y="1400"/>
      <point x="608" y="1400" type="qcurve" smooth="yes"/>
      <point x="1558" y="1400" type="line"/>
    </contour>
  </outline>
  <guideline angle="90" color="0.4,0.4,0.4,1" name="halfwidth" x="806.98" y="0"/>
</glyph>
<glyph name="ordmasculine" format="2">
  <advance width="1051"/>
  <unicode hex="00BA"/>
  <outline>
    <contour>
      <point x="101" y="772" type="line"/>
      <point x="161" y="1117" type="line" smooth="yes"/>
      <point x="176" y="1203"/>
      <point x="285" y="1283"/>
      <point x="389" y="1283" type="qcurve" smooth="yes"/>
      <point x="872" y="1283" type="line" smooth="yes"/>
      <point x="977" y="1283"/>
      <point x="1058" y="1203"/>
      <point x="1043" y="1117" type="qcurve" smooth="yes"/>
      <point x="983" y="772" type="line" smooth="yes"/>
      <point x="967" y="682"/>
      <point x="860" y="599"/>
      <point x="753" y="599" type="qcurve" smooth="yes"/>
      <point x="270" y="599" type="line" smooth="yes"/>
      <point x="164" y="599"/>
      <point x="85" y="681"/>
      <point x="101" y="772" type="qcurve"/>
    </contour>
    <contour>
      <point x="454" y="848" type="line"/>
      <point x="454" y="848"/>
      <point x="454" y="848"/>
      <point x="454" y="848" type="qcurve"/>
      <point x="656" y="848" type="line"/>
      <point x="656" y="848"/>
      <point x="656" y="848"/>
      <point x="656" y="848" type="qcurve"/>
      <point x="688" y="1034" type="line"/>
      <point x="688" y="1034"/>
      <point x="688" y="1034"/>
      <point x="688" y="1034" type="qcurve"/>
      <point x="486" y="1034" type="line"/>
      <point x="486" y="1034"/>
      <point x="486" y="1034"/>
      <point x="486" y="1034" type="qcurve"/>
    </contour>
  </outline>
</glyph>
<glyph name="AE" format="2">
  <advance width="2932"/>
  <unicode hex="00C6"/>
  <anchor x="1844" y="1550" name="top"/>
  <anchor x="1287" y="-150" name="bottom"/>
  <outline>
    <contour>
      <point x="-120" y="0" type="line"/>
      <point x="925" y="1400" type="line"/>
      <point x="2921" y="1400" type="line"/>
      <point x="2847" y="976" type="line"/>
      <point x="1919" y="976" type="line"/>
      <point x="1904" y="890" type="line"/>
      <point x="2446" y="890" type="line"/>
      <point x="2382" y="520" type="line"/>
      <point x="1840" y="520" type="line"/>
      <point x="1823" y="424" type="line"/>
      <point x="2771" y="424" type="line"/>
      <point x="2697" y="0" type="line"/>
      <point x="1177" y="0" type="line"/>
      <point x="1208" y="176" type="line"/>
      <point x="659" y="176" type="line"/>
      <point x="532" y="0" type="line"/>
    </contour>
    <contour>
      <point x="904" y="516" type="line"/>
      <point x="1267" y="516" type="line"/>
      <point x="1344" y="956" type="line"/>
      <point x="1222" y="956" type="line"/>
    </contour>
  </outline>
</glyph>
<glyph name="Eth" format="2">
  <advance width="2049"/>
  <unicode hex="00D0"/>
  <anchor x="922" y="1550" name="top"/>
  <anchor x="922" y="-150" name="bottom"/>
  <outline>
    <contour>
      <point x="80.8005" y="862" type="line"/>
      <point x="988.8" y="862" type="line"/>
      <point x="934.8" y="550" type="line"/>
      <point x="26.8005" y="550" type="line"/>
    </contour>
    <contour>
      <point x="699.279" y="444" type="line"/>
      <point x="977.279" y="444" type="line" smooth="yes"/>
      <point x="1036.28" y="444"/>
      <point x="1132.55" y="457"/>
      <point x="1212.26" y="484"/>
      <point x="1273.59" y="526"/>
      <point x="1318.71" y="584"/>
      <point x="1348.8" y="659"/>
      <point x="1357" y="706" type="qcurve" smooth="yes"/>
      <point x="1365.02" y="752"/>
      <point x="1359.76" y="825"/>
      <point x="1334.36" y="880"/>
      <point x="1286.34" y="920"/>
      <point x="1216.7" y="945"/>
      <point x="1124.62" y="956"/>
      <point x="1066.62" y="956" type="qcurve" smooth="yes"/>
      <point x="788.623" y="956" type="line"/>
    </contour>
    <contour>
      <point x="49.8005" y="0" type="line"/>
      <point x="294.101" y="1400" type="line"/>
      <point x="1309.1" y="1400" type="line" smooth="yes"/>
      <point x="1422.1" y="1400"/>
      <point x="1614.47" y="1362"/>
      <point x="1766.03" y="1285"/>
      <point x="1875.79" y="1169"/>
      <point x="1939.57" y="1013"/>
      <point x="1952.54" y="818"/>
      <point x="1931.95" y="700" type="qcurve" smooth="yes"/>
      <point x="1910.14" y="575"/>
      <point x="1821.89" y="373"/>
      <point x="1696.84" y="218"/>
      <point x="1541.3" y="106"/>
      <point x="1363.73" y="34"/>
      <point x="1166.8" y="0"/>
      <point x="1064.8" y="0" type="qcurve" smooth="yes"/>
    </contour>
  </outline>
  <guideline y="1549"/>
  <guideline y="1325"/>
  <guideline y="73"/>
  <guideline y="706"/>
  <guideline y="706"/>
</glyph>
<glyph name="multiply" format="2">
  <advance width="1304"/>
  <unicode hex="00D7"/>
  <outline>
    <contour>
      <point x="228" y="51" type="line"/>
      <point x="44" y="275" type="line"/>
      <point x="432" y="606" type="line"/>
      <point x="162" y="933" type="line"/>
      <point x="383" y="1122" type="line"/>
      <point x="653" y="790" type="line"/>
      <point x="1039" y="1122" type="line"/>
      <point x="1223" y="898" type="line"/>
      <point x="838" y="571" type="line"/>
      <point x="1110" y="241" type="line"/>
      <point x="889" y="52" type="line"/>
      <point x="617" y="387" type="line"/>
      <point x="228" y="51" type="line"/>
    </contour>
  </outline>
  <guideline angle="40.4152" color="1,0,0,1" x="228" y="51"/>
  <guideline angle="309.544" color="1,0,0,1" x="174" y="918"/>
  <guideline angle="0" x="0" y="1122"/>
</glyph>
<glyph name="Oslash" format="2">
  <advance width="2091"/>
  <unicode hex="00D8"/>
  <anchor x="1206" y="1610" name="top"/>
  <outline>
    <contour>
      <point x="243.777" y="1080" type="line"/>
      <point x="112.777" y="332" type="line" smooth="yes"/>
      <point x="94.7774" y="229"/>
      <point x="126.777" y="95"/>
      <point x="217.777" y="17"/>
      <point x="365.777" y="-14"/>
      <point x="464.777" y="-14" type="qcurve" smooth="yes"/>
      <point x="1378.78" y="-14" type="line" smooth="yes"/>
      <point x="1477.78" y="-14"/>
      <point x="1636.78" y="17"/>
      <point x="1756.78" y="95"/>
      <point x="1834.78" y="229"/>
      <point x="1852.78" y="332" type="qcurve" smooth="yes"/>
      <point x="1983.78" y="1080" type="line" smooth="yes"/>
      <point x="2001.78" y="1181"/>
      <point x="1965.78" y="1310"/>
      <point x="1870.78" y="1385"/>
      <point x="1722.78" y="1414"/>
      <point x="1627.78" y="1414" type="qcurve" smooth="yes"/>
      <point x="713.777" y="1414" type="line" smooth="yes"/>
      <point x="619.777" y="1414"/>
      <point x="461.777" y="1385"/>
      <point x="341.777" y="1310"/>
      <point x="261.777" y="1181"/>
      <point x="243.777" y="1080" type="qcurve"/>
    </contour>
    <contour>
      <point x="792.777" y="950" type="line"/>
      <point x="792.777" y="950"/>
      <point x="792.777" y="950"/>
      <point x="792.777" y="950"/>
      <point x="792.777" y="950"/>
      <point x="792.777" y="950" type="qcurve"/>
      <point x="1388.78" y="950" type="line"/>
      <point x="1388.78" y="950"/>
      <point x="1388.78" y="950"/>
      <point x="1388.78" y="950"/>
      <point x="1388.78" y="950"/>
      <point x="1388.78" y="950" type="qcurve"/>
      <point x="1301.78" y="450" type="line"/>
      <point x="1301.78" y="450"/>
      <point x="1301.78" y="450"/>
      <point x="1301.78" y="450"/>
      <point x="1301.78" y="450"/>
      <point x="1301.78" y="450" type="qcurve"/>
      <point x="705.777" y="450" type="line"/>
      <point x="705.777" y="450"/>
      <point x="705.777" y="450"/>
      <point x="705.777" y="450"/>
      <point x="705.777" y="450"/>
      <point x="705.777" y="450" type="qcurve"/>
    </contour>
    <contour>
      <point x="7.77737" y="-60" type="line"/>
      <point x="323.777" y="155" type="line"/>
      <point x="519.777" y="266" type="line"/>
      <point x="1719.78" y="1030" type="line"/>
      <point x="1883.78" y="1123" type="line"/>
      <point x="2170.78" y="1317" type="line"/>
      <point x="2085.78" y="1460" type="line"/>
      <point x="1801.78" y="1267" type="line"/>
      <point x="1643.78" y="1178" type="line"/>
      <point x="444.777" y="415" type="line"/>
      <point x="245.777" y="302" type="line"/>
      <point x="-76.2226" y="83" type="line"/>
    </contour>
  </outline>
  <guideline y="-60"/>
  <guideline y="-60"/>
  <guideline y="1460"/>
</glyph>
<glyph name="germandbls" format="2">
  <advance width="1597"/>
  <unicode hex="00DF"/>
  <outline>
    <contour>
      <point x="798" y="912" type="line"/>
      <point x="1167" y="912" type="line" smooth="yes"/>
      <point x="1248" y="912"/>
      <point x="1369" y="943"/>
      <point x="1455" y="1007"/>
      <point x="1507" y="1107"/>
      <point x="1519" y="1176" type="qcurve" smooth="yes"/>
      <point x="1528" y="1228" type="line" smooth="yes"/>
      <point x="1551" y="1359"/>
      <point x="1425" y="1482"/>
      <point x="1266" y="1482" type="qcurve" smooth="yes"/>
      <point x="566" y="1482" type="line" smooth="yes"/>
      <point x="487" y="1482"/>
      <point x="366" y="1452"/>
      <point x="280" y="1389"/>
      <point x="227" y="1293"/>
      <point x="216" y="1228" type="qcurve" smooth="yes"/>
      <point x="2" y="0" type="line"/>
      <point x="526" y="0" type="line"/>
      <point x="731" y="1180" type="line"/>
      <point x="731" y="1180"/>
      <point x="731" y="1180"/>
      <point x="731" y="1180" type="qcurve"/>
      <point x="995" y="1180" type="line"/>
      <point x="995" y="1180"/>
      <point x="995" y="1180"/>
      <point x="995" y="1180" type="qcurve"/>
      <point x="968" y="1024" type="line"/>
      <point x="968" y="1024"/>
      <point x="968" y="1024"/>
      <point x="968" y="1024" type="qcurve"/>
      <point x="817" y="1024" type="line"/>
    </contour>
    <contour>
      <point x="625" y="-10" type="line"/>
      <point x="1093" y="-10" type="line" smooth="yes"/>
      <point x="1158" y="-10"/>
      <point x="1265" y="9"/>
      <point x="1345" y="60"/>
      <point x="1399" y="150"/>
      <point x="1411" y="222" type="qcurve" smooth="yes"/>
      <point x="1500" y="732" type="line" smooth="yes"/>
      <point x="1512" y="803"/>
      <point x="1487" y="890"/>
      <point x="1423" y="938"/>
      <point x="1323" y="954"/>
      <point x="1261" y="954" type="qcurve" smooth="yes"/>
      <point x="805" y="954" type="line"/>
      <point x="751" y="642" type="line"/>
      <point x="961" y="642" type="line"/>
      <point x="961" y="642"/>
      <point x="961" y="642"/>
      <point x="961" y="642" type="qcurve"/>
      <point x="913" y="372" type="line"/>
      <point x="913" y="372"/>
      <point x="913" y="372"/>
      <point x="913" y="372" type="qcurve"/>
      <point x="691" y="372" type="line"/>
    </contour>
  </outline>
</glyph>
<glyph name="ae" format="2">
  <advance width="2272"/>
  <unicode hex="00E6"/>
  <anchor x="1236" y="1174" name="top"/>
  <anchor x="985" y="-150" name="bottom"/>
  <outline>
    <contour>
      <point x="258.392" y="-10" type="line"/>
      <point x="712.392" y="-10" type="line" smooth="yes"/>
      <point x="800.392" y="-10"/>
      <point x="935.392" y="36"/>
      <point x="980.392" y="85" type="qcurve"/>
      <point x="1006.39" y="36"/>
      <point x="1124.39" y="-10"/>
      <point x="1211.39" y="-10" type="qcurve" smooth="yes"/>
      <point x="1752.39" y="-10" type="line" smooth="yes"/>
      <point x="1817.39" y="-10"/>
      <point x="1924.39" y="21"/>
      <point x="2007.39" y="87"/>
      <point x="2063.39" y="190"/>
      <point x="2076.39" y="262" type="qcurve" smooth="yes"/>
      <point x="2080.39" y="288" type="line"/>
      <point x="1580.39" y="366" type="line"/>
      <point x="1567.39" y="292" type="line"/>
      <point x="1567.39" y="292"/>
      <point x="1567.39" y="292"/>
      <point x="1567.39" y="292" type="qcurve"/>
      <point x="1323.39" y="292" type="line"/>
      <point x="1323.39" y="292"/>
      <point x="1323.39" y="292"/>
      <point x="1323.39" y="292" type="qcurve"/>
      <point x="1343.39" y="408" type="line"/>
      <point x="2109.39" y="408" type="line"/>
      <point x="2179.39" y="808" type="line" smooth="yes"/>
      <point x="2191.39" y="878"/>
      <point x="2165.39" y="966"/>
      <point x="2099.39" y="1016"/>
      <point x="1998.39" y="1034"/>
      <point x="1936.39" y="1034" type="qcurve" smooth="yes"/>
      <point x="1545.39" y="1034" type="line" smooth="yes"/>
      <point x="1450.39" y="1034"/>
      <point x="1302.39" y="992"/>
      <point x="1254.39" y="942" type="qcurve"/>
      <point x="1228.39" y="990"/>
      <point x="1108.39" y="1034"/>
      <point x="1021.39" y="1034" type="qcurve" smooth="yes"/>
      <point x="468.392" y="1034" type="line" smooth="yes"/>
      <point x="406.392" y="1034"/>
      <point x="298.392" y="1004"/>
      <point x="214.392" y="940"/>
      <point x="157.392" y="841"/>
      <point x="145.392" y="772" type="qcurve" smooth="yes"/>
      <point x="140.392" y="742" type="line"/>
      <point x="640.392" y="664" type="line"/>
      <point x="652.392" y="732" type="line"/>
      <point x="652.392" y="732"/>
      <point x="652.392" y="732"/>
      <point x="652.392" y="732" type="qcurve"/>
      <point x="876.392" y="732" type="line"/>
      <point x="876.392" y="732"/>
      <point x="876.392" y="732"/>
      <point x="876.392" y="732" type="qcurve"/>
      <point x="857.392" y="626" type="line"/>
      <point x="369.392" y="626" type="line" smooth="yes"/>
      <point x="307.392" y="626"/>
      <point x="201.392" y="610"/>
      <point x="120.392" y="562"/>
      <point x="65.3916" y="475"/>
      <point x="53.3916" y="404" type="qcurve" smooth="yes"/>
      <point x="21.3916" y="222" type="line" smooth="yes"/>
      <point x="8.39158" y="150"/>
      <point x="30.3916" y="60"/>
      <point x="93.3916" y="9"/>
      <point x="193.392" y="-10"/>
      <point x="258.392" y="-10" type="qcurve"/>
    </contour>
    <contour>
      <point x="557.392" y="292" type="line"/>
      <point x="557.392" y="292"/>
      <point x="557.392" y="292"/>
      <point x="557.392" y="292" type="qcurve"/>
      <point x="576.392" y="402" type="line"/>
      <point x="576.392" y="402"/>
      <point x="576.392" y="402"/>
      <point x="576.392" y="402" type="qcurve"/>
      <point x="819.392" y="402" type="line"/>
      <point x="800.392" y="292" type="line"/>
      <point x="800.392" y="292"/>
      <point x="800.392" y="292"/>
      <point x="800.392" y="292" type="qcurve"/>
    </contour>
    <contour>
      <point x="1382.39" y="632" type="line"/>
      <point x="1400.39" y="732" type="line"/>
      <point x="1400.39" y="732"/>
      <point x="1400.39" y="732"/>
      <point x="1400.39" y="732" type="qcurve"/>
      <point x="1642.39" y="732" type="line"/>
      <point x="1642.39" y="732"/>
      <point x="1642.39" y="732"/>
      <point x="1642.39" y="732" type="qcurve"/>
      <point x="1624.39" y="632" type="line"/>
    </contour>
  </outline>
</glyph>
<glyph name="eth" format="2">
  <advance width="1591"/>
  <unicode hex="00F0"/>
  <outline>
    <contour>
      <point x="444" y="1347" type="line"/>
      <point x="558" y="1323"/>
      <point x="727" y="1256"/>
      <point x="846" y="1176"/>
      <point x="921" y="1087"/>
      <point x="959" y="994"/>
      <point x="966" y="898"/>
      <point x="958" y="852" type="qcurve"/>
      <point x="1424" y="527" type="line"/>
      <point x="1450" y="673"/>
      <point x="1441" y="920"/>
      <point x="1381" y="1123"/>
      <point x="1274" y="1282"/>
      <point x="1126" y="1397"/>
      <point x="941" y="1468"/>
      <point x="835" y="1482" type="qcurve"/>
    </contour>
    <contour>
      <point x="112" y="680" type="line"/>
      <point x="37" y="254" type="line" smooth="yes"/>
      <point x="25" y="185"/>
      <point x="43" y="85"/>
      <point x="106" y="21"/>
      <point x="217" y="-10"/>
      <point x="297" y="-10" type="qcurve" smooth="yes"/>
      <point x="1025" y="-10" type="line" smooth="yes"/>
      <point x="1106" y="-10"/>
      <point x="1228" y="21"/>
      <point x="1313" y="85"/>
      <point x="1365" y="185"/>
      <point x="1377" y="254" type="qcurve" smooth="yes"/>
      <point x="1424" y="527" type="line"/>
      <point x="972" y="934" type="line"/>
      <point x="462" y="934" type="line" smooth="yes"/>
      <point x="383" y="934"/>
      <point x="262" y="904"/>
      <point x="176" y="841"/>
      <point x="123" y="745"/>
      <point x="112" y="680" type="qcurve"/>
    </contour>
    <contour>
      <point x="613" y="552" type="line"/>
      <point x="613" y="552"/>
      <point x="613" y="552"/>
      <point x="613" y="552" type="qcurve"/>
      <point x="905" y="552" type="line"/>
      <point x="905" y="552" type="line"/>
      <point x="874" y="372" type="line"/>
      <point x="874" y="372"/>
      <point x="874" y="372"/>
      <point x="874" y="372" type="qcurve"/>
      <point x="582" y="372" type="line"/>
      <point x="582" y="372"/>
      <point x="582" y="372"/>
      <point x="582" y="372" type="qcurve"/>
    </contour>
    <contour>
      <point x="412" y="1164" type="line"/>
      <point x="418" y="1001" type="line"/>
      <point x="1574" y="1237" type="line"/>
      <point x="1568" y="1400" type="line"/>
    </contour>
  </outline>
</glyph>
<glyph name="divide" format="2">
  <advance width="1447"/>
  <unicode hex="00F7"/>
  <outline>
    <contour>
      <point x="601" y="957" type="line"/>
      <point x="619" y="1060" type="line" smooth="yes"/>
      <point x="625" y="1097"/>
      <point x="640" y="1140"/>
      <point x="670" y="1162"/>
      <point x="723" y="1168"/>
      <point x="768" y="1168" type="qcurve" smooth="yes"/>
      <point x="850" y="1168" type="line" smooth="yes"/>
      <point x="896" y="1168"/>
      <point x="947" y="1162"/>
      <point x="970" y="1141"/>
      <point x="969" y="1098"/>
      <point x="963" y="1060" type="qcurve" smooth="yes"/>
      <point x="945" y="957" type="line" smooth="yes"/>
      <point x="939" y="920"/>
      <point x="924" y="876"/>
      <point x="894" y="854"/>
      <point x="840" y="848"/>
      <point x="794" y="848" type="qcurve" smooth="yes"/>
      <point x="712" y="848" type="line" smooth="yes"/>
      <point x="667" y="848"/>
      <point x="616" y="854"/>
      <point x="593" y="876"/>
      <point x="594" y="919"/>
      <point x="601" y="957" type="qcurve"/>
    </contour>
    <contour>
      <point x="74" y="442" type="line"/>
      <point x="124" y="732" type="line"/>
      <point x="1338" y="732" type="line"/>
      <point x="1288" y="442" type="line"/>
    </contour>
    <contour>
      <point x="453" y="109" type="line"/>
      <point x="471" y="212" type="line" smooth="yes"/>
      <point x="477" y="249"/>
      <point x="492" y="292"/>
      <point x="522" y="314"/>
      <point x="575" y="320"/>
      <point x="620" y="320" type="qcurve" smooth="yes"/>
      <point x="702" y="320" type="line" smooth="yes"/>
      <point x="748" y="320"/>
      <point x="799" y="314"/>
      <point x="822" y="293"/>
      <point x="821" y="250"/>
      <point x="815" y="212" type="qcurve" smooth="yes"/>
      <point x="797" y="109" type="line" smooth="yes"/>
      <point x="791" y="72"/>
      <point x="776" y="28"/>
      <point x="746" y="6"/>
      <point x="692" y="0"/>
      <point x="646" y="0" type="qcurve" smooth="yes"/>
      <point x="564" y="0" type="line" smooth="yes"/>
      <point x="519" y="0"/>
      <point x="468" y="6"/>
      <point x="445" y="28"/>
      <point x="446" y="71"/>
      <point x="453" y="109" type="qcurve"/>
    </contour>
  </outline>
</glyph>
<glyph name="oslash" format="2">
  <advance width="1719" height="1448"/>
  <unicode hex="00F8"/>
  <anchor x="944" y="1174" name="top"/>
  <outline>
    <contour>
      <point x="108.072" y="254" type="line"/>
      <point x="200.072" y="780" type="line" smooth="yes"/>
      <point x="212.072" y="845"/>
      <point x="264.072" y="941"/>
      <point x="350.072" y="1004"/>
      <point x="471.072" y="1034"/>
      <point x="550.072" y="1034" type="qcurve" smooth="yes"/>
      <point x="1278.07" y="1034" type="line" smooth="yes"/>
      <point x="1437.07" y="1034"/>
      <point x="1563.07" y="911"/>
      <point x="1540.07" y="780" type="qcurve" smooth="yes"/>
      <point x="1448.07" y="254" type="line" smooth="yes"/>
      <point x="1436.07" y="185"/>
      <point x="1384.07" y="85"/>
      <point x="1298.07" y="21"/>
      <point x="1177.07" y="-10"/>
      <point x="1096.07" y="-10" type="qcurve" smooth="yes"/>
      <point x="368.072" y="-10" type="line" smooth="yes"/>
      <point x="288.072" y="-10"/>
      <point x="177.072" y="21"/>
      <point x="114.072" y="85"/>
      <point x="96.0721" y="185"/>
      <point x="108.072" y="254" type="qcurve"/>
    </contour>
    <contour>
      <point x="628.072" y="344" type="line"/>
      <point x="628.072" y="344"/>
      <point x="628.072" y="344"/>
      <point x="628.072" y="344" type="qcurve"/>
      <point x="960.072" y="344" type="line"/>
      <point x="960.072" y="344"/>
      <point x="960.072" y="344"/>
      <point x="960.072" y="344" type="qcurve"/>
      <point x="1016.07" y="664" type="line"/>
      <point x="1016.07" y="664"/>
      <point x="1016.07" y="664"/>
      <point x="1016.07" y="664" type="qcurve"/>
      <point x="684.072" y="664" type="line"/>
      <point x="684.072" y="664"/>
      <point x="684.072" y="664"/>
      <point x="684.072" y="664" type="qcurve"/>
    </contour>
    <contour>
      <point x="88.0721" y="-60" type="line"/>
      <point x="6.07206" y="79" type="line"/>
      <point x="330.072" y="296" type="line"/>
      <point x="518.072" y="409" type="line"/>
      <point x="1111.07" y="782" type="line"/>
      <point x="1280.07" y="869" type="line"/>
      <point x="1564.07" y="1060" type="line"/>
      <point x="1646.07" y="921" type="line"/>
      <point x="1359.07" y="730" type="line"/>
      <point x="1186.07" y="640" type="line"/>
      <point x="592.072" y="265" type="line"/>
      <point x="405.072" y="153" type="line"/>
    </contour>
  </outline>
  <guideline y="1060"/>
  <guideline y="-60"/>
</glyph>
<glyph name="thorn" format="2">
  <advance width="1613"/>
  <unicode hex="00FE"/>
  <outline>
    <contour>
      <point x="-65" y="-428" type="line"/>
      <point x="267" y="1472" type="line"/>
      <point x="791" y="1472" type="line"/>
      <point x="695" y="922" type="line"/>
      <point x="737" y="979"/>
      <point x="881" y="1034"/>
      <point x="988" y="1034" type="qcurve" smooth="yes"/>
      <point x="1252" y="1034" type="line" smooth="yes"/>
      <point x="1332" y="1034"/>
      <point x="1443" y="1003"/>
      <point x="1506" y="939"/>
      <point x="1524" y="839"/>
      <point x="1512" y="770" type="qcurve" smooth="yes"/>
      <point x="1421" y="244" type="line"/>
      <point x="1409" y="179"/>
      <point x="1356" y="83"/>
      <point x="1270" y="20"/>
      <point x="1150" y="-10"/>
      <point x="1070" y="-10" type="qcurve" smooth="yes"/>
      <point x="806" y="-10" type="line" smooth="yes"/>
      <point x="699" y="-10"/>
      <point x="575" y="45"/>
      <point x="552" y="102" type="qcurve"/>
      <point x="459" y="-428" type="line"/>
    </contour>
    <contour>
      <point x="601" y="382" type="line"/>
      <point x="921" y="382" type="line"/>
      <point x="921" y="382"/>
      <point x="921" y="382"/>
      <point x="921" y="382" type="qcurve"/>
      <point x="966" y="642" type="line"/>
      <point x="966" y="642"/>
      <point x="966" y="642"/>
      <point x="966" y="642" type="qcurve"/>
      <point x="646" y="642" type="line"/>
    </contour>
  </outline>
</glyph>
<glyph name="Hbar" format="2">
  <advance width="2172.16"/>
  <unicode hex="0126"/>
  <anchor x="1238.79" y="1550" name="top"/>
  <anchor x="941.793" y="-150" name="bottom"/>
  <anchor x="131.793" y="700" name="left"/>
  <outline>
    <contour>
      <point x="110" y="0" type="line"/>
      <point x="682" y="0" type="line"/>
      <point x="766" y="482" type="line"/>
      <point x="1336" y="482" type="line"/>
      <point x="1252" y="0" type="line"/>
      <point x="1824" y="0" type="line"/>
      <point x="2068" y="1400" type="line"/>
      <point x="1496" y="1400" type="line"/>
      <point x="1390" y="794" type="line"/>
      <point x="820" y="794" type="line"/>
      <point x="926" y="1400" type="line"/>
      <point x="354" y="1400" type="line"/>
    </contour>
    <contour>
      <point x="2080" y="894" type="line"/>
      <point x="2134" y="1206" type="line"/>
      <point x="220" y="1206" type="line"/>
      <point x="166" y="894" type="line"/>
    </contour>
  </outline>
  <guideline angle="0" color="1,0,0,1" x="0" y="1050"/>
</glyph>
<glyph name="hbar" format="2">
  <advance width="1618"/>
  <unicode hex="0127"/>
  <anchor x="654" y="1622" name="top"/>
  <anchor x="717" y="-150" name="bottom"/>
  <anchor x="99" y="518" name="left"/>
  <outline>
    <contour>
      <point x="109.297" y="0" type="line"/>
      <point x="302.297" y="1103" type="line"/>
      <point x="152.297" y="1103" type="line"/>
      <point x="200.297" y="1379" type="line"/>
      <point x="350.297" y="1379" type="line"/>
      <point x="366.297" y="1472" type="line"/>
      <point x="890.297" y="1472" type="line"/>
      <point x="874.297" y="1379" type="line"/>
      <point x="1160.3" y="1379" type="line"/>
      <point x="1112.3" y="1103" type="line"/>
      <point x="826.297" y="1103" type="line"/>
      <point x="794.297" y="920" type="line"/>
      <point x="835.297" y="974"/>
      <point x="980.297" y="1024"/>
      <point x="1098.3" y="1024" type="qcurve" smooth="yes"/>
      <point x="1186.3" y="1024" type="line" smooth="yes"/>
      <point x="1282.3" y="1024"/>
      <point x="1415.3" y="989"/>
      <point x="1492.3" y="915"/>
      <point x="1515.3" y="802"/>
      <point x="1501.3" y="724" type="qcurve" smooth="yes"/>
      <point x="1375.3" y="0" type="line"/>
      <point x="851.297" y="0" type="line"/>
      <point x="956.297" y="602" type="line"/>
      <point x="956.297" y="602"/>
      <point x="956.297" y="602"/>
      <point x="956.297" y="602" type="qcurve"/>
      <point x="738.297" y="602" type="line"/>
      <point x="633.297" y="0" type="line"/>
    </contour>
  </outline>
  <guideline y="1251" color="1,0,0,1"/>
  <guideline x="847" y="602" angle="260.075" color="1,0,0,1"/>
</glyph>
<glyph name="dotlessi" format="2">
  <advance width="783"/>
  <unicode hex="0131"/>
  <anchor x="245" y="-150" name="bottom"/>
  <anchor x="476" y="1174" name="top"/>
  <anchor x="381" y="0" name="ogonek"/>
  <outline>
    <contour>
      <point x="9" y="0" type="line"/>
      <point x="533" y="0" type="line"/>
      <point x="712" y="1024" type="line"/>
      <point x="188" y="1024" type="line"/>
    </contour>
  </outline>
</glyph>
<glyph name="Lslash" format="2">
  <advance width="1555"/>
  <unicode hex="0141"/>
  <outline>
    <contour>
      <point x="60" y="0" type="line"/>
      <point x="304" y="1400" type="line"/>
      <point x="876" y="1400" type="line"/>
      <point x="716" y="484" type="line"/>
      <point x="1468" y="484" type="line"/>
      <point x="1384" y="0" type="line"/>
    </contour>
    <contour>
      <point x="1117" y="971" type="line"/>
      <point x="1090" y="811" type="line"/>
      <point x="5" y="439" type="line"/>
      <point x="33" y="599" type="line"/>
    </contour>
  </outline>
</glyph>
<glyph name="lslash" format="2">
  <advance width="809"/>
  <unicode hex="0142"/>
  <outline>
    <contour>
      <point x="22" y="0" type="line"/>
      <point x="546" y="0" type="line"/>
      <point x="672" y="722" type="line"/>
      <point x="768" y="755" type="line"/>
      <point x="796" y="915" type="line"/>
      <point x="700" y="882" type="line"/>
      <point x="803" y="1472" type="line"/>
      <point x="279" y="1472" type="line"/>
      <point x="143" y="692" type="line"/>
      <point x="47" y="659" type="line"/>
      <point x="19" y="499" type="line"/>
      <point x="115" y="532" type="line"/>
    </contour>
  </outline>
  <guideline y="724"/>
</glyph>
<glyph name="Eng" format="2">
  <advance width="2070"/>
  <unicode hex="014A"/>
  <outline>
    <contour>
      <point x="60" y="0" type="line"/>
      <point x="592" y="0" type="line"/>
      <point x="698" y="609" type="line"/>
      <point x="1346" y="0" type="line"/>
      <point x="1770" y="0" type="line"/>
      <point x="2014" y="1400" type="line"/>
      <point x="1482" y="1400" type="line"/>
      <point x="1374" y="782" type="line"/>
      <point x="726" y="1400" type="line"/>
      <point x="304" y="1400" type="line"/>
    </contour>
    <contour>
      <point x="865" y="-80" type="line"/>
      <point x="876" y="-428" type="line"/>
      <point x="1435" y="-428" type="line" smooth="yes"/>
      <point x="1494" y="-428"/>
      <point x="1598" y="-381"/>
      <point x="1681" y="-295"/>
      <point x="1739" y="-175"/>
      <point x="1752" y="-102" type="qcurve" smooth="yes"/>
      <point x="1770" y="0" type="line"/>
      <point x="1248" y="100" type="line"/>
      <point x="1234" y="-80" type="line"/>
      <point x="1234" y="-80"/>
      <point x="1234" y="-80"/>
      <point x="1234" y="-80" type="qcurve"/>
    </contour>
  </outline>
  <guideline x="624"/>
  <guideline x="631"/>
</glyph>
<glyph name="eng" format="2">
  <advance width="1513"/>
  <unicode hex="014B"/>
  <anchor x="1151" y="1174" name="top"/>
  <anchor x="617" y="-150" name="bottom"/>
  <anchor x="-1" y="518" name="left"/>
  <outline>
    <contour>
      <point x="9" y="0" type="line"/>
      <point x="533" y="0" type="line"/>
      <point x="638" y="602" type="line"/>
      <point x="856" y="602" type="line"/>
      <point x="856" y="602"/>
      <point x="856" y="602"/>
      <point x="856" y="602" type="qcurve"/>
      <point x="737" y="-80" type="line"/>
      <point x="737" y="-80"/>
      <point x="737" y="-80"/>
      <point x="737" y="-80" type="qcurve"/>
      <point x="556" y="-80" type="line"/>
      <point x="567" y="-428" type="line"/>
      <point x="940" y="-428" type="line" smooth="yes"/>
      <point x="999" y="-428"/>
      <point x="1103" y="-381"/>
      <point x="1186" y="-296"/>
      <point x="1244" y="-176"/>
      <point x="1257" y="-102" type="qcurve" smooth="yes"/>
      <point x="1403" y="734" type="line" smooth="yes"/>
      <point x="1417" y="812"/>
      <point x="1393" y="925"/>
      <point x="1316" y="999"/>
      <point x="1183" y="1034"/>
      <point x="1087" y="1034" type="qcurve" smooth="yes"/>
      <point x="999" y="1034" type="line" smooth="yes"/>
      <point x="881" y="1034"/>
      <point x="737" y="984"/>
      <point x="695" y="930" type="qcurve"/>
      <point x="712" y="1024" type="line"/>
      <point x="188" y="1024" type="line"/>
    </contour>
  </outline>
  <guideline x="642" y="-0" angle="260.072" color="1,0,0,1"/>
  <guideline x="271" y="-0" angle="260.081" color="1,0,0,1"/>
</glyph>
<glyph name="OE" format="2">
  <advance width="2960"/>
  <unicode hex="0152"/>
  <outline>
    <contour>
      <point x="450" y="0" type="line"/>
      <point x="2726" y="0" type="line"/>
      <point x="2800" y="424" type="line"/>
      <point x="1852" y="424" type="line"/>
      <point x="1869" y="520" type="line"/>
      <point x="2411" y="520" type="line"/>
      <point x="2475" y="890" type="line"/>
      <point x="1933" y="890" type="line"/>
      <point x="1948" y="976" type="line"/>
      <point x="2876" y="976" type="line"/>
      <point x="2950" y="1400" type="line"/>
      <point x="694" y="1400" type="line" smooth="yes"/>
      <point x="600" y="1400"/>
      <point x="443" y="1375"/>
      <point x="323" y="1306"/>
      <point x="244" y="1181"/>
      <point x="226" y="1080" type="qcurve" smooth="yes"/>
      <point x="96" y="332" type="line" smooth="yes"/>
      <point x="78" y="229"/>
      <point x="110" y="100"/>
      <point x="202" y="27"/>
      <point x="351" y="0"/>
      <point x="450" y="0" type="qcurve"/>
    </contour>
    <contour>
      <point x="1280" y="424" type="line"/>
      <point x="684" y="424" type="line"/>
      <point x="684" y="424"/>
      <point x="684" y="424"/>
      <point x="684" y="424"/>
      <point x="684" y="424"/>
      <point x="684" y="424" type="qcurve"/>
      <point x="780" y="976" type="line"/>
      <point x="780" y="976"/>
      <point x="780" y="976"/>
      <point x="780" y="976"/>
      <point x="780" y="976"/>
      <point x="780" y="976" type="qcurve"/>
      <point x="1376" y="976" type="line"/>
    </contour>
  </outline>
  <guideline x="1369" y="930" angle="260.091" color="1,0,0,1"/>
</glyph>
<glyph name="oe" format="2">
  <advance width="2283"/>
  <unicode hex="0153"/>
  <anchor x="2527" y="1174" name="top"/>
  <anchor x="2296" y="-150" name="bottom"/>
  <outline>
    <contour>
      <point x="269" y="-10" type="line"/>
      <point x="768" y="-10" type="line" smooth="yes"/>
      <point x="856" y="-10"/>
      <point x="992" y="36"/>
      <point x="1036" y="85" type="qcurve"/>
      <point x="1063" y="36"/>
      <point x="1180" y="-10"/>
      <point x="1267" y="-10" type="qcurve" smooth="yes"/>
      <point x="1763" y="-10" type="line" smooth="yes"/>
      <point x="1828" y="-10"/>
      <point x="1936" y="21"/>
      <point x="2018" y="87"/>
      <point x="2075" y="190"/>
      <point x="2087" y="262" type="qcurve" smooth="yes"/>
      <point x="2091" y="288" type="line"/>
      <point x="1591" y="366" type="line"/>
      <point x="1578" y="292" type="line"/>
      <point x="1578" y="292"/>
      <point x="1578" y="292"/>
      <point x="1578" y="292" type="qcurve"/>
      <point x="1334" y="292" type="line"/>
      <point x="1334" y="292"/>
      <point x="1334" y="292"/>
      <point x="1334" y="292" type="qcurve"/>
      <point x="1354" y="408" type="line"/>
      <point x="2120" y="408" type="line"/>
      <point x="2190" y="808" type="line" smooth="yes"/>
      <point x="2202" y="878"/>
      <point x="2176" y="966"/>
      <point x="2110" y="1016"/>
      <point x="2010" y="1034"/>
      <point x="1947" y="1034" type="qcurve" smooth="yes"/>
      <point x="1476" y="1034" type="line" smooth="yes"/>
      <point x="1381" y="1034"/>
      <point x="1234" y="992"/>
      <point x="1185" y="942" type="qcurve"/>
      <point x="1159" y="990"/>
      <point x="1039" y="1034"/>
      <point x="952" y="1034" type="qcurve" smooth="yes"/>
      <point x="451" y="1034" type="line" smooth="yes"/>
      <point x="389" y="1034"/>
      <point x="282" y="1004"/>
      <point x="198" y="940"/>
      <point x="140" y="841"/>
      <point x="128" y="772" type="qcurve" smooth="yes"/>
      <point x="32" y="222" type="line" smooth="yes"/>
      <point x="20" y="150"/>
      <point x="41" y="60"/>
      <point x="104" y="9"/>
      <point x="204" y="-10"/>
      <point x="269" y="-10" type="qcurve"/>
    </contour>
    <contour>
      <point x="1635" y="632" type="line"/>
      <point x="1393" y="632" type="line"/>
      <point x="1411" y="732" type="line"/>
      <point x="1411" y="732"/>
      <point x="1411" y="732"/>
      <point x="1411" y="732" type="qcurve"/>
      <point x="1653" y="732" type="line"/>
      <point x="1653" y="732"/>
      <point x="1653" y="732"/>
      <point x="1653" y="732" type="qcurve"/>
    </contour>
    <contour>
      <point x="568" y="292" type="line"/>
      <point x="645" y="732" type="line"/>
      <point x="645" y="732"/>
      <point x="645" y="732"/>
      <point x="645" y="732" type="qcurve"/>
      <point x="887" y="732" type="line"/>
      <point x="887" y="732"/>
      <point x="888" y="732"/>
      <point x="888" y="732" type="qcurve"/>
      <point x="811" y="292" type="line"/>
      <point x="811" y="292"/>
      <point x="811" y="292"/>
      <point x="811" y="292" type="qcurve"/>
      <point x="568" y="292" type="line"/>
      <point x="568" y="292"/>
      <point x="568" y="292"/>
      <point x="568" y="292" type="qcurve"/>
    </contour>
  </outline>
  <guideline angle="260.124" color="1,0,0,1" x="1022" y="-0"/>
</glyph>
<glyph name="uni018F" format="2">
  <advance width="1965"/>
  <unicode hex="018F"/>
  <anchor x="1130" y="1550" name="top"/>
  <anchor x="833" y="-150" name="bottom"/>
  <outline>
    <contour>
      <point x="90.1098" y="346" type="line"/>
      <point x="182.11" y="874" type="line"/>
      <point x="1840.11" y="874" type="line"/>
      <point x="1776.11" y="504" type="line"/>
      <point x="690.11" y="504" type="line"/>
      <point x="676.11" y="424" type="line"/>
      <point x="676.11" y="424"/>
      <point x="676.11" y="424"/>
      <point x="676.11" y="424"/>
      <point x="676.11" y="424"/>
      <point x="676.11" y="424" type="qcurve"/>
      <point x="1190.11" y="424" type="line"/>
      <point x="1190.11" y="424"/>
      <point x="1190.11" y="424"/>
      <point x="1190.11" y="424"/>
      <point x="1190.11" y="424"/>
      <point x="1190.11" y="424" type="qcurve"/>
      <point x="1286.11" y="976" type="line"/>
      <point x="1286.11" y="976"/>
      <point x="1286.11" y="976"/>
      <point x="1286.11" y="976"/>
      <point x="1286.11" y="976"/>
      <point x="1286.11" y="976" type="qcurve"/>
      <point x="778.11" y="976" type="line"/>
      <point x="778.11" y="976"/>
      <point x="778.11" y="976"/>
      <point x="778.11" y="976"/>
      <point x="778.11" y="976"/>
      <point x="778.11" y="976" type="qcurve"/>
      <point x="766.11" y="906" type="line"/>
      <point x="212.11" y="1012" type="line"/>
      <point x="222.11" y="1066" type="line" smooth="yes"/>
      <point x="240.11" y="1167"/>
      <point x="321.11" y="1296"/>
      <point x="442.11" y="1371"/>
      <point x="600.11" y="1400"/>
      <point x="694.11" y="1400" type="qcurve" smooth="yes"/>
      <point x="1520.11" y="1400" type="line" smooth="yes"/>
      <point x="1615.11" y="1400"/>
      <point x="1762.11" y="1371"/>
      <point x="1856.11" y="1296"/>
      <point x="1892.11" y="1167"/>
      <point x="1874.11" y="1066" type="qcurve" smooth="yes"/>
      <point x="1748.11" y="346" type="line" smooth="yes"/>
      <point x="1730.11" y="243"/>
      <point x="1652.11" y="109"/>
      <point x="1534.11" y="31"/>
      <point x="1375.11" y="0"/>
      <point x="1276.11" y="0" type="qcurve" smooth="yes"/>
      <point x="444.11" y="0" type="line" smooth="yes"/>
      <point x="345.11" y="0"/>
      <point x="196.11" y="31"/>
      <point x="104.11" y="109"/>
      <point x="72.1098" y="243"/>
      <point x="90.1098" y="346" type="qcurve"/>
    </contour>
  </outline>
</glyph>
<glyph name="florin" format="2">
  <advance width="1402"/>
  <unicode hex="0192"/>
  <outline>
    <contour>
      <point x="-195" y="-428" type="line"/>
      <point x="-13" y="-96" type="line"/>
      <point x="197" y="-96" type="line"/>
      <point x="197" y="-96"/>
      <point x="197" y="-96"/>
      <point x="197" y="-96" type="qcurve"/>
      <point x="442" y="602" type="line"/>
      <point x="303" y="602" type="line"/>
      <point x="410" y="904" type="line"/>
      <point x="549" y="904" type="line"/>
      <point x="644" y="1176" type="line" smooth="yes"/>
      <point x="671" y="1254"/>
      <point x="750" y="1366"/>
      <point x="855" y="1438"/>
      <point x="984" y="1472"/>
      <point x="1062" y="1472" type="qcurve" smooth="yes"/>
      <point x="1542" y="1472" type="line"/>
      <point x="1376" y="1170" type="line"/>
      <point x="1166" y="1170" type="line"/>
      <point x="1166" y="1170"/>
      <point x="1166" y="1170"/>
      <point x="1166" y="1170" type="qcurve"/>
      <point x="1073" y="904" type="line"/>
      <point x="1276" y="904" type="line"/>
      <point x="1169" y="602" type="line"/>
      <point x="966" y="602" type="line"/>
      <point x="719" y="-102" type="line" smooth="yes"/>
      <point x="693" y="-176"/>
      <point x="614" y="-296"/>
      <point x="515" y="-381"/>
      <point x="403" y="-428"/>
      <point x="345" y="-428" type="qcurve" smooth="yes"/>
    </contour>
  </outline>
</glyph>
<glyph name="uni0237" format="2">
  <advance width="784"/>
  <unicode hex="0237"/>
  <anchor x="488" y="1174" name="top"/>
  <outline>
    <contour>
      <point x="-604.874" y="-80" type="line"/>
      <point x="-593.874" y="-428" type="line"/>
      <point x="210.126" y="-428" type="line" smooth="yes"/>
      <point x="269.126" y="-428"/>
      <point x="373.126" y="-381"/>
      <point x="456.126" y="-296"/>
      <point x="514.126" y="-176"/>
      <point x="527.126" y="-102" type="qcurve" smooth="yes"/>
      <point x="724.126" y="1024" type="line"/>
      <point x="200.126" y="1024" type="line"/>
      <point x="7.12599" y="-80" type="line"/>
      <point x="7.12599" y="-80"/>
      <point x="7.12599" y="-80"/>
      <point x="7.12599" y="-80" type="qcurve"/>
    </contour>
  </outline>
</glyph>
<glyph name="acutecomb" format="2">
  <unicode hex="0301"/>
  <anchor x="85" y="1174" name="_top"/>
  <anchor x="-176" y="1100" name="_topright"/>
  <outline>
    <contour>
      <point x="-236" y="1100" type="line"/>
      <point x="127" y="1448" type="line"/>
      <point x="678" y="1448" type="line"/>
      <point x="214" y="1100" type="line"/>
    </contour>
  </outline>
</glyph>
<glyph name="uni0302" format="2">
  <unicode hex="0302"/>
  <anchor x="85" y="1174" name="_top"/>
  <anchor x="159" y="1598" name="_bottom"/>
  <anchor x="580" y="1274" name="topright"/>
  <anchor x="150" y="1548" name="top"/>
  <outline>
    <contour>
      <point x="-406" y="1100" type="line"/>
      <point x="-53" y="1448" type="line"/>
      <point x="319" y="1448" type="line"/>
      <point x="550" y="1100" type="line"/>
      <point x="125" y="1100" type="line"/>
      <point x="93" y="1243" type="line"/>
      <point x="11" y="1100" type="line"/>
    </contour>
  </outline>
</glyph>
<glyph name="tildecomb" format="2">
  <unicode hex="0303"/>
  <anchor x="76" y="1150" name="_top"/>
  <anchor x="144" y="1537" name="top"/>
  <outline>
    <contour>
      <point x="-424" y="1125" type="line"/>
      <point x="-397" y="1200"/>
      <point x="-329" y="1317"/>
      <point x="-239" y="1399"/>
      <point x="-123" y="1442"/>
      <point x="-49" y="1442" type="qcurve" smooth="yes"/>
      <point x="-11" y="1442"/>
      <point x="50" y="1433"/>
      <point x="100" y="1418"/>
      <point x="142" y="1402"/>
      <point x="181" y="1387"/>
      <point x="220" y="1378"/>
      <point x="242" y="1378" type="qcurve" smooth="yes"/>
      <point x="264" y="1378"/>
      <point x="297" y="1392"/>
      <point x="320" y="1412"/>
      <point x="333" y="1434"/>
      <point x="335" y="1442" type="qcurve"/>
      <point x="614" y="1394" type="line"/>
      <point x="588" y="1325"/>
      <point x="520" y="1209"/>
      <point x="430" y="1125"/>
      <point x="313" y="1077"/>
      <point x="239" y="1077" type="qcurve" smooth="yes"/>
      <point x="201" y="1077"/>
      <point x="140" y="1086"/>
      <point x="90" y="1101"/>
      <point x="48" y="1117"/>
      <point x="9" y="1132"/>
      <point x="-30" y="1141"/>
      <point x="-52" y="1141" type="qcurve" smooth="yes"/>
      <point x="-74" y="1141"/>
      <point x="-107" y="1127"/>
      <point x="-130" y="1107"/>
      <point x="-142" y="1085"/>
      <point x="-144" y="1077" type="qcurve"/>
    </contour>
  </outline>
  <guideline x="-615"/>
  <guideline x="375"/>
</glyph>
<glyph name="uni0304" format="2">
  <unicode hex="0304"/>
  <anchor x="85" y="1174" name="_top"/>
  <anchor x="147" y="1530" name="top"/>
  <outline>
    <contour>
      <point x="-314" y="1154" type="line"/>
      <point x="476" y="1154" type="line"/>
      <point x="525" y="1430" type="line"/>
      <point x="-265" y="1430" type="line"/>
    </contour>
  </outline>
  <guideline y="630"/>
</glyph>
<glyph name="uni0306" format="2">
  <unicode hex="0306"/>
  <anchor x="85" y="1174" name="_top"/>
  <anchor x="152" y="1561" name="top"/>
  <outline>
    <contour>
      <point x="-245" y="1461" type="line"/>
      <point x="-262" y="1362"/>
      <point x="-262" y="1224"/>
      <point x="-198" y="1138"/>
      <point x="-54" y="1099"/>
      <point x="72" y="1099" type="qcurve" smooth="yes"/>
      <point x="198" y="1099"/>
      <point x="355" y="1138"/>
      <point x="448" y="1224"/>
      <point x="496" y="1362"/>
      <point x="513" y="1461" type="qcurve"/>
      <point x="248" y="1461" type="line"/>
      <point x="242" y="1425"/>
      <point x="224" y="1375"/>
      <point x="194" y="1345"/>
      <point x="147" y="1331"/>
      <point x="112" y="1331" type="qcurve" smooth="yes"/>
      <point x="76" y="1331"/>
      <point x="33" y="1345"/>
      <point x="14" y="1375"/>
      <point x="14" y="1425"/>
      <point x="20" y="1461" type="qcurve"/>
    </contour>
  </outline>
</glyph>
<glyph name="uni0309" format="2">
  <unicode hex="0309"/>
  <anchor x="85" y="1174" name="_top"/>
  <anchor x="39" y="1100" name="_topright"/>
  <outline>
    <contour>
      <point x="-21" y="1100" type="line"/>
      <point x="180" y="1100" type="line"/>
      <point x="215" y="1116"/>
      <point x="276" y="1156"/>
      <point x="324" y="1203"/>
      <point x="357" y="1257"/>
      <point x="362" y="1287" type="qcurve" smooth="yes"/>
      <point x="370" y="1330"/>
      <point x="347" y="1401"/>
      <point x="292" y="1452"/>
      <point x="207" y="1480"/>
      <point x="151" y="1480" type="qcurve" smooth="yes"/>
      <point x="116" y="1480"/>
      <point x="46" y="1467"/>
      <point x="-18" y="1446"/>
      <point x="-76" y="1417"/>
      <point x="-100" y="1400" type="qcurve"/>
      <point x="-53" y="1244" type="line"/>
      <point x="-41" y="1252"/>
      <point x="7" y="1266"/>
      <point x="33" y="1266" type="qcurve" smooth="yes"/>
      <point x="60" y="1266"/>
      <point x="85" y="1229"/>
      <point x="80" y="1199" type="qcurve" smooth="yes"/>
      <point x="75" y="1166"/>
      <point x="17" y="1119"/>
      <point x="-21" y="1100" type="qcurve"/>
    </contour>
  </outline>
</glyph>
<glyph name="uni030A" format="2">
  <unicode hex="030A"/>
  <anchor x="85" y="1174" name="_top"/>
  <anchor x="166" y="1641" name="top"/>
  <outline>
    <contour>
      <point x="-166" y="1309" type="line"/>
      <point x="-178" y="1240"/>
      <point x="-173" y="1153"/>
      <point x="-122" y="1104"/>
      <point x="-18" y="1087"/>
      <point x="70" y="1087" type="qcurve" smooth="yes"/>
      <point x="158" y="1087"/>
      <point x="268" y="1104"/>
      <point x="335" y="1153"/>
      <point x="370" y="1240"/>
      <point x="382" y="1309" type="qcurve" smooth="yes"/>
      <point x="394" y="1378"/>
      <point x="390" y="1465"/>
      <point x="339" y="1514"/>
      <point x="235" y="1531"/>
      <point x="147" y="1531" type="qcurve" smooth="yes"/>
      <point x="59" y="1531"/>
      <point x="-51" y="1514"/>
      <point x="-119" y="1465"/>
      <point x="-154" y="1378"/>
      <point x="-166" y="1309" type="qcurve"/>
    </contour>
    <contour>
      <point x="48" y="1309" type="line"/>
      <point x="51" y="1326"/>
      <point x="61" y="1346"/>
      <point x="77" y="1356"/>
      <point x="101" y="1360"/>
      <point x="117" y="1360" type="qcurve" smooth="yes"/>
      <point x="134" y="1360"/>
      <point x="156" y="1356"/>
      <point x="168" y="1346"/>
      <point x="171" y="1326"/>
      <point x="168" y="1309" type="qcurve" smooth="yes"/>
      <point x="165" y="1293"/>
      <point x="156" y="1273"/>
      <point x="140" y="1262"/>
      <point x="117" y="1258"/>
      <point x="100" y="1258" type="qcurve" smooth="yes"/>
      <point x="84" y="1258"/>
      <point x="61" y="1262"/>
      <point x="49" y="1273"/>
      <point x="45" y="1293"/>
      <point x="48" y="1309" type="qcurve"/>
    </contour>
  </outline>
</glyph>
<glyph name="uni031B" format="2">
  <unicode hex="031B"/>
  <anchor x="58" y="1024" name="_horn"/>
  <outline>
    <contour>
      <point x="16" y="789" type="line"/>
      <point x="153" y="789"/>
      <point x="345" y="840"/>
      <point x="473" y="936"/>
      <point x="544" y="1076"/>
      <point x="560" y="1166" type="qcurve" smooth="yes"/>
      <point x="569" y="1217"/>
      <point x="576" y="1330"/>
      <point x="576" y="1393" type="qcurve"/>
      <point x="212" y="1328" type="line"/>
      <point x="212" y="1284"/>
      <point x="206" y="1209"/>
      <point x="201" y="1178" type="qcurve" smooth="yes"/>
      <point x="194" y="1140"/>
      <point x="172" y="1082"/>
      <point x="137" y="1043"/>
      <point x="90" y="1024"/>
      <point x="58" y="1024" type="qcurve"/>
    </contour>
  </outline>
</glyph>
<glyph name="uni0326" format="2">
  <unicode hex="0326"/>
  <anchor x="-146" y="-150" name="_bottom"/>
  <outline>
    <contour>
      <point x="-398" y="-678" type="line"/>
      <point x="-254" y="-475" type="line"/>
      <point x="-302" y="-475" type="line" smooth="yes"/>
      <point x="-333" y="-475"/>
      <point x="-370" y="-468"/>
      <point x="-387" y="-448"/>
      <point x="-387" y="-411"/>
      <point x="-382" y="-381" type="qcurve" smooth="yes"/>
      <point x="-354" y="-219" type="line" smooth="yes"/>
      <point x="-349" y="-189"/>
      <point x="-335" y="-153"/>
      <point x="-311" y="-133"/>
      <point x="-272" y="-126"/>
      <point x="-241" y="-126" type="qcurve" smooth="yes"/>
      <point x="-43" y="-126" type="line" smooth="yes"/>
      <point x="-12" y="-126"/>
      <point x="25" y="-133"/>
      <point x="43" y="-153"/>
      <point x="43" y="-189"/>
      <point x="38" y="-219" type="qcurve" smooth="yes"/>
      <point x="10" y="-381" type="line" smooth="yes"/>
      <point x="5" y="-410"/>
      <point x="-9" y="-446"/>
      <point x="-20" y="-457" type="qcurve" smooth="yes"/>
      <point x="-258" y="-708" type="line"/>
    </contour>
  </outline>
</glyph>
<glyph name="uni0327" format="2">
  <unicode hex="0327"/>
  <anchor x="-146" y="-150" name="_bottom"/>
  <outline>
    <contour>
      <point x="-183" y="0" type="line"/>
      <point x="-319" y="-218" type="line"/>
      <point x="-297" y="-210"/>
      <point x="-256" y="-202"/>
      <point x="-236" y="-202" type="qcurve" smooth="yes"/>
      <point x="-225" y="-202"/>
      <point x="-207" y="-209"/>
      <point x="-195" y="-222"/>
      <point x="-191" y="-243"/>
      <point x="-194" y="-256" type="qcurve" smooth="yes"/>
      <point x="-196" y="-270"/>
      <point x="-208" y="-291"/>
      <point x="-225" y="-307"/>
      <point x="-248" y="-315"/>
      <point x="-261" y="-315" type="qcurve" smooth="yes"/>
      <point x="-287" y="-315"/>
      <point x="-331" y="-305"/>
      <point x="-341" y="-297" type="qcurve"/>
      <point x="-401" y="-388" type="line"/>
      <point x="-383" y="-400"/>
      <point x="-346" y="-419"/>
      <point x="-305" y="-432"/>
      <point x="-259" y="-438"/>
      <point x="-233" y="-438" type="qcurve" smooth="yes"/>
      <point x="-185" y="-438"/>
      <point x="-96" y="-417"/>
      <point x="-24" y="-371"/>
      <point x="27" y="-299"/>
      <point x="36" y="-249" type="qcurve" smooth="yes"/>
      <point x="42" y="-214"/>
      <point x="32" y="-153"/>
      <point x="-3" y="-108"/>
      <point x="-64" y="-80"/>
      <point x="-110" y="-78" type="qcurve"/>
      <point x="-61" y="0" type="line"/>
    </contour>
  </outline>
</glyph>
<glyph name="uni0328" format="2">
  <unicode hex="0328"/>
  <anchor x="-146" y="-150" name="_bottom"/>
  <anchor x="43" y="0" name="_ogonek"/>
  <outline>
    <contour>
      <point x="43" y="0" type="line"/>
      <point x="9" y="0"/>
      <point x="-46" y="-11"/>
      <point x="-87" y="-32"/>
      <point x="-113" y="-61"/>
      <point x="-116" y="-80" type="qcurve" smooth="yes"/>
      <point x="-119" y="-98"/>
      <point x="-106" y="-127"/>
      <point x="-75" y="-146"/>
      <point x="-28" y="-157"/>
      <point x="3" y="-157" type="qcurve" smooth="yes"/>
      <point x="26" y="-157"/>
      <point x="76" y="-151"/>
      <point x="128" y="-142"/>
      <point x="181" y="-129"/>
      <point x="207" y="-121" type="qcurve"/>
      <point x="111" y="-376" type="line"/>
      <point x="41" y="-405"/>
      <point x="-134" y="-438"/>
      <point x="-225" y="-438" type="qcurve" smooth="yes"/>
      <point x="-306" y="-438"/>
      <point x="-421" y="-410"/>
      <point x="-491" y="-355"/>
      <point x="-517" y="-275"/>
      <point x="-508" y="-224" type="qcurve" smooth="yes"/>
      <point x="-502" y="-189"/>
      <point x="-473" y="-124"/>
      <point x="-428" y="-67"/>
      <point x="-367" y="-18"/>
      <point x="-329" y="0" type="qcurve"/>
    </contour>
  </outline>
</glyph>
<glyph name="uni0402" format="2">
  <advance width="2186"/>
  <unicode hex="0402"/>
  <outline>
    <contour>
      <point x="409" y="0" type="line"/>
      <point x="981" y="0" type="line"/>
      <point x="1069" y="507" type="line"/>
      <point x="1407" y="507" type="line" smooth="yes"/>
      <point x="1424" y="507"/>
      <point x="1447" y="498"/>
      <point x="1462" y="483"/>
      <point x="1467" y="461"/>
      <point x="1465" y="447" type="qcurve" smooth="yes"/>
      <point x="1462" y="429" type="line" smooth="yes"/>
      <point x="1460" y="416"/>
      <point x="1447" y="393"/>
      <point x="1427" y="378"/>
      <point x="1400" y="369"/>
      <point x="1383" y="369" type="qcurve" smooth="yes"/>
      <point x="1225" y="369" type="line"/>
      <point x="1161" y="0" type="line"/>
      <point x="1545" y="0" type="line" smooth="yes"/>
      <point x="1640" y="0"/>
      <point x="1797" y="29"/>
      <point x="1918" y="103"/>
      <point x="1999" y="233"/>
      <point x="2017" y="333" type="qcurve" smooth="yes"/>
      <point x="2056" y="557" type="line" smooth="yes"/>
      <point x="2074" y="658"/>
      <point x="2037" y="785"/>
      <point x="1942" y="857"/>
      <point x="1794" y="883"/>
      <point x="1699" y="883" type="qcurve" smooth="yes"/>
      <point x="1135" y="883" type="line"/>
      <point x="1160" y="1024" type="line"/>
      <point x="1636" y="1024" type="line"/>
      <point x="1701" y="1400" type="line"/>
      <point x="177" y="1400" type="line"/>
      <point x="112" y="1024" type="line"/>
      <point x="588" y="1024" type="line"/>
    </contour>
  </outline>
  <guideline x="569" y="916" angle="260.125" color="1,0,0,1"/>
</glyph>
<glyph name="uni0404" format="2">
  <advance width="1893"/>
  <unicode hex="0404"/>
  <anchor x="1117" y="1550" name="top"/>
  <outline>
    <contour>
      <point x="447.576" y="-14" type="line"/>
      <point x="1239.58" y="-14" type="line" smooth="yes"/>
      <point x="1338.58" y="-14"/>
      <point x="1497.58" y="17"/>
      <point x="1617.58" y="95"/>
      <point x="1695.58" y="229"/>
      <point x="1713.58" y="332" type="qcurve" smooth="yes"/>
      <point x="1739.58" y="484" type="line"/>
      <point x="1210.58" y="556" type="line"/>
      <point x="1185.58" y="410" type="line"/>
      <point x="1185.58" y="410"/>
      <point x="1185.58" y="410"/>
      <point x="1185.58" y="410"/>
      <point x="1185.58" y="410"/>
      <point x="1185.58" y="410" type="qcurve"/>
      <point x="661.576" y="410" type="line"/>
      <point x="661.576" y="410"/>
      <point x="661.576" y="410"/>
      <point x="661.576" y="410"/>
      <point x="661.576" y="410"/>
      <point x="661.576" y="410" type="qcurve"/>
      <point x="680.576" y="520" type="line"/>
      <point x="1080.58" y="520" type="line"/>
      <point x="1144.58" y="890" type="line"/>
      <point x="744.576" y="890" type="line"/>
      <point x="762.576" y="990" type="line"/>
      <point x="762.576" y="990"/>
      <point x="762.576" y="990"/>
      <point x="762.576" y="990"/>
      <point x="762.576" y="990"/>
      <point x="762.576" y="990" type="qcurve"/>
      <point x="1280.58" y="990" type="line"/>
      <point x="1280.58" y="990"/>
      <point x="1280.58" y="990"/>
      <point x="1280.58" y="990"/>
      <point x="1280.58" y="990"/>
      <point x="1280.58" y="990" type="qcurve"/>
      <point x="1259.58" y="870" type="line"/>
      <point x="1812.58" y="936" type="line"/>
      <point x="1837.58" y="1080" type="line" smooth="yes"/>
      <point x="1855.58" y="1181"/>
      <point x="1819.58" y="1310"/>
      <point x="1724.58" y="1385"/>
      <point x="1577.58" y="1414"/>
      <point x="1482.58" y="1414" type="qcurve" smooth="yes"/>
      <point x="696.576" y="1414" type="line" smooth="yes"/>
      <point x="602.576" y="1414"/>
      <point x="444.576" y="1385"/>
      <point x="323.576" y="1310"/>
      <point x="243.576" y="1181"/>
      <point x="225.576" y="1080" type="qcurve" smooth="yes"/>
      <point x="95.5757" y="332" type="line" smooth="yes"/>
      <point x="77.5757" y="229"/>
      <point x="108.576" y="95"/>
      <point x="200.576" y="17"/>
      <point x="348.576" y="-14"/>
      <point x="447.576" y="-14" type="qcurve"/>
    </contour>
  </outline>
  <guideline x="1089" y="-0" angle="260.108" color="1,0,0,1"/>
</glyph>
<glyph name="uni0409" format="2">
  <advance width="2808.16"/>
  <unicode hex="0409"/>
  <outline>
    <contour>
      <point x="-120" y="0" type="line"/>
      <point x="493" y="0" type="line"/>
      <point x="1183" y="956" type="line"/>
      <point x="1295" y="956" type="line"/>
      <point x="1128" y="0" type="line"/>
      <point x="2196" y="0" type="line" smooth="yes"/>
      <point x="2285" y="0"/>
      <point x="2432" y="29"/>
      <point x="2545" y="104"/>
      <point x="2622" y="234"/>
      <point x="2639" y="334" type="qcurve" smooth="yes"/>
      <point x="2699" y="674" type="line" smooth="yes"/>
      <point x="2716" y="774"/>
      <point x="2683" y="901"/>
      <point x="2595" y="973"/>
      <point x="2458" y="1000"/>
      <point x="2371" y="1000" type="qcurve" smooth="yes"/>
      <point x="1875" y="1000" type="line"/>
      <point x="1944" y="1400" type="line"/>
      <point x="925" y="1400" type="line"/>
    </contour>
    <contour>
      <point x="1777" y="439" type="line"/>
      <point x="1798" y="560" type="line"/>
      <point x="2052" y="560" type="line" smooth="yes"/>
      <point x="2065" y="560"/>
      <point x="2084" y="555"/>
      <point x="2096" y="543"/>
      <point x="2100" y="524"/>
      <point x="2098" y="510" type="qcurve"/>
      <point x="2094" y="489" type="line"/>
      <point x="2092" y="476"/>
      <point x="2081" y="457"/>
      <point x="2065" y="445"/>
      <point x="2044" y="439"/>
      <point x="2031" y="439" type="qcurve" smooth="yes"/>
    </contour>
  </outline>
</glyph>
<glyph name="uni040A" format="2">
  <advance width="2766"/>
  <unicode hex="040A"/>
  <outline>
    <contour>
      <point x="60" y="0" type="line"/>
      <point x="632" y="0" type="line"/>
      <point x="722" y="516" type="line"/>
      <point x="1175" y="516" type="line"/>
      <point x="1085" y="0" type="line"/>
      <point x="2154" y="0" type="line" smooth="yes"/>
      <point x="2243" y="0"/>
      <point x="2390" y="29"/>
      <point x="2503" y="104"/>
      <point x="2580" y="234"/>
      <point x="2597" y="334" type="qcurve" smooth="yes"/>
      <point x="2657" y="674" type="line" smooth="yes"/>
      <point x="2674" y="774"/>
      <point x="2641" y="901"/>
      <point x="2553" y="973"/>
      <point x="2416" y="1000"/>
      <point x="2329" y="1000" type="qcurve" smooth="yes"/>
      <point x="1832" y="1000" type="line"/>
      <point x="1901" y="1400" type="line"/>
      <point x="1329" y="1400" type="line"/>
      <point x="1260" y="1000" type="line"/>
      <point x="807" y="1000" type="line"/>
      <point x="876" y="1400" type="line"/>
      <point x="304" y="1400" type="line"/>
    </contour>
    <contour>
      <point x="1734" y="439" type="line"/>
      <point x="1755" y="560" type="line"/>
      <point x="2010" y="560" type="line" smooth="yes"/>
      <point x="2023" y="560"/>
      <point x="2042" y="555"/>
      <point x="2054" y="543"/>
      <point x="2058" y="524"/>
      <point x="2056" y="510" type="qcurve" smooth="yes"/>
      <point x="2052" y="489" type="line" smooth="yes"/>
      <point x="2050" y="476"/>
      <point x="2039" y="457"/>
      <point x="2023" y="445"/>
      <point x="2002" y="439"/>
      <point x="1989" y="439" type="qcurve" smooth="yes"/>
    </contour>
  </outline>
</glyph>
<glyph name="uni040B" format="2">
  <advance width="2186.86"/>
  <unicode hex="040B"/>
  <outline>
    <contour>
      <point x="409" y="0" type="line"/>
      <point x="981" y="0" type="line"/>
      <point x="1070" y="508" type="line"/>
      <point x="1408" y="508" type="line" smooth="yes"/>
      <point x="1424" y="508"/>
      <point x="1448" y="499"/>
      <point x="1462" y="484"/>
      <point x="1467" y="462"/>
      <point x="1465" y="448" type="qcurve"/>
      <point x="1387" y="0" type="line"/>
      <point x="1959" y="0" type="line"/>
      <point x="2056" y="558" type="line" smooth="yes"/>
      <point x="2073" y="659"/>
      <point x="2037" y="786"/>
      <point x="1942" y="858"/>
      <point x="1793" y="884"/>
      <point x="1699" y="884" type="qcurve" smooth="yes"/>
      <point x="1135" y="884" type="line"/>
      <point x="1160" y="1024" type="line"/>
      <point x="1636" y="1024" type="line"/>
      <point x="1701" y="1400" type="line"/>
      <point x="177" y="1400" type="line"/>
      <point x="112" y="1024" type="line"/>
      <point x="588" y="1024" type="line"/>
    </contour>
  </outline>
</glyph>
<glyph name="uni040F" format="2">
  <advance width="2020"/>
  <unicode hex="040F"/>
  <outline>
    <contour>
      <point x="60" y="0" type="line"/>
      <point x="636" y="0" type="line"/>
      <point x="616" y="-260" type="line"/>
      <point x="1100" y="-260" type="line"/>
      <point x="1145" y="0" type="line"/>
      <point x="1720" y="0" type="line"/>
      <point x="1964" y="1400" type="line"/>
      <point x="1392" y="1400" type="line"/>
      <point x="1232" y="484" type="line"/>
      <point x="716" y="484" type="line"/>
      <point x="876" y="1400" type="line"/>
      <point x="304" y="1400" type="line"/>
    </contour>
  </outline>
  <guideline x="890" y="0" angle="260.115" color="1,0,0,1"/>
</glyph>
<glyph name="uni0411" format="2">
  <advance width="1841.26"/>
  <unicode hex="0411"/>
  <outline>
    <contour>
      <point x="60" y="0" type="line"/>
      <point x="1200" y="0" type="line" smooth="yes"/>
      <point x="1295" y="0"/>
      <point x="1453" y="29"/>
      <point x="1574" y="104"/>
      <point x="1655" y="234"/>
      <point x="1672" y="334" type="qcurve" smooth="yes"/>
      <point x="1712" y="560" type="line" smooth="yes"/>
      <point x="1730" y="661"/>
      <point x="1693" y="788"/>
      <point x="1598" y="860"/>
      <point x="1450" y="886"/>
      <point x="1355" y="886" type="qcurve" smooth="yes"/>
      <point x="787" y="886" type="line"/>
      <point x="811" y="1024" type="line"/>
      <point x="1715" y="1024" type="line"/>
      <point x="1780" y="1400" type="line"/>
      <point x="304" y="1400" type="line"/>
    </contour>
    <contour>
      <point x="698" y="376" type="line"/>
      <point x="722" y="516" type="line"/>
      <point x="1064" y="516" type="line" smooth="yes"/>
      <point x="1097" y="516"/>
      <point x="1127" y="483"/>
      <point x="1122" y="456" type="qcurve" smooth="yes"/>
      <point x="1118" y="436" type="line"/>
      <point x="1116" y="423"/>
      <point x="1103" y="400"/>
      <point x="1083" y="385"/>
      <point x="1057" y="376"/>
      <point x="1040" y="376" type="qcurve" smooth="yes"/>
    </contour>
  </outline>
</glyph>
<glyph name="uni0414" format="2">
  <advance width="1985"/>
  <unicode hex="0414"/>
  <outline>
    <contour>
      <point x="401" y="0" type="line"/>
      <point x="1344" y="0" type="line"/>
      <point x="1325" y="-260" type="line"/>
      <point x="1809" y="-260" type="line"/>
      <point x="1938" y="484" type="line"/>
      <point x="1694" y="484" type="line"/>
      <point x="1392" y="1400" type="line"/>
      <point x="842" y="1400" type="line"/>
      <point x="220" y="484" type="line"/>
      <point x="-25" y="484" type="line"/>
      <point x="-154" y="-260" type="line"/>
      <point x="330" y="-260" type="line"/>
    </contour>
    <contour>
      <point x="758" y="404" type="line"/>
      <point x="1025" y="809" type="line"/>
      <point x="1122" y="404" type="line"/>
    </contour>
  </outline>
</glyph>
<glyph name="uni0416" format="2">
  <advance width="2794"/>
  <unicode hex="0416"/>
  <anchor x="1549" y="1550" name="top"/>
  <anchor x="1252" y="-150" name="bottom"/>
  <outline>
    <contour>
      <point x="-120" y="0" type="line"/>
      <point x="624" y="0" type="line"/>
      <point x="1079" y="512" type="line"/>
      <point x="990" y="0" type="line"/>
      <point x="1562" y="0" type="line"/>
      <point x="1652" y="515" type="line"/>
      <point x="1930" y="0" type="line"/>
      <point x="2674" y="0" type="line"/>
      <point x="2207" y="757" type="line"/>
      <point x="2835" y="1400" type="line"/>
      <point x="2199" y="1400" type="line"/>
      <point x="1716" y="882" type="line"/>
      <point x="1806" y="1400" type="line"/>
      <point x="1234" y="1400" type="line"/>
      <point x="1144" y="885" type="line"/>
      <point x="843" y="1400" type="line"/>
      <point x="207" y="1400" type="line"/>
      <point x="611" y="757" type="line"/>
    </contour>
  </outline>
</glyph>
